<?xml version="1.0" encoding="utf-8"?>
<!-- Generator: Adobe Illustrator 19.0.0, SVG Export Plug-In . SVG Version: 6.00 Build 0)  -->
<svg version="1.1" id="Layer_1" xmlns="http://www.w3.org/2000/svg" xmlns:xlink="http://www.w3.org/1999/xlink" x="0px" y="0px"
	 viewBox="1647.8 -98.5 1674.9 347.1" style="enable-background:new 1647.8 -98.5 1674.9 347.1;" xml:space="preserve">
<style type="text/css">
	.st0{fill:#FFFFFF;}
	.st1{fill:#EC1C24;}
</style>
<rect id="XMLID_1_" x="357" y="-437" class="st0" width="1024" height="1024"/>
<g id="XMLID_604_">
	<path id="XMLID_701_" d="M1023.9-64.1c-0.1-0.8-0.1-1.6-0.4-2.3c-1.6-4.7-2.6-9.6-3.4-14.5c-0.4-2.4-0.2-4.8,0-7.2
		c0.3-3.6,0.7-7.1,1.2-10.7c0.1-0.9,0.4-1.8,0.6-2.7c0.1-0.3,0.4-0.7,0.3-1c-0.5-4.2,1.3-8.1,1.6-12.2c0-0.1,0-0.2-0.1-0.4
		c-2.5-0.6-5-0.1-7.7-0.4c-0.9-1.5-2.5-2.1-4.3-2.1c-0.2,0.6-0.3,1.1-0.6,1.9c-0.7,0.1-1.4,0.2-2.2,0.2c-4.6,0-9.2,0-13.8,0
		c-1.1,0-2.3,0.1-3.6,0.1c-0.1,1.2-0.2,2.2-0.2,3.2c0,11.4,0,22.8,0,34.3c0,0.9,0.1,1.9,0,2.8c-0.1,0.7-0.6,1.4-1.1,2.5
		c0.1,0.4,1.3,0.7,1.2,2c-0.2,4.6-0.1,9.2-0.1,13.8c0,0.2-0.1,0.4-0.3,0.9c-0.7,0-1.4,0.1-2.3,0.1c-0.6-2.1-1.1-4.1-1.7-6.5
		c-0.4,0.7-0.8,1.1-0.9,1.5c-0.5,1.8-0.5,1.8-2.7,3.5c-0.3-1.7-0.7-3.3-1.1-5.7c-0.8,2.5-0.2,4.5-1.7,6.3c-0.4-0.5-0.8-0.9-1.3-1.5
		c-0.4,0.5-0.8,1-1.3,1.6c-0.4-0.5-0.8-0.9-1.4-1.6c-0.5,0.8-1,1.6-1.5,2.4c-0.4-0.2-0.7-0.2-0.8-0.3c-0.3-0.8-0.6-1.7-0.9-2.6
		c-0.2-0.4-0.5-0.7-0.9-1.3c-0.3,1.6-0.6,2.8-0.9,4c-0.5,0.1-1,0.2-1.4,0.2c-0.3,0-0.7-0.1-1.1-0.2c-0.4-0.9-0.7-1.8-1.1-2.8
		c-1.1,0.7-0.3,1.9-1.1,2.8c-0.6,0-1.5,0-2.5,0c-0.1-0.4-0.4-0.7-0.4-1c0-7.4-0.2-14.8,0-22.1c0.1-3.5,1-7.1,1.6-10.6
		c0.1-0.4,0.1-0.8-0.2-1.5c-0.3,0.5-0.6,0.9-1.1,1.7c-0.6-1.6-0.3-3-0.4-4.3c0-1.5,0-3,0-4.5c0-1.4,0-2.8,0-4.2c0-1.4,0-2.8,0-4.2
		c0-1.5,0-3,0-4.5c0-1.4-0.1-2.7-0.1-4.3c-1.1-0.1-2-0.2-2.9-0.2c-3.8,0-7.6,0.1-11.4,0c-3.8-0.1-7.5-1.1-10.8-3
		c-0.2,0-0.4,0.1-0.6,0.1c-0.1,0-0.2,0.1-0.3,0.2c0.1,0,0.2-0.1,0.3-0.1c0.2-0.1,0.4-0.1,0.6-0.2c-0.2,0.4-0.5,0.8,0,1.2
		c0.5,0.4,1,0.8,1.8,1.4c-1.2,0.8-2.5,0.2-3.6,0.9c-0.1,0.7-0.2,1.5-0.2,2.2c0.2,7.3,0.4,14.5,0.6,21.8c0.1,3.1,0.2,6.2,0.2,9.3
		c0,1.7,0,1.7-1.4,3.2c0.2,0.4,0.3,0.8,0.5,1.3c-1.3,1.4-2.6,2.8-4.2,4.5c2.1,0.2,3.1-1.7,4.9-1.6c0.5,0.9,0.5,2.1,0.6,3.2
		c0.2,6.7,0.3,13.4,0.5,20c0.3,9.4,0.6,18.9,0.9,28.3c0.2,6.7,0.3,13.4,0.5,20c0,0.8-0.1,1.6-0.1,2.3c-1.7,0.5-2.2,0.3-2.5-0.7
		C937-2,937-2.5,936.9-3.1c-0.1-0.5-0.4-1-0.8-2.2c-0.7,2-1.1,3.5-1.6,5c-0.7,0-1.4,0-2.1,0c0.7-0.9,0.6-1.9,0.1-2.9
		c-1,1-0.2,1.9-0.1,2.9c-1.5,0.2-3,0.3-4.4,0.5c-0.6-0.7-1.1-1.3-1.8-2.1c-0.3,0.7-0.5,1.1-0.7,1.7c-0.4,0.1-0.8,0.3-1.3,0.3
		c-0.7,0.1-1.4,0-2.2,0c-1.3-2.6-0.5-5.7-2-8.5c-1,3.2-0.8,6.3-1.6,9.3c-1.3-0.3-1.2-1.4-1.9-2c-0.4,0.5-0.8,1-1.3,1.5
		c-0.8-0.8-0.8-0.8-2,0c-0.2-0.1-0.5-0.3-0.5-0.4c-0.2-3-0.5-6-0.6-8.9c-0.2-4.6-0.2-9.2-0.3-13.8c0-0.7,0.1-1.4,0.1-2.2
		c1.1-0.4,2.1-0.9,3.4-1.5c-1.4-0.7-2.5-1.3-3.4-1.8c-0.7-2.5-1.7-47.9-1.6-53.9c1.5,2.9,1.5,5.8,2.8,8.7c0-1.4,0.1-2.4,0-3.4
		c-0.8-4.8-1.5-9.6-2.5-14.3c-0.8-3.9-1-7.8-1.1-11.7c-0.2-4.1-0.3-8.3-0.4-12.6c-2.1-0.4-4-0.2-6-0.2c-1.8,0-3.7,0-5.4,0
		c-0.5-1.6-0.5-1.6,0.4-2c0.6-0.2,1.2-0.5,1.8-1.1c-0.8-0.1-1.6-0.2-2.5-0.3c-0.5-2.5-0.5-4.7,1.7-6.5c-1.2-0.5-2-1-2-2.4
		c-0.1-1.3,1-1.7,1.6-2.5c-0.8-0.2-1.6-0.3-2.6-0.5c1.2-1,2.4-1,3.6-1.2c1.2-0.2,2.5-0.5,4.3-0.8c-2.5-1.1-4.9-0.2-6.8-1.7
		c0.2-0.7,0.4-1.3,0.5-1.9c0.3-0.2,0.5-0.4,0.7-0.4c2.2-0.1,4.4-0.1,6.6-0.1c1.1,0,2.3,0.2,3.5-0.6c0.7-3.6-0.3-7.4,0.2-11
		c0.2-0.2,0.2-0.4,0.3-0.4c0.7-0.1,1.4-0.1,2.2-0.2c0.4,1.1,0.8,2.2,1.4,3.6c0.3-1.3,0.6-2.4,0.9-3.5c0.5-0.1,0.9-0.3,1.3-0.2
		c0.6,0.2,1.2,0.7,1.8,0.7s1.1-0.6,1.8-0.8c1.2-0.3,1.9,0.4,2.4,1.6c0.4-0.6,0.7-1.1,1.3-1.9c0.6,1.7,1,3.1,1.5,4.4
		c0.7,0.2,0.9-0.3,0.9-0.7c0.2-1.1,0.3-2.3,0.4-3.4c1.7-0.7,3.3-0.3,5-0.4c0.5,0.9,0.9,1.8,1.4,2.7c0.9-0.6,1.4,0,2,0.6
		c0.2-0.1,0.4-0.2,0.5-0.4c0.3-0.9,0.5-1.8,0.9-2.6c0.1-0.2,0.6-0.2,1-0.3c1,4,0.2,8.1,1.1,12.2c0.6,0.1,1.3,0.2,1.9,0.2
		c2.2,0,4.4,0,6.6,0c2,0,3.9,0,5.8,0.8c0.4,0.2,1.1,0.2,1.3,0c1.1-1.3,2.6-0.8,3.9-0.8c2-0.1,3.9,0,5.9,0c0.7,0,1.3-0.1,2.2-0.2
		c0.1-1.3,0.2-2.4,0.2-3.6c0-8.7,0-17.3,0-26c0-0.7,0-1.4,0-2.1s-0.2-1.5,0.6-1.9s1.2,0.2,1.6,0.8c0.5,0.5,1.4,0.8,1.8,0.1
		c1-1.6,2.3-1.2,3.9-1c0.4,0.8,0.7,1.7,1.2,2.7c0.5-0.9,0.8-1.6,1.3-2.6c1.3,2,1.1,4,1.5,6.2c1.4-2,0.7-4.2,1.4-6.1
		c1.4-1.1,2.8-0.4,4.1,0.3c0.3-0.5,0.5-1,0.8-1.6c1.1-0.4,0.9,0.8,1.4,1.1c0.2,0,0.5,0.2,0.6,0.1c1-0.8,2.1-0.6,3.5-0.4
		c0.3,0.7,0.6,1.5,0.9,2.3c0.3-0.1,0.6-0.1,0.6-0.3c0.2-0.5,0.2-1.1,0.5-1.6c0.1-0.2,0.6-0.4,0.8-0.4c0.3,0,0.7,0.3,0.7,0.6
		c0.1,0.9,0.2,1.8,0.2,2.7c0,8.9,0,17.8,0,26.6c0,1.1,0.1,2.3,0.2,3.5c2.2,0.4,4.3,0.1,6.3,0.2c1.6,0.1,3.2-0.2,4.7,0.7
		c0.2,0.1,0.8,0.1,0.9,0c0.6-0.9,1.4-0.7,2.2-0.7c5.2,0.1,10.4,0.3,15.6,0.3c1.1,0,1.6,0.8,2.4,1.2c0.7-1.1,1.8-1.2,3-1.2
		c3.9,0,7.8,0,11.8,0c4.7,0,9.5,0.1,14.2,0.1c0.6,0,1.1,0.1,1.7,0.1c0.1,0.7-0.2,1.3,0.7,1.7c0.6,0.3,0.2,1.4-0.6,1.5
		c-1.7,0.2-3.4,0.3-5.7,0.4c2.2,1.1,4.3,0.1,6.3,1.3c-1.2,0.6-2.1,1-3.3,1.6c1,0.5,1.9,0.9,2.9,1.4c-0.5,1.1-1.4,2.2,0.2,3.2
		c0.3,0.2,0.4,1,0.5,1.5c0.1,1.4,0,2.8,0,4.2c-0.7,0.4-1.4,0.9-2.2,1.4c0.7,0.3,1.2,0.5,1.9,0.8c0,0.6,0,1.3,0,2
		c-0.8,0.2-1.6,0.4-2.5,0.6c-1.3,2.7-1.6,5.7-2.2,8.6c-0.3,1.6-0.8,3.1-2.1,4.1c0.2,0.9,1.1,1.1,0.9,2.1c-0.5,3-0.8,5.9-1.2,8.9
		c-0.9,8.7-1.3,17.5-0.7,26.2c0.4,5.4,0.9,10.8,1.7,16.1c0.3,1.7,0.1,3.2-0.3,4.8c-0.4,1.6-0.7,3.1-0.7,4.8c0.6-0.9,1.2-1.8,2-3.1
		c0.4,1.3,0.6,2.1,0.9,3c1.3,4.4,2.4,8.9,3.8,13.3c0.7,2.1,1.3,4.2,1.2,6.4c0,0.5,0.1,1.1,0.1,1.9c0.4-0.6,0.5-0.8,0.7-1.1
		c0.9-0.1,1,0.7,1.3,1.3c1.9,4.3,4.1,8.5,6.6,12.5c0.7,1.2,1.5,2.3,2.3,3.5c1.7,2.6,1.7,2.6,2.3,5.7c0.4-0.2,0.7-0.4,1.1-0.6
		c3.2,3.4,6.4,6.8,9.8,10.3c-0.9,0.8-0.5,2.6-2.3,3.4c-0.9-0.6-1.8-1.3-2.8-1.9c-0.1,0.1-0.2,0.2-0.4,0.3c0.5,1.1,1.1,2.2,1.7,3.4
		c-0.3,1.5-1.8,2.2-2.5,3.5c-1.1-0.5-2-0.9-3.4-1.5c0.5,1.1,0.8,1.8,1.1,2.5c-0.1,0.1-0.2,0.2-0.3,0.2s-0.2,0-0.3-0.1
		c-1.8-1.5-3.5-2.9-5.3-4.4c0.2,1.7,0.3,2.1,1.3,3.6c0.8,1.2,1.6,2.3,2.4,3.5c-1.2,0.8-2.3-0.8-3.5,0.1c0.5,0.9,1,1.9,1.6,3
		c-0.3,0.4-0.6,0.9-1.1,1.5c-1.5-0.7-2.9-1.4-4.4-2.1c-0.6,0.8,0.1,1.1,0.3,1.5c0.3,0.4,0.6,0.7,1,1c0.4,0.4,0.8,0.8,1.3,1.4
		c-0.5,0.7-1,1.3-1.5,1.9c-0.4-0.1-0.8-0.1-1.1-0.3c-4.5-3.9-8.7-8.3-12.4-13c-0.5-0.6-0.9-1.2,0.4-1.8c-3.2-1.2-4.8-3.9-6.4-6.5
		c-3.5-5.3-6.7-10.8-9.3-16.6c-0.2-0.4-0.3-0.9-0.5-1.3c0-0.1,0.1-0.2,0.2-0.5c0.8,0.3,1.6,0.5,2.8,0.9c-1.1-1.4-2.2-2.2-3.3-3
		c-1-0.8-1.8-1.8-2.2-3c-2.5-6.3-4.6-12.8-6.3-19.4c-0.1-0.3,0.1-0.7,0.1-1.1c1.5-0.1,3-0.2,4.7-0.4c-0.7-1.8-2.6-1.9-3.5-3.1
		c0.1-0.5,0.2-0.9,0.2-1.4c-0.1-0.1-0.1-0.2-0.2-0.3c-2.8-1.7-3.8-4.3-4.2-7.5c-1-7.4-2-14.9-2.2-22.4c0-1.7-0.1-3.4,0.1-5.6
		C1021.4-68.9,1022.7-66.5,1023.9-64.1c0.2,0,0.4,0.2,0.5,0.3C1024.2-63.9,1024.1-64,1023.9-64.1z M955.2-125.3
		c-0.3,0.2-0.5,0.4-0.8,0.7C955.1-124.5,955-125.1,955.2-125.3c0.5,0.4,1.1,0.9,1.7-0.4C956.3-125.5,955.7-125.4,955.2-125.3z
		 M910.1-122.7c1-0.1,2-0.3,2.9-0.4C912-123.4,910.8-124.3,910.1-122.7c-0.1,0-0.3,0-0.5,0C909.8-122.7,910-122.7,910.1-122.7z
		 M983.6-87.5c0.5-0.5,0.8-0.7,0.7-0.8c-0.1-2.6-0.2-5.3-0.5-7.9c-0.1-0.8-0.9-1.5-1.4-2.3c0-0.1-0.4,0.1-0.7,0.2
		C981.6-94.7,981.3-91,983.6-87.5z M971.3-102.2c0.3-0.5,0.9-1.1,0.8-1.6c-0.5-2.1-1.3-4.2-2.6-6.4c-1.1,1.9-0.8,3.6-0.4,5.3
		C969.4-103.7,969.8-102.7,971.3-102.2z M1039.6-80.8c0.7-1.1,0.1-2.7,1.3-3.7c0.2-0.1,0.2-0.7,0.1-1c-0.3-0.7-0.7-1.4-1.1-2.1
		c-0.3-0.6,0.3-1.6-0.9-2.1c-0.9,1.3-0.6,2.8-0.6,4.2c0,1.5,0.2,2.9,0.4,4.4C1038.9-81,1039.2-80.9,1039.6-80.8z M1017-131.5
		c-0.7-1.8-1.3-2.2-2.5-1.5c-1.3,0.8-2.6,1.7-3.8,3C1013.3-129.9,1013.3-129.9,1017-131.5z M923.2-39.5c-0.2,2.5-0.4,5,1,7.8
		C924.9-34.8,924-37.1,923.2-39.5z M973.1-151c-0.5,3.9-0.4,4.3,0.9,6.4c0-1.4,0.1-2.9,0.1-4.3C974.1-149.8,973.9-150.6,973.1-151z
		 M1039.6-51.6c-1.2,1.8-1.2,2,0.3,3.9C1040-49,1040-50.2,1039.6-51.6z M975.8-74.4c-0.1,0.3-0.2,0.4-0.2,0.5c0,0.6-0.3,1.3,0.4,1.8
		c0.1,0,0.2,0,0.3,0c0.6-0.6,0-1.2-0.1-1.8C976.2-74.1,976-74.2,975.8-74.4z M926.5-89.5c-0.4-1,0.2-1.8-1.1-2.6
		C925.9-91.2,925.3-90.4,926.5-89.5z M980.8-126.9c1.8,0.4,1.8,0.4,2-1.2C982.1-127.6,981.5-127.2,980.8-126.9z M1034.5-128.8
		c-0.8,0.3-1.5,0.7-0.8,1.7C1034-127.8,1034.2-128.3,1034.5-128.8z M916.5-112c-1,0.8-0.5,1.4,0.2,1.9
		C916.6-110.7,916.6-111.3,916.5-112z M1043-24.6c-0.2,0.2-0.3,0.3-0.3,0.4c-0.1,0.5-0.5,1,0.1,1.5c0.1,0,0.3,0,0.3,0
		c0.1-0.5,0.2-1,0.3-1.5C1043.4-24.3,1043.3-24.4,1043-24.6z M1037.5-110.4c0.1,0,0.2-0.1,0.2-0.1c0-0.2-0.1-0.4-0.1-0.5
		c-0.1,0-0.2,0.1-0.2,0.1C1037.4-110.7,1037.4-110.5,1037.5-110.4z M1054.2,6.2c-0.1,0-0.2,0-0.3,0c0,0.5,0,1,0,1.9
		c0.4-0.6,0.5-0.8,0.5-1C1054.4,6.8,1054.2,6.5,1054.2,6.2z M953.5-135.8c-0.1,0-0.2-0.1-0.3-0.1c0,0-0.1,0.1-0.1,0.2
		c0.1,0,0.2,0.1,0.3,0.1C953.5-135.6,953.5-135.7,953.5-135.8z M985.2-115.6c-0.1-0.2-0.2-0.3-0.3-0.5c-0.1,0.1-0.2,0.1-0.2,0.2
		c0.1,0.2,0.2,0.3,0.2,0.5C985.1-115.5,985.1-115.6,985.2-115.6z"/>
	<path id="XMLID_688_" d="M1186.9-16.8c0.8-0.1,1.6-0.1,2.5-0.2c1,1.5,0.9,3.1,1.4,4.7c-0.7,0.3-1.3,0.6-2,0.8
		c-3.6,1.1-7.3,2.3-10.9,3.4c-0.6,0.2-1.2,0.5-2.6,1.1c5.8,0.1,10.8-1.6,16.1-1.1c-0.5,1.6-2,1.5-2.7,2.5c1.1,0,2,0,3.3,0
		c0.2,0.6,0.5,1.3,0.8,2.1c-3,2-6.4,3-8.9,5.5c3.1-0.7,6.2-1.4,9.4-2.2c0.3,0.9,0.6,1.8,0.9,2.6c-0.9,0.9-1.9,1-2.9,1.2
		c-5,0.9-10,1.5-15.1,1.7c-15.1,0.6-29.6-2-43.5-7.9c-2.9-1.2-5.6-2.7-8.4-4c-1.6-0.7-2.6-1.9-3.1-3.5c-0.3-0.9-0.7-1.7-1.4-3
		c-0.3,1.3-0.4,2.1-0.6,3.2c-2.8-1.1-5-2.7-6.1-5.7c-0.4,0.3-0.7,0.5-1.1,0.9c-2.2-1.6-4.2-3.5-6.1-5.5c-9-9.1-14.2-20-16.1-32.6
		c-0.3-2-0.3-4.1-0.5-6.2c-0.1-1.5,0.3-2.7,1.3-3.8c1-1.1,2.3-2.1,3.1-3.7c-1.8-0.1-2.5,1.5-3.9,1.7c-0.1-0.3-0.4-0.5-0.4-0.8
		c0.6-11.9,4.2-22.8,10.6-32.9c0.7-1.1,1.5-2,2.4-3c1.2-1.3,2.7-2.4,3.2-4.3c0.2-0.7,0.9-1.3,1.5-1.9c8.1-8.6,17.8-14.6,29-18.1
		c1.1-0.3,2.2-0.5,3.4-0.6c5.5-0.6,11.1-0.6,16.6-0.6c1.1,0,2.2-0.1,3.3-0.6c-1.1-0.4-2.1-0.9-3.3-1.4c0.4-0.3,0.5-0.5,0.7-0.5
		c17.2-0.6,33.1,3.6,47.7,12.7c1.7,1,3.2,2.2,4.5,3.7c2.1,2.3,4.3,4.5,6.5,6.7c0.7,0.7,1.3,2,2.8,1.5c0.2-0.1,0.6,0.3,0.8,0.5
		c7.8,8.9,12.8,19.1,13.8,31c0,0.2-0.1,0.4-0.2,0.6c-0.4,0-0.8,0-1.4,0c0.3,0.8,0.5,1.6,1,2.3c0.8,1.3,0.8,2.7,0.6,4
		c-0.9,8.5-4,16-9.9,22.4c-0.4,0.4-0.9,0.7-1.6,1.3c-0.1-1.2-0.2-2.1-0.3-3c-0.2,0.1-0.4,0.1-0.4,0.2c-0.5,1.3-1,2.6-1.6,3.8
		c-0.4,0.8-1,1.6-1.7,2.1c-3,2.1-6.3,3.3-9.9,4c-0.8-1.1-1.5-2.1-2.4-3.3c-0.5,1-0.9,1.9-1.2,2.7c-1,0.3-1-0.7-1.6-1.1
		c-0.3,0.7-0.5,1.4-0.8,2c-7.6,1.1-24.1-5.8-27.5-9.7c-0.7,0.1-1.3,0.1-2.3,0.2c0.1-0.9,0.2-1.6,0.3-2.3c-4.2-0.7-4.2-0.6-8.8-3.4
		c-7.8-4.7-15.6-9.5-23.3-14.3c-1.2-0.8-3.2-0.9-3.4-3c0-0.2-0.7-0.5-1.2-0.6c-1.6-0.3-3-1.2-4.3-2.1c-2.9-1.9-5.7-3.9-8.6-5.8
		c-0.6-0.4-1.3-0.8-2.1-1.2c-1.4,2-1.8,4.2-2.3,6.3c-1.8,7.1-1.7,14.1,0.8,21.1c1,2.6,2.2,5.1,4,7.3c0.9,1.2,1.6,2.5,2.2,3.9
		c1.3,3.3,3.5,6.1,6,8.8c0.6-1.2-0.3-1.6-0.6-2.3c-0.4-0.8-1-1.5-1.5-2.3c-0.4-0.6-0.8-1.3-1.3-2.2c3,1.4,3.5,1.9,5.1,4.6
		c0.9-0.2,1.8-0.2,2.7,0.4c5.7,3.6,11.9,6.1,18.4,7.8c10.2,2.6,20.5,3.3,30.8,1.3c1.1-0.2,2.3-0.3,3.3-0.4c0.9,1.6,0.9,1.8-0.1,2.3
		s-2.1,1-3.6,1.7c2.1,0.4,3.7-0.8,5.3,0.2c-0.4,1-1.5,1.1-2.1,1.6C1187-17.4,1187.1-17,1186.9-16.8c-0.2,0-0.4,0-0.7,0l0.1,0.1
		C1186.6-16.6,1186.7-16.7,1186.9-16.8z M1172.1-75c-0.1-0.6-0.3-1.2-0.4-1.8c0.3,0,0.7-0.1,1,0c5.2,3,10.3,6,15.5,9.1
		c0.1,0.1,0.1,0.2,0.2,0.3c0.3,1-1.1,1.8-0.2,2.9c1.3-0.4,2.6-0.8,3.8-1.2c1.2,0.5,2.2,1,3.3,1.5c1.1,0.4,2.1,0.9,3.2,1.2
		c3.4,0.9,4.6,1.2,6.3-3.1c0.4-0.9,0.5-2,0.6-3c0.2-2.8-0.1-5.5-1.3-8.1c-0.7-1.6-1-3.3-0.6-5.1c-0.1,0,0,0,0,0
		c-0.5,0.2-1,0.4-1.4,0.6c-5.3-7.9-12.5-13-21.1-16.4c-7.8-3.2-16-4.4-24.4-3.9c-1.6,0.1-3.2,0.1-4.7-0.7c-0.2,1-0.8,1.4-1.6,1.6
		c-2.8,0.8-5.5,1.6-8.3,2.4c-0.6,0.2-1.1,0.6-2,1.1c1,0.8,1.8,1.4,2.7,2c8.2,5.2,16.3,10.4,24.5,15.6c1.6,1,3,2,4.4,3.3
		C1171.6-76.2,1171.4-75.5,1172.1-75c0.2,0.5,0,1.1,0.8,1.2c0.1,0.2,0.2,0.4,0.3,0.7c0-0.1,0.1-0.2,0.1-0.2
		c-0.1-0.1-0.3-0.2-0.5-0.3C1172.8-74.2,1172.8-74.8,1172.1-75z M1171.7-58.7c0.3,0,0.6,0,0.9-0.1c0.1,0,0.1-0.2,0.2-0.3
		c-0.1,0-0.2-0.1-0.3,0C1172.3-59,1172-58.8,1171.7-58.7c-0.1-0.9-0.6-1.1-1.4-0.8c0.3-0.6,0.1-1-0.5-1.4c-1.2-0.7-2.3-1.4-3.4-2.2
		c-0.1,0.1-0.1,0.2-0.2,0.2c-0.1,0-0.1-0.1-0.2-0.1c0.2,0,0.3,0,0.5,0c-0.3,0.7,0.1,1,0.6,1.3c1.1,0.8,2.5,0.9,3.3,2.2
		C1170.9-59.5,1171.5-59.5,1171.7-58.7z M1146.3-5.6c-4.9-1.9-6.3-2.1-8.7-1.4C1139.5-6,1143.2-5.4,1146.3-5.6z M1220-86.2
		c0.3,1.1,0.5,2.2,0.8,3.2c0.2,0.7,0.2,1.5,1.1,2.2C1222.9-83.2,1221.8-84.8,1220-86.2z M1106.3-41.3c1.3,3.1,1.3,3.1,3.3,3.8
		C1108.7-38.9,1107.9-39.9,1106.3-41.3z M1183.2-109.9c-1.1-0.8-2.1-0.7-3.1-0.8c-0.4-0.1-1-0.1-0.9,0.8
		C1180.5-109.9,1181.7-109.9,1183.2-109.9z M1124.7-111.4c2,0,2.7-0.7,3.4-1.5c0.3-0.3,0.7-0.7-0.2-1
		C1127.1-113.3,1126.2-112.6,1124.7-111.4z M1218.4-62.8c-0.1,0-0.2-0.1-0.3-0.1c-0.1,0.4-0.3,0.8-0.4,1.2c0,0.1,0.1,0.3,0.1,0.3
		c0.2,0,0.5-0.1,0.5-0.1C1218.3-62,1218.3-62.4,1218.4-62.8z M1192.4-45c0.8,0.2,1.1,0.3,1.4,0.3c0.1,0,0.2-0.2,0.3-0.4
		c-0.1,0-0.2-0.1-0.3-0.1C1193.5-45.2,1193.2-45.1,1192.4-45z M1111.7-70.3c-0.1,0-0.2,0-0.3,0c0,0.5,0,0.9,0,1.4c0.1,0,0.2,0,0.3,0
		C1111.7-69.4,1111.7-69.8,1111.7-70.3z M1153.3-15.9c-0.2,0-0.3,0-0.5-0.1c0.1,0.1,0.1,0.1,0.2,0.1
		C1153.2-15.8,1153.3-15.9,1153.3-15.9z"/>
	<path id="XMLID_673_" d="M686.2-81.4c0-0.1,0.1-0.2,0-0.3c-0.7-1.6-1.5-3.1-2-4.8c-0.4-1.6-0.5-3.4-0.8-5.4
		c-3.6,2.6-5.8,5.9-8.7,8.6c-1.3,0-1.9-0.8-2.6-1.7c0.1-0.3,0.1-0.7,0.3-0.9c1.3-1.9,2.6-3.8,4-5.8c-1-0.3-1.3,0.4-1.8,0.8
		s-1,0.9-1.5,1.4s-1,0.9-1.6,1.4c-0.5,0.4-1.1,0.8-1.7,1.3c-0.8-0.6-1.5-1.1-2.2-1.7c-0.4-0.4-0.8-0.8-1.2-1.3
		c2.1-3.5,4.7-6.6,7-9.9c-0.2-0.1-0.2-0.2-0.3-0.3c-0.1,0-0.2,0-0.3,0.1c-3.3,3-6.7,6-10,9c-0.1,0.1-0.2,0.1-0.3,0.2
		c-0.6-0.6,0-1,0.2-1.4c1.6-2.8,3.3-5.5,4.9-8.2c-0.2-0.2-0.2-0.4-0.3-0.4c-0.1,0-0.3,0-0.3,0.1c-2,1.9-3.9,3.9-5.9,5.8
		c-1.8-0.8-1.9-0.9-1.5-2.3c0.3-1,0.5-1.9,0.9-3.5c-1.6,1-2.7,1.7-3.9,2.5c-0.9-0.7-1.8-1.5-2.8-2.3c0.6-0.8,0.9-1.5,1.5-2
		c4-4.1,8.1-8.2,12.1-12.3c1.2-1.3,2.7-2.1,4.4-2.6c1.2-0.4,2.4-1,3.5-1.8c-0.7,0.1-1.5,0.2-2.6,0.3c0.8-1.5,2-2.2,3-3
		c1.2-1,2.4-1.8,3.6-2.7c1.1-0.8,2.2-1.6,3.4-2.5c0.3-3.7,0-7.4-0.1-11.1c-0.1-3.5-0.5-7.1-0.2-10.8c1.1,0,1.8,0,2.8,0
		c1.1,2.9-0.1,6.1,1.2,9.3c0.9-0.7,0.8-1.6,1-2.2c0.2-0.7,0.3-1.4,0.4-2c0.1-0.9,0.2-1.8,0.4-2.7c0-0.2,0.5-0.3,0.8-0.4
		c0.1,0,0.3,0.4,0.5,0.7c0.8-0.8,0.4-2.1,1.6-2.8c0.3,0,1-0.1,1.7-0.1c0.2,0.4,0.4,0.6,0.5,0.9c0.3,1.2,0.3,2.5,1.2,3.9
		c0.1-1.7,0.2-3.1,0.3-4.5c1.4-0.8,2.8-0.3,4.2-0.6c0.6,1.2,1,2.2,1.7,3.6c0.4-1.1,0.8-1.9,1-2.6c0.2-0.8,0.8-1.1,1.5-1.1
		c0.9,0.1,1.1,0.6,1.1,1.4c0,0.3,0.1,0.6,0.3,1.1c0.3-0.3,0.6-0.5,1-0.8c1.2,1.4,0.6,3.3,1.3,4.9c1.2-0.9,0.8-2.2,1.3-3.2
		c0.4-1,0.1-2.3,1.4-3.3c0.8,2.4,0.1,4.7,0.7,7.1c1-0.3,1.8-0.6,2.7-0.9c4.4-1.5,8.7-3,13.1-4.4c4.4-1.3,4.4-1.2,8.4-0.2
		c0-0.4,0-0.8,0-1.2c3.8-1.7,14.3-2,22.3-0.6c0.8,1.1,1.6,2.3,2.4,3.4c0.1-0.1,0.2-0.1,0.4-0.2c-0.2-0.8-0.4-1.7-0.6-2.7
		c0.6,0,1.1-0.1,1.5,0c9.3,2.1,17.5,6.4,24.3,13.2c1.2,1.2,1.2,1.2,1.8,3.3c0.8,0.3,1.6,0.2,2.3,1.1c3.2,4.2,6,8.7,8.2,13.8
		c-0.3,0.8-0.7,1.6-1.1,2.5c0.5,0.6,1,1.1,1.4,1.7c-0.2,1.5-1.8,2.2-2,4c1.5-0.8,2.6-1.3,4-2c0.5,1.7,1.1,3.2,1.4,4.8
		c1.7,7.1,2.6,14.3,2.7,21.6c0.1,5.1-0.1,10.1-0.2,15.2c0,1.1-0.5,1.7-1.7,2.1c1,0.7,1.9,1.3,2.9,2c-1.5,3.1-3,6-4.4,9
		c-1.4,3-2.8,6-3.4,9.3c2-2.1,3.2-4.7,5-6.9c0.9,0.2,0.7,0.9,0.6,1.4c-0.3,4.4-0.6,8.7-0.9,13.1c-0.6,8.2-1.3,16.3-2,24.5
		c-0.2,2.6-0.5,5.2-0.8,7.9c-1.8,0.5-3.3,0.1-5.1,0c-0.2-0.9-0.3-1.6-0.5-2.4c-0.1-0.6-0.3-1.3-0.6-2.5c-0.8,1.7-0.4,3-0.9,4.2
		c-1,0.7-2.1,0.4-3.2,0.2c-0.8-0.8-0.5-1.7-0.6-2.6c-0.1-2.1,0.1-4.3-0.6-6.4c-0.6,2.8-1.1,5.5-1.7,8.4c-1.1-0.9-1-2-1.1-2.9
		c-0.1-1-0.2-2-0.4-3.1c-0.3,0.2-0.6,0.3-0.7,0.5c-0.2,1.4-0.4,2.7-0.6,4.1c-0.8,0.2-2-0.3-2.2,1.1c0,0.2-0.9,0.2-1.6,0.4
		c-0.5-2.7-0.1-5.3-0.5-7.7c-0.8,0.1-0.9,0.7-1.1,1.2c-0.5,1.9-1,3.8-1.6,5.7c-1.4,0.6-2.8,0.3-4.3,0c0.1-6.3,0.9-12.5,1.3-18.6
		c0.4-6.2,1-12.4,1.5-18.9c1.1,0.4,1.9,0.6,2.7,0.9c0.1-0.3,0.2-0.5,0.2-0.7c-0.6-1.6-1.2-3.2-2-4.8c-0.4-0.9-0.5-1.7-0.4-2.7
		c0.5-7.5,0.9-15,1.3-22.4c0-0.8-0.2-1.6,0.9-1.9c0.1,0,0.2-0.9,0.1-1.2c-0.9-3-1-6.1-1.2-9.2c-0.5-7.3-1.9-14.4-5.6-20.9
		c-0.6-1.1-0.9-2.1-0.6-3.3c0.1-0.5,0.2-1.1,0.4-1.9c-1.1,0.2-1.8,0.4-2.7,0.6c-0.6-0.5-1.2-1.2-1.9-1.8c-4-4-9-6-14.5-6.5
		c-5-0.4-9.9-0.1-14.8,1.1c-0.7,0.2-1.3,0.2-2.2,0.4c0.4-1.7,2.1-1.9,2.9-3.4c-0.7,0.2-1.2,0.3-1.7,0.5c-2,1.1-4.1,2.1-6,3.4
		c-2.1,1.5-4.4,2.5-6.7,3.5c-3.7,1.6-7.3,3.3-10.9,4.9c-0.6,2.1-0.3,3.9-0.3,5.7c0.1,5.6,0.3,11.3,0.4,16.9c0.2,7,0.4,14.1,0.6,21.1
		c0.1,2.7,0,5.3-1,7.8c-0.6,1.6-1.2,3.2-1.1,5c1.1-0.3,0.9-1.7,1.9-2c0.8,0.8,0.6,1.9,0.7,2.8c0.1,4.2,0.1,8.3,0.2,12.5
		c0.2,7.6,0.4,15.2,0.6,22.8c0.1,5.1,0.3,10.1,0.5,15.2c-0.9,0-0.9-0.7-1.1-1.2c-0.3-1.1-0.3-2.3-1.3-3.2c-0.4,2.9-0.7,5.8-1.1,8.8
		c-0.9,0.1-1.8,0.2-2.8,0.4c-0.5-1.8-1-3.4-1.5-5.2c-0.9,1-0.9,2-1,3c-0.4,2.2-0.4,2.2-3.1,2.1c-1.1-1.8-0.7-4.2-2.4-6.3
		c-0.3,1.3-0.5,2.3-0.6,3.2c-0.2,1-0.2,2-0.3,3.1c-1.4,0.5-2.8,0.5-4.3,0c-0.8-3.8-0.7-7.8-1.6-11.7c-0.4,0-0.5,0-0.6,0.1
		c-0.1,0.2-0.2,0.4-0.3,0.6c-0.3,3.7-0.6,7.3-0.9,11c-2,0.7-2,0.7-4.3,0.2c-0.4-2-1.2-27.9-1-31.4c0.5-0.3,1-0.7,1.7-1.2
		c-0.3-0.5-0.6-0.8-0.8-1.2c-0.9-1.2-1.2-2.6-1.2-4.2c0-4-0.3-8.1-0.5-12.2c0.6-0.1,1.1-0.3,1.6-0.4c0,0.5-0.1,0.9-0.2,1.4
		c0.1,0,0.1,0,0.2,0c0-0.5,0-0.9,0-1.4c-1.7-5.2-1.9-10.5-2-15.9c-0.1-4.6-0.2-9.1-0.3-13.7c0-0.8,0-1.6,0-2.6
		C685-81.9,685.6-81.7,686.2-81.4c0.2,0.6,0.3,1.2,0.4,1.8c0.2,0.1,0.4,0.2,0.5,0.2c-0.1,0-0.3-0.1-0.6-0.2
		C686.8-80.3,687-80.9,686.2-81.4z M702.4-88.8c0.1,0.9-0.6,1.8,0.2,2.8C702.6-87.1,702.5-87.9,702.4-88.8c-0.2-1.1-0.4-2.2-0.8-4
		c0,1.7-0.1,2.5,0,3.4C701.7-89.2,702.1-89,702.4-88.8z M702.4-119.9c-0.5,0.1-1,0.1-1.3,0.4c-2.1,1.4-4.1,2.9-6.1,4.4
		c-0.5,0.4-0.9,1.1-1.2,1.6c-0.1,0.2-0.2,0.5-0.4,1.3c3.2-2.5,5.9-4.6,8.7-6.8C702.3-119.1,702.3-119.4,702.4-119.9z M793.6-76.7
		c0.3-0.5,0.6-0.7,0.7-1c0.2-0.5,0.4-1.1,0.4-1.7c0-1.7-0.1-3.4-0.2-5.2c-0.1-1.1-0.3-2.2-0.5-3.2c-0.5,3.5-0.7,6.9-0.9,10.4
		C793.2-77.3,793.3-77.2,793.6-76.7z M779.6-27.2c1.2,0.1,1.5-0.7,1.8-1.4c0.4-1.1,0.3-3.9-0.2-6.3
		C780.1-32.3,779.1-29.9,779.6-27.2z M693.8-66.6c-1.7,1.2-2.2,1.9-2.3,3.3c0,0.9-0.1,1.9,1.2,2.3C693.2-62.8,694.1-64.5,693.8-66.6
		z M719.8-135.8c1.3-0.6,2.1-0.9,2.9-1.4c0.2-0.1,0.2-0.5,0.2-0.8c0-0.1-0.4-0.3-0.6-0.2C721.3-137.9,720.4-137.6,719.8-135.8z
		 M701.9-25.8c-0.3,1.4-0.6,2.7,0,4C701.9-23.2,701.9-24.5,701.9-25.8z M772.6-131.5c-0.2,0.1-0.3,0.3-0.5,0.4
		c0.5,0.6,1,1.2,1.5,1.7c0.3,0.3,0.7,0.6,1.1-0.2C774.1-130.2,773.3-130.8,772.6-131.5z M695-136.9c-0.6,0.9-0.8,1.5-0.4,2.1
		c0.1,0.1,0.4,0.3,0.6,0.2c0.2,0,0.4-0.3,0.4-0.5C695.4-135.5,695.2-136,695-136.9z M746.6-131.7c1.1,0.8,1.8,0.8,3.1,0
		C748.4-131.7,747.7-131.7,746.6-131.7z M703-81.2c0.1,0,0.2,0,0.3-0.1c-0.1-0.3-0.1-0.7-0.2-1c-0.1,0.1-0.2,0.1-0.2,0.2
		C703-81.7,703-81.4,703-81.2z M702.6-18.2c0-0.1-0.1-0.2-0.1-0.3c-0.1,0.1-0.2,0.2-0.2,0.2c0,0.1,0.1,0.2,0.2,0.3
		C702.5-18,702.6-18.1,702.6-18.2z M777.8-108.5c0,0.1-0.1,0.2-0.1,0.3c0,0,0.1,0.1,0.2,0.1c0-0.1,0.1-0.2,0.1-0.3
		C778-108.5,777.9-108.5,777.8-108.5z"/>
	<path id="XMLID_663_" class="st1" d="M1135.9,126.8c0.8,0.2,0.9-0.5,1.1-1c1.5-3.7,3-7.5,4.5-11.2c0.4-1.1,0.9-2.1,1.3-3
		c1.4-0.7,2.3,0.4,3.4,0.4c0.1,0.8,0.1,1.5,0.2,2.2c0.2,0,0.4,0,0.4,0c0.6-0.7,1.2-1.3,2-2.2c1.2,3.5,0.9,7,1.2,10.3
		c0.8,0.4,1.2-0.1,1.4-0.7c0.5-1.3,1-2.6,1.4-3.9c0.4-1.2,0.9-2.3,1.4-3.6c1.2,0.3,2.2,0.5,3.1,0.8c0.6,1.2,0.1,2.2-0.1,3.1
		c-3,12.9-6.1,25.8-9,38.7c-0.8,3.6-1.5,7.2-2.3,10.8c-0.2,0.8-0.1,1.5-0.2,2.5c0.8,0,1.5,0.1,2.2,0.1c4.1-0.3,8.3-0.6,12.4-0.9
		c4-0.3,8-0.8,12.1-1c8.9-0.6,17.7-1.1,26.6-1.7c0.9-0.1,1.8,0.1,2.9,0.1c-0.5,1.6-1,3-1.7,5c2.6-1.8,3.5-4.1,5.5-5.5
		c11.4-1,37-2,41.1-1.5c0.7,1,0.6,2.1,0,3.4c-1.4,0.2-2.9,0.4-4.3,0.5c-5.2,0.5-10.4,0.8-15.5,1.5c-3.5,0.5-7,1.5-10.5,2.3
		c-0.4,0.1-0.8,0.4-1.6,0.9c1.8,0.3,3.1,0.1,4.4,0.1c1.5,0,3-0.2,4.5-0.2c1.4,0,2.8-0.1,4.2-0.1s2.8,0,4.2,0s2.8,0,4.2-0.1
		c1.5,0,3-0.1,4.5-0.1c1.3,0,2.7-0.3,4.6,0.2c-1,0.5-1.5,0.7-2,1c-0.4,0.2-0.8,0.4-1.1,0.6c-0.2,0.8,0.2,0.9,0.7,1.1
		c0.9,0.4,1.9,0.8,3,1.4c-1.4,1.7-3.7,1.2-4.8,2.7c-0.1,0.7,0.5,0.7,0.9,0.7c1.7,0.3,3.4,0.5,5.1,0.7c1.9,0.2,3.9,0.1,6,0.7
		c-0.8,1-1.6,1.1-2.5,1.3c-4.7,1-9.5,1.9-14.2,2.8c-1,0.2-1.9,0.6-2.8,1.3c4.5-0.2,9.1-0.3,13.5-0.5c0.9,1.9,0.9,1.9,0.5,4.6
		c-0.6,0.1-1.2,0.3-1.9,0.3c-6,0.2-12,0.4-18,0.7c-8.7,0.4-17.5,0.8-26.2,1.3c-8.2,0.5-16.3,1.1-24.5,1.7c-0.2,0-0.4-0.1-0.9-0.2
		c0.4-0.4,0.6-0.8,1-1c2.5-1.3,5.1-2.6,7.7-4c1-0.5,2-1.2,3.5-2.1c-1.1,0-1.6-0.1-2,0c-6.4,2.4-12.7,4.7-19.1,7.2
		c-1.4,0.5-2.8,0.9-4.3,1c-6.7,0.6-13.3,1.2-20,1.9c-0.6,0.1-1.1,0.2-1.6,0.2c-1.1,3.1-2.6,16.5-3,26.2c-0.4,8.7-0.5,17.4-0.2,26.4
		c-1.5-0.6-1.8-1.8-2.5-2.6c-0.7-0.8-1.2-1.9-2.4-2.5c0.2,1.9,1.1,3.3,1.7,4.7c1.1,2.6,2.7,5.2,3.5,7.9c0.8,2.7,0.9,5.7,1.3,8.5
		c0.9,6.8,2.7,13.3,5.7,19.5c0.6,1.3,0.9,2.8,1.3,4.3c0.4,1.4,0.6,2.9,1.1,5c0.3-1.5,0.5-2.2,0.7-3.3c1.7,1.7,3.2,3.4,5,4.7
		c1.7,1.3,3.7,2.2,5.7,3.4c0.5,2-2,1.4-2.7,2.8c0.5,0.7,1.1,1.5,1.7,2.3c-0.9,1.1-2-0.3-3,0.4c0.6,1.2,2.2,1.1,3.1,2.5
		c-0.1,0.7-0.2,1.6-0.3,2.5c-0.4,0.1-0.7,0.3-0.8,0.2c-2.2-0.6-4.5-1.2-6.7-1.8c-2.9-0.9-5.7-1.9-8.6-2.7c-0.9-0.3-1.8-0.3-2.7-0.4
		c-0.2-0.2-0.4-0.3-0.6-0.5c-0.1,0.1-0.1,0.3-0.2,0.4c0.3,0,0.6,0,0.9,0.1c0.1,1.1,1.1,1.1,1.7,1.4c4.9,2.3,9.8,4.6,14.7,6.9
		c0.9,0.4,1.9,0.7,2.8,1.9c-1.1,0-1.9,0-2.6,0c-0.7-0.1-1.3-0.2-2.3-0.4c0.4,1.3,1.5,1.5,2.2,2.2c0.7,0.7,1.7,1.2,2.1,2.4
		c-1.5,1.3-3.3,0.9-4.9,1c-1.7,0.1-3.4,0-5.2,0c-0.1,0.8,0.7,0.8,1.1,1c1.8,0.8,3.6,1.6,5.4,2.4c0.4,0.2,0.9,0.4,1.2,0.7
		c0.2,0.2,0.2,0.6,0.2,0.9c0,0.1-0.3,0.4-0.5,0.4c-0.9-0.1-1.8-0.1-2.7-0.3c-6.7-1.5-12.5-4.7-17.6-9.2c-5-4.4-9-9.6-12.2-15.4
		c-0.2-0.4-0.4-0.8-0.5-1.3c0-0.1,0-0.2,0.1-0.5c1.7,0.1,3.3,0.2,5.5,0.4c-0.6-0.8-0.8-1.4-1.2-1.7c-1.4-0.9-3-1.7-4.4-2.7
		c-1.1-0.7-2.3-1-3.2-2.3c0.3-1,0.7-2,1-3c-0.2-0.3-0.3-0.6-0.4-0.7c-2.1-0.6-3-2.3-3.5-4.3c-1.5-5.3-2.7-10.7-3.5-16.2
		c-1.6-11.5-2.1-27.6-1.4-40c0.8,0,0.8,0.7,1,1.1c1.2,2.7,2.4,5.5,3.6,8.2c0.3,0.6,0.7,1.2,1.3,2.4c-0.5-4-1.3-7.2-2.2-10.3
		c-0.8-2.9-1.7-5.7-2.7-8.6c-0.5-1.5-0.7-2.9-0.6-4.4c0.4-4.4,0.8-8.7,1.1-13.1c0.1-1.2,0.4-2.5,0-3.9c-5.4,0.2-10.6,1.2-15.8,1.6
		c-0.2-0.4-0.4-0.8-0.6-1.2c-0.1,0-0.3,0-0.3,0c-3,1.9-6.5,2.2-9.9,2.6c-4.5,0.5-8.9,1.2-13.4,1.8c-1,0.1-2,0.2-3.1,0.3
		c-1-1.2-0.9-2.4-0.9-3.8c3.5-2,7.6-2.4,11.4-4c-0.6-0.7-1.3-0.4-1.8-0.4c-0.7,0-1.4,0-2.1,0.1c-0.7,0-1.4,0-2.1,0
		c-0.6,0-1.2-0.1-1.7-0.1c-0.7,0-1.4,0-2.1,0c-0.7,0-1.4-0.1-2.1-0.1c-0.2-0.9-0.4-1.8-0.7-2.7c0.3-0.3,0.5-0.6,0.7-0.8
		c1-0.5,2.1-0.9,3.4-1.5c-1.1-0.9-2.4-0.3-3.5-1c0.3-0.3,0.4-0.7,0.7-0.9c1.3-0.7,2.7-1.3,4-1.9c0.9-0.4,1.8-0.9,2.6-1.3
		c-0.1-0.8-0.6-0.8-1-0.9c-2.5,0-5.1,0-7.8,0c-0.3-0.7-0.5-1.4-0.8-2.2c1.3-1.7,3.6-1,5-2.2c-0.1-0.7-0.6-0.4-1-0.5
		c-0.6-0.1-1.1-0.1-1.7-0.1c-0.5,0-0.9-0.1-1.4-0.2c-1.1-0.2-1.6-0.9-1.4-2.2c0.9-0.2,1.8-0.6,2.8-0.7c6.1-0.8,12.1-1.6,18.2-2.3
		c4.7-0.6,9.4-1.2,14.1-1.8c1.7-0.2,3.4-0.3,5.1,0.2c2.3,0.6,4.7,1,7.8,1.7c-1.4-1-2.2-1.7-3.2-2.5c2.2-1.1,4.4-0.8,6.7-1.2
		c0.3-0.7,0.6-1.4,0.8-2.2c1.2-6.2,2.4-12.4,3.7-18.6c0.1-0.4,0.3-0.8,0.5-1.4c1.5,0.1,2.6,1.1,3.8,1.6c1.2,0.5,2.3,1.1,3.9,1.1
		c-0.3-0.6-0.4-1-0.6-1.3c-1.4-1.8-2.8-3.6-4.2-5.5c-0.4-0.5-0.6-1.2-1-2c1.2-0.6,2.2-1.1,3.2-1.6c-0.3-1.5-2-1.4-2.9-2.7
		c0.3-3.4,1.5-6.9,2.2-10.5c0.8-3.7,1.6-7.4,2.6-11.1c1-3.5,1.4-7.2,3-10.8c1.1,0.3,2,0.6,3.1,1c-1,6.2-3.4,12-4,18.7
		c2.3-2.5,3.2-5.1,4.4-7.6c1.1-2.4,2.1-4.8,3.6-7.1c0,0.6,0.1,1.2,0,1.8c-0.7,2.9-1.5,5.8-2.2,8.7
		C1136.4,124.8,1136.2,125.8,1135.9,126.8c0,0.3-0.1,0.5-0.2,0.7c0,0,0.1,0.1,0.2,0.2C1135.9,127.3,1135.9,127.1,1135.9,126.8z
		 M1137.4,187.4c-0.5-0.4-0.7-0.8-1-0.8c-1.6,0-3.2-0.2-4.8,0.1c-2.2,0.5-4.4,1.2-6.6,1.9c-0.5,0.1-0.8,0.6-1.5,1.1
		c3.4,0.2,9-0.5,11.7-1.3C1135.9,188.2,1136.5,187.8,1137.4,187.4z M1151.4,176.6c5.5,0.2,10.9,0.4,16.3-0.8c0.1,0,0.2-0.4,0.4-0.7
		c-0.4-0.1-0.8-0.4-1.2-0.4C1161.7,174.8,1156.6,175.6,1151.4,176.6z M1142.2,140.9c-1.2,2.4-1.9,4.9-1.2,7.5
		c0.1,0.2,0.5,0.6,0.7,0.6c0.2,0,0.6-0.4,0.7-0.6C1142.6,145.9,1142.6,143.4,1142.2,140.9z M1134.3,171.3c0.4-2.2,0.8-4.2,1.1-6.2
		c-1.7,1.7-3.1,3.6-3.4,6.2C1132.9,171.3,1133.5,171.3,1134.3,171.3z M1210.7,182.2c-1.7-1.1-1.7-1.2-2.4-1c-1.8,0.5-3.7,0.7-6,1.8
		C1205.6,183.3,1208.2,183.3,1210.7,182.2z M1095.7,196c2.5,0.4,4.7-0.7,6.9-1.4c0.2-0.1,0.3-0.5,0.5-0.9c-0.4-0.1-0.8-0.3-1.1-0.2
		c-2,0.5-3.9,1.1-5.9,1.8C1096,195.4,1095.9,195.7,1095.7,196z M1123.8,204.6c-0.2,0.7-0.5,1.4-0.6,2.1c-0.1,0.9-0.2,1.8-0.2,2.7
		c0,0.7,0.1,1.4,0.3,2.8C1124.9,209.3,1124.1,206.9,1123.8,204.6z M1119.5,269.1c0.2,2.1,0.6,3.5,1.9,4.8
		C1122.1,271.8,1121.1,270.6,1119.5,269.1z"/>
	<path id="XMLID_654_" class="st1" d="M807.2,170.6c-0.1,0.9-0.2,1.8-0.4,2.7c-0.4,1.8-1,3.5-1.6,5.7c1.5-1,1.7-2.4,2.3-3.4
		c0.7-1.2,1.2-2.5,1.9-3.7c0.6-1.1,1.1-2.3,1.7-3.4c0.6-1.2,1.3-2.4,2-3.8c0.8,0.3,1.5,0.5,2.2,0.7c0.1,1.7-1.4,2.8-1,4.7
		c1.4-1.2,2.5-2.2,4.1-3.6c-0.4,1.6-0.7,2.7-1,3.8c-3,9.7-6,19.4-8.2,29.3c-1.4,6.1-2.5,12.2-3.4,18.4c-0.8,5.6-1.9,11.1-2.9,16.7
		c-0.5,2.8-1.1,5.7-1.6,8.5c-0.1,0.4,0,0.9,0,1.8c1.8-2.4,1.8-5.1,3.2-7.4c0.9,1.2,0.7,2.4,0.8,3.5c0.6,6.4,2.1,12.5,4.7,18.3
		c2,4.4,4.6,8.3,8.3,11.4c1.8,1.5,3.7,2.7,5.9,3.5c1.1,0.4,2.3,0.6,3.2,1.3c0.7,0.6,1,1.7,1.5,2.5c0.7,0.1,1.1-1.1,1.8-0.3
		c0.9,0.9,1.8,1.8,2.7,2.7s1.6,1.9,3,2.5c1.4-2.3,0.5-4.9,1-7.4c0.4-0.2,0.8-0.5,1.4-0.7c9.9-2.4,16.9-8.5,22.2-17
		c0.7-1.2,1.4-2.3,2.2-3.5c0.4,0.7,0.7,1.2,1.2,2.2c0.5-1.5,0.9-2.5,1.2-3.6c2.6-10.3,4.7-20.7,5.4-31.3c0.4-6-0.1-12-0.7-17.9
		c-0.8-7-1.6-14-2.4-21c0-0.3,0-0.7,0.1-1c3.2,0.4,3.9,0.9,4.7,3.8c0.5,1.7,1,3.5,1.6,5.6c0.9-0.9,1.5-1.5,2.2-2.3
		c0.4,1.2,0.8,2.3,1.2,3.6c1.2-1.8,0.9-3.8,1.4-5.5c0.7-0.2,0.9,0.1,1.1,0.5c0.5,1.3,1,2.5,1.6,4.1c0.8-0.8,1.4-1.4,2.2-2.1
		c0.9,0.4,1.8,0.7,2.8,1.2c0.2,1.2,0.3,2.4,0.5,3.5c1.5,0.4,1.5-1.3,2.7-1.7c2.1,0.6,4,1.8,6,2.9c0.5,0.3,0.9,1,1.2,1.6
		c0.3,0.7,0.5,1.5,0.8,2.4c4.5,2.3,8.9,4.8,13.5,7c3.9,1.9,7.6,4.4,11.2,6.8c0.2,0.1,0.2,0.4,0.4,0.6c-0.9,0.1-1.8,0.2-3.1,0.3
		c1.8,2.5,4.7,3.6,6.2,6.1c-0.6-0.2-1.3-0.2-1.9-0.5c-3.6-1.7-7.2-3.5-10.9-5.3c-1.3-0.6-2.6-1.3-4.8-1.8c0.9,0.9,1.2,1.3,1.6,1.6
		c3.7,2.5,7.4,5,11.2,7.6c0.9,0.6,1.9,1.3,3,2.1c-0.7,2.2-1.7,4.1-3,6c-2.9-1.5-5.2-3.9-8.2-5.4c-0.2,1,0.5,1.4,0.9,1.8
		c0.4,0.5,1,1,1.5,1.5c0.6,0.6,1.1,1.1,1.7,1.7c0.5,0.5,1,0.9,1.5,1.5c0.5,0.5,0.9,1.1,1.3,1.6c-0.5,1.6-1.2,3.1-2.3,4.5
		c-6.5-3-12.7-6.4-19.5-9.5c-0.3,1.9-0.5,3.5-0.7,5.1c-0.7,4-1.4,7.9-2,11.9c-0.3,1.7-1,3.1-1.9,4.4c-1.8,2.7-3.6,5.4-5.4,8.1
		c-0.4,0.7-0.8,1.3-1.5,2.3c1.4-0.1,2-0.9,2.7-1.4s1.4-1,2.3-1.7c-1.7,10.1-14.4,28.7-23.1,33.9c-0.2-0.7-0.3-1.3-0.5-2.1
		c-4.2,1.4-6.7,5.5-11.1,7.3c0.4-2.5,2-4,2.4-6.1c-1-0.2-1.3,0.6-1.6,1c-2.4,2.8-4.8,5.6-7,8.5c-1.4,1.8-3.3,2.7-5.5,3.2
		c-11.5,2.5-22.7,2.1-33.5-2.8c-9.1-4.1-16.1-10.6-21.6-18.8c-0.4-0.6-0.7-1.2-1.1-1.7c-2.5-3.7-4.1-7.6-3.9-12.3
		c0.2-4.5-0.2-9-0.4-13.5c0-0.8-0.1-1.6-0.2-2.8c-1.4,1.5-1.4,3.2-1.9,4.7s-0.6,3.1-1.5,4.9c-1.2-2.5-1.5-4.7-1.9-6.9
		c-2.1-11.1-2.1-22.2-1-33.4c0.3-3.6,0.8-7.1,1.3-10.6c1.8-10.9,4.3-21.7,7.5-32.3c1.5-5.1,3.1-10.1,4.6-15.2
		c0.2-0.8,0.5-1.5,0.8-2.2c1.5-0.5,2.5,0.6,3.8,0.6c0.1,3.8-1.4,7.2-1.7,10.9c1.4-0.6,1.7-1.9,2.4-2.8c0.8-0.9,1.7-1.8,2.4-2.6
		c0.9,0.2,0.9,0.7,0.8,1.2c-0.2,1.4-0.6,2.7-0.8,4.1c-0.1,0.5-0.1,1.1-0.1,1.9c2.5-1.5,2.9-4.5,5.3-5.7c1.2,2.5,0.2,5,0.5,8
		C805.9,172.6,806.6,171.6,807.2,170.6L807.2,170.6z M802.3,191.2c-0.6,0.7-0.9,0.9-1,1.2c-0.8,3.7-1.7,7.4-2.5,11
		c-0.1,0.5-0.1,1.1,0.1,1.7c0.1,0.3,0.4,0.6,0.7,0.6c0.3,0,0.7-0.2,0.8-0.4c0.3-0.6,0.5-1.3,0.6-1.9
		C801.5,199.6,801.9,195.7,802.3,191.2z M819,289.4c2.4,1,4.6,1.3,6.9,1.1c0.4,0,0.7-0.3,1.5-0.7c-1.7-1.2-3.1-2.1-4.7-2.7
		C821.4,287.8,820,288,819,289.4z M885,232.5c-0.5,1.9,0,3.6,0.7,5.3c0.3,0.7,1.2,0.9,1.7,0.4s0.8-1,1.2-1.5
		C887.2,234.1,887.2,234.1,885,232.5z M874.5,255.6c-1.5,2.1-2.5,4.3-2.6,6.7c0.9,0.6,1.7,0.8,2.6,0.2
		C874.5,260.1,874.5,257.8,874.5,255.6z M803.1,277.3c0-3.5-0.7-4.4-3.6-5.1C800.3,275.4,800.5,275.8,803.1,277.3z M875.8,207.8
		c2.1,0.9,2.1,0.9,3.8,0.2c-1.4-1.2-2.7-2.4-4.3-3.8C875.5,205.7,875.7,206.7,875.8,207.8z M886.2,205.6c-0.2,0.1-0.4,0.2-0.6,0.4
		c0.2,0.5,0.2,1.2,0.5,1.5c1.2,1.3,2.8,1.9,4.4,2.5c0.1,0,0.2-0.2,0.5-0.5C889.4,208.2,887.8,206.9,886.2,205.6z"/>
	<path id="XMLID_648_" class="st1" d="M647.8,194.5c0.8-0.2,0.9-0.9,1.2-1.6c1.1-2.7,2.2-5.3,3.3-8c0.2-0.5,0.6-0.9,1-1.5
		c0.1,0.6,0.2,0.8,0.2,1c-3.8,29.3-6.5,58.6-8.7,88.1c0,0.2-0.2,0.4-0.4,0.9c-0.4-0.6-0.9-1-1.2-1.5c-2.1-4.1-4.1-8.3-6.2-12.4
		c-0.5-1-1.1-2-1.8-2.9c0.9,4.6,2.8,8.9,4.5,13.3c1.7,4.2,3.6,8.3,4.7,12.9c-1.6-1.7-3.3-3.5-5.3-5.6c0.1,0.9,0.1,1.4,0.3,1.8
		c1.1,2.5,2.3,5,3.5,7.5c0.6,1.3,0.9,2.6,0.8,4c-0.4,6.4-0.7,12.9-1,19.3c-0.2,3.9-0.3,7.8-0.4,11.7c-0.1,2.5-0.1,5.1-0.2,7.6
		c0,0.9-0.2,1.8-0.3,2.8c-1.1-0.4-1-1.2-1.3-1.9c-0.5-1.2-0.5-2.7-1.8-3.6c-1,1.3-0.8,3.1-2.1,5c-2-9.8-2.9-19.2-4.9-28.3
		c-0.3,3.1-0.2,6.2,0.1,9.3c0.6,6,0.5,12,0.3,18c0,0.4-0.1,0.9-0.2,1.3c-0.7,0.2-0.9-0.3-1-0.7c-0.3-1.5-0.6-3.1-1-5.4
		c-1.1,2.4-1.9,4.2-2.7,6.1c-1-1-0.8-2.1-1-3c-0.1-1-0.1-2.1-0.2-3.1c-0.1-1,0.1-2-0.5-3.1c-1.2,0.8-1,1.9-1.4,2.8
		c-0.4,0.8-0.6,1.8-0.9,2.6c-0.4,0.9-0.4,2-1.5,2.6c-0.8-0.6-0.5-1.5-0.6-2.2c-0.2-0.9-0.3-1.8-0.5-2.7c-0.2-0.8,0.1-1.6-0.8-2.4
		c-0.9,2.8,0.1,5.7-0.7,8.6c-1.3,0-2.5,0-3.8,0c-0.8-0.8-0.5-1.9-0.5-2.9c0.1-5.4,0.2-10.8,0.5-16.2c0.3-7.3,0.6-14.5,1-21.8
		c0.6-9.4,1.2-18.9,1.8-28.3c0.5-7,1.1-14,1.6-21c0.3-3.6,0.6-7.1,1-10.7c0.3-3,0.4-3,2.6-5c-0.3-0.4-0.5-0.9-0.9-1.3
		c-0.8-0.8-0.9-1.8-0.8-2.9c0.4-3.7,0.7-7.3,1.1-11c0.8-7.2,1.6-14.4,2.5-21.6c1-8.1,2.1-16.2,3.2-24.3c1.2-8.4,2.4-16.9,3.7-25.3
		c1.1-7.3,2.4-14.5,3.6-22.4c1.3,2.3,1,4.2,1.3,6.1c0.3,1.8,0.6,3.6,0.9,6.1c0.5-2.1,0.3-3.5,0.2-4.9c-0.2-4.1-0.4-8.3-0.8-12.4
		c-0.2-2.3,0-4.6,0.4-6.9c2.5-12.8,5-25.6,7.5-38.3c0.2-1.2,0.6-2.4,0.9-3.8c0.6,0,1.1-0.2,1.4,0s0.6,0.8,0.6,1.1
		c-0.1,1.4-0.4,2.7-0.5,4.1c-0.2,2.4-0.4,4.8-0.7,7.1c0.9,0.3,0.9-0.3,1.1-0.6c1.2-3,2.3-6,3.4-9c0.2-0.6,0.3-1.3,1.3-1.6
		c0.5,2.7-0.3,5.2-0.6,7.8c-0.2,2.5-0.5,5-0.7,7.5c0.9,0.2,1.2-0.4,1.4-0.9c0.8-1.5,1.2-3.2,2.4-4.8c0.8,1.3,0.5,2.4,0.6,3.5
		c0.1,1,0,2,0,3c1,0.2,0.9-0.4,1-0.8c0.7-3.5,1.4-7,2.1-10.5c0.2-1.1,0.7-2.2,1.1-3.4c1.2,0.3,2.1,0.6,3.1,0.8
		c0.6,1.4,0.3,2.7,0.4,3.9c0,1.4-0.1,2.8,0,4.2c0,1.2-0.3,2.5,0.3,3.9c1.3-1.1,1.4-2.6,1.9-3.8c0.5-1.3,0.6-2.7,1.1-4
		c0.5-1.2,0.2-2.8,1.6-3.8c0.6,2.1,0.1,4.1,0.8,6c1.8-1.1,1.3-3.4,2.7-4.4c0.8,0.1,0.9,0.7,0.8,1.3c-0.7,3.6-1.5,7.2-2.2,10.8
		c-2.7,14.5-5.5,29-8.1,43.5c-1.9,11-3.6,22.1-5.3,33.1c-0.6,3.9-1,7.8-1.6,11.6c-0.2,1.2-0.5,2.5-0.8,3.7c-0.3,1-0.7,2-1,2.9
		C651.5,181.5,649.3,188,647.8,194.5c0,0.2,0,0.4,0,0.5C647.9,194.9,647.9,194.7,647.8,194.5z M656.2,103.4
		c-1.7,0.2-2.5,1.2-2.5,2.8c0,3.9,0,7.8,0,11.7c0,0.9,0.1,1.9,0.1,2.8c0.6-0.6,0.8-1.3,0.9-1.9c0.6-4.8,1.1-9.6,1.6-14.4
		C656.4,104.1,656.3,103.8,656.2,103.4z M633.2,214.6c-0.7,4.2-0.6,12.5,0,14.7c0.6-2.6,1.2-5.4,1.9-8.2c0.4-1.4,0.4-2.7-0.4-4
		C634.3,216.5,633.9,215.8,633.2,214.6z M622.5,316.5c2.1-0.7,2.2-0.7,2-1.8c-0.3-2.2-0.7-4.3-1.1-6.4c-0.1-0.7-0.4-1.3-0.6-2
		C622.7,309.7,621.9,313,622.5,316.5z M644.5,149.2c-0.6,0.7-0.8,0.8-0.8,1c-0.1,2.6-0.2,5.2-0.3,7.8c0,0.2,0.6,0.4,1.1,0.8
		C644.8,155.5,644.6,152.6,644.5,149.2z"/>
	<path id="XMLID_641_" class="st1" d="M1007.6,278.1c0.6-0.3,1.3-0.5,1.9-0.8c4.1-2.6,7.9-5.5,11.1-9.3c0.7-0.9,1.6-1.6,2.4-2.4
		c1.7-1.7,3.3-3.6,4.4-5.7c2.2-4.2,2.7-8.5,1.2-13c-0.9-2.5-2.1-4.9-3.7-7c-0.6-0.7-1.1-1.5-1.6-2.1c0-2,1.8-3.4,1.5-5.5
		c-1.4,0.4-2.5,0.7-3.6,1c-1-1,0.1-2.2-0.6-3.2c-1.6,0.2-2.6,1.8-4.4,2.3c-4.9-2.2-10.1-3.8-15.7-4.2c-5.5-0.3-11-0.1-16.8,0.9
		c0.5-1.8,1.8-2.6,2.6-3.6s1.9-1.8,2.8-3.7c-2.3,1.3-3.8,2.5-5,3.9c-2.7,3.1-6,4.6-10,5.7c-4.3,1.1-8.5,3-12.6,4.7
		c-5.4,2.2-10.8,4.6-16.2,6.9c-0.7,0.3-1.5,0.5-2.2,0.7c-0.4-1.2,0.1-2,0.8-2.6c1.6-1.5,3.2-3,4.8-4.5c1.7-1.6,3.4-3.1,5.1-4.7
		c0.6-0.5,0.9-1.2,1.6-2.1c-2.4,0.3-4.5,0.9-6.5,0.8c-2.1-0.1-3.9,1.3-6.4,1.4c2.6-3.5,6-5.6,8.6-9c-3,0.3-4.9,2.6-8,2.4
		c3.7-4.6,7.1-8.9,10.5-13.2c-0.7-0.7-1.2-0.3-1.7-0.1c-1.1,0.6-2.2,1.1-3.7,1.8c0-0.9-0.1-1.4,0-1.9c1.6-9.1,3.2-18.2,4.8-27.2
		c0.2-0.9,0.5-1.7,0.8-2.7c0.8,0.2,1.5,0.3,2.4,0.5c0.3,1.7,0.7,3.3,1.1,5.2c0.4-0.3,0.9-0.6,1.6-1.1c0.5,0.8,1.1,1.6,1.6,2.4
		c0.3-0.2,0.5-0.2,0.6-0.3c0.8-1.2,0.9-2.8,2.2-3.7c1,0.1,1.3,0.7,1.4,1.4c0.4,2.5,0.9,5,1.3,7.5c0.2,1,0.1,2.1,0.3,3.1
		c0,0.3,0.3,0.5,0.7,1c2.5-3.9,3.1-8.3,4.9-12.5c0.6,0,1.4,0.1,2.3,0.1c0.3,4.8-0.7,9.3-1.2,14.6c0.7-1.1,1.1-1.6,1.3-2.2
		c1.3-3.1,2.5-6.2,3.7-9.3c0.3-0.6,0.5-1.3,0.9-1.8c0.1-0.2,0.6-0.2,0.9-0.1c0.2,0,0.4,0.3,0.5,0.4c0,0.6,0,1.1-0.1,1.7
		c-0.7,4.2-1.5,8.4-2.2,12.5c1,0.8,1.9,0.4,2.8,0.3c2.6-0.3,5.3-0.7,7.9-1c1.4-0.2,2.7-0.1,4.1,0.3c3.3,0.9,6.7,1.7,10,2.6
		c1.1,0.3,2.2,0.5,3.7,0.9c-1-1.8-3-1.9-4-3.3c4.5-0.6,14.5,1.6,22,4.8c7.2,3.1,13.5,7.3,16,10.8c-3.2-0.6-6.2-1.2-9.3-1.9
		c0,1.1,0.7,1.2,1.3,1.4c3.3,1.1,6.5,2.3,9.8,3.3c2,0.6,3.4,1.8,4.6,3.5c4.8,6.5,8.1,13.7,9.5,21.6c0.9,5.3,0.8,10.6-0.3,15.8
		c-0.3,1.3-0.8,2.4-1.7,3.3c-2.8,2.9-5.6,5.8-8.4,8.7c-0.8,0.8-1.7,1.4-2,2.7c2.8-1.9,5.6-3.9,8.4-5.8c0.7,0.5,0.3,0.9,0.1,1.3
		c-3.5,7.5-8.8,13.5-15.1,18.6c-7.6,6.1-16.1,10.3-25.3,13.2c-8,2.6-16.3,4.2-24.7,5.2c-3.5,0.4-7.1,0.7-10.7,0.9
		c-0.6-1.5-1.1-2.9-1.7-4.3c-2.9,0.5-3.8,3-5.7,4.7c-7.9,0.3-15.9,0.3-24.2,0c-0.1-1-0.2-1.8-0.3-2.7c1.3-0.3,0.7,1,1.7,1.3
		c0.5-0.2,1.1-0.6,1.9-1c-0.2-0.6-0.4-1.1-0.6-1.8c0.6-0.4,1.2-0.9,1.8-1.3c-0.1-0.3-0.2-0.6-0.3-0.6c-1.2-0.5-2.7-0.6-3.8-1.4
		c0.1-1,0.8-0.8,1.3-0.8c5.2-0.5,10.3-0.9,15.5-1.4c0.8-0.1,1.6-0.1,2.2-1.2c-2.9-0.5-5.7-1-8.5-1.5c-2.6-0.5-5.4-0.5-8.6-1.6
		c1.4-0.4,2.1-0.6,3.2-0.9c-1.2-0.7-2.1-1.3-3.1-1.9c0.5-0.7,0.9-1.2,1.5-1.8c-1.1-0.4-2-0.8-3.5-1.4c5.3-0.5,9.9-0.6,15.1-0.8
		c-2.8-1.5-5.3-1.2-7.7-1.7c-2.4-0.4-4.8-0.7-7.1-1c-0.5-1.6-0.5-1.6-0.2-3.5c0.8-0.1,1.7-0.2,2.6-0.2c3.5,0,6.9,0.1,10.4,0
		c6.2-0.1,12.5-0.2,18.7-0.6c11.1-0.8,22-2.7,32.3-7c0.3-0.1,0.6-0.2,1.6-0.4c-1.5,1.6-2.6,2.7-3.8,3.9c-0.5,0.3-0.9,0.7-1.4,1
		c0.1,0.1,0.2,0.3,0.3,0.4C1006.6,278.8,1007.1,278.4,1007.6,278.1z M1023.8,287.2c-2.7,0.4-5.2,1.3-7.4,2.9
		c0.6,1.4,1.7,1.1,2.7,1.1C1021.7,291.3,1022.5,289,1023.8,287.2z M965.9,216.8c1.1,0.7,2.2,0.5,3.2,0.2c1.1-0.3,2.2-0.7,3.2-1.1
		c0.3-0.1,0.4-0.9,0.3-1.2c-0.1-0.3-0.7-0.6-1-0.6C969.6,214.1,967.9,214.9,965.9,216.8z M1004.7,218.1c1.8,0.4,3.1,0.8,4.4,1
		c0.5,0.1,1.1-0.1,1.6-0.2c0.2-0.1,0.5-0.5,0.5-0.8s-0.3-0.8-0.5-0.8C1008.8,217,1007,217,1004.7,218.1z M975,294.7
		c0.9,0.7,1.2,1.1,1.5,1.2c2,0.3,4,0.2,6.1-1.3C980.1,294.1,978,294.3,975,294.7z M1042.7,246.7c0.1,2.2,0.2,3.7,0.3,5.1
		c0,0.2,0.3,0.3,0.6,0.6c0.4-0.7,0.8-1.3,1.2-2c-0.3-0.8-0.6-1.5-0.9-2.2C1043.7,248,1043.5,247.7,1042.7,246.7z"/>
	<path id="XMLID_633_" d="M509.9-27.7c-1.3,0.6-0.5,2.2-1.4,3c-0.4,0-0.7,0.1-1.1,0c-1.8-0.4-3.5-0.9-5.4-1.4c0-1.8,0-3.5,0-5.6
		c-1.8,1.3-1.8,3.5-3.3,4.8c-0.6-0.1-1.3-0.3-2.1-0.5c0-1-0.1-2-0.1-3c-0.8,0.1-0.7,0.8-0.9,1.3c-0.6,1.2-0.6,1.2-2.6,0.7
		c-0.5-1.7,0.4-3.3,0.7-5c0.3-1.6,0.7-3.1,1-4.6c-0.8-0.4-1,0.1-1.1,0.5c-0.9,2.2-1.8,4.5-2.7,6.7c-0.2,0.5-0.4,1-0.6,1.6
		c-0.4,0-0.8,0-1.1,0c-0.5-0.1-1.1-0.3-1.8-0.5c0-0.8,0-1.5,0.1-2.1c2.1-7.4,4.2-14.8,6.4-22.2c0.1-0.4,0.4-0.8,0.7-1.2
		c0.7,0,1.4,0.1,2,0.1c0.3-0.4,0.3-0.4-1.5-2.1c0.4-2.9,1.9-5.5,2.7-8.6c-4.2-2.5-8.9-4-13-7c0.3-0.5,0.5-0.9,0.8-1.4
		c2.1,0.5,4.2,1.1,6.9,1.7c-1.3-1-2.1-1.7-3-2.4c0.6-0.4,1-0.7,1.6-1.1c-1.2-0.8-2.2-1.4-3.3-2.2c0.4-0.8,0.6-1.5,1-2.2
		c0.4-0.8,1-1.5,1.5-2.4c2.7,0.9,5.3,1.8,8,2.7c-0.2-1.1-1.1-1.3-1.8-1.6c-0.9-0.5-1.9-0.9-2.8-1.4c-0.8-0.4-1.6-0.9-2.5-1.5
		c0.6-1,1-1.9,1.6-2.8c0.3-0.4,0.8-0.3,1.2,0.1c0.2,0,0.4,0,0.7,0c0,0,0.1-0.1,0.1-0.2c-0.3,0.1-0.5,0.2-0.8,0.3
		c0.7-0.8-0.4-1.5,0-2.3c0.6-1.2,1.3-2.4,1.9-3.6c0.9-0.2,1.6-0.3,2.3-0.4c0.8-1.1-1.5-1.7,0-3c3.3,1.6,6.6,3.2,10.2,5
		c2.3-4,3.9-8,6-11.8c2-3.8,4-7.5,6-11.3c0.7,0.1,1.2,0.2,1.6,0.3c0.1-0.3,0.2-0.5,0.2-0.7c-0.6-1.6,0-2.9,0.8-4.2
		c4.4-7.6,9-15,14-22.2c1.1-1.6,2.2-3.2,3.4-4.9c1.1,1.6-0.5,2.8,0.1,4.4c0.4-0.6,0.8-1,1.1-1.5c1.9-3.7,3.7-7.4,5.5-11.1
		c0.6-1.2,1.3-2.5,2.1-3.5c5.5-7.1,11.3-14,17.4-20.6c0.5-0.5,1-0.9,1.6-1.4c0.9,0.9,1.7,1.6,2.7,2.5c-1.2,2.8-3.6,4.7-4.6,7.5
		c0.5-0.4,1-0.7,1.5-1.1c1.5-1.3,2.9-2.6,4.4-3.9c0.5-0.5,1-0.3,1.5,0.2c0.5,1.1-1,1.7-0.9,3c1-0.5,1.8-0.9,2.7-1.4
		c0.8,0.7,1.5,1.4,2.3,2.1c-0.6,1-1,1.9-1.6,3c1.2,0.5,2-0.7,3.1-0.3c-0.1,0.6-0.3,1.2-0.4,1.9c1.2,0.5,1.7-1,2.9-0.9
		c0.4,0.4,1,1,1.5,1.5c-0.1,0.5-0.2,0.8-0.4,1.1c-1.1,1.7-2.3,3.4-3.5,5.2c-0.4,0.6-0.7,1.1-1,1.7c0.2,0.2,0.2,0.4,0.3,0.4
		c0.1,0,0.2-0.1,0.3-0.1c0.1-0.1,0.2-0.1,0.3-0.2c1.9-1.8,3.8-3.7,5.8-5.5c0.1-0.1,0.2-0.1,0.6-0.2c0.7,0.5,1.4,1.1,2.3,1.8
		c-0.3,0.5-0.4,1-0.7,1.3c-2.6,3-5.4,6-8,9.1c-7.4,8.7-14.3,17.8-20.7,27.3c-0.9,1.4-2,2.5-3.2,3.6c-2,1.7-3.9,3.5-6,5.4
		c1,0.6,1.4-0.2,1.9-0.4c0.5-0.3,0.9-0.6,1.4-0.9c0.8,0.9,0,1.4-0.3,1.8c-4,7.1-8.2,14.2-12.1,21.3c-2.1,3.7-3.8,7.6-5.6,11.2
		c0.4,1.3,1.3,1.2,2,1.5c2.2,0.7,4.4,1.3,6.7,1.9c0.5,0.9,1,1.7,1.6,2.8c0.8-0.6,1.4-1.2,2.2-1.8c3.6,0.8,7.3,1.6,11.1,2.4
		c2.9,0.6,5.9,1.1,8.8,1.6c1,0.2,2.1-0.2,2.8,0.9c0.1,0.2,0.6,0.1,0.9,0.1c1,0,2.1-0.2,3.1-0.1c5.8,0.7,11.7,1.1,17.6,1.1
		c0.3,0,0.6,0.2,1,0.3c-0.2,0.6-0.4,1.1-0.6,1.6c0.5,0.4,1.2,0.8,0.4,1.9c-2.4,0.2-5,0.4-7.6,0.5c0.2,1.1,1.2,1.2,1.8,1.6
		c0.6,0.4,1.2,0.8,1.7,1.2c0.6,0.5,1.2,1,2.1,1.7c-1.4,0.8-2.4,1.5-3.6,2.2c1.8,1.5,4,1.1,5.9,1.8c1.3,1.3,0,2-0.6,2.9
		c0.9,0.5,1.5,1.1,0.7,2.3c-1.2,0.1-2.5,0.2-3.9,0.4c0.1,0.4,0.1,0.7,0.3,0.8c0.9,0.4,1.9,0.8,3.2,1.3c-2.7,0.7-4.9,1.4-7.3,2
		c2.7,1.6,5.7,0.7,8.3,1.9c0,0.8,0,1.6,0,2.5c-0.4,0.1-0.9,0.4-1.3,0.4c-4.6-0.1-9.2-0.1-13.8-0.4c-3.2-0.2-6.4-0.6-9.6-1.1
		c-1.7-0.2-3.4-0.6-5-1.2c-4.6-1.6-9-3.4-13.6-5.1c-0.7-0.3-1.5-0.5-2.7-0.9c0.9,2,2.9,2.4,3.8,3.9c-3-0.1-12.1-2.2-16.8-3.8
		c-0.2-0.5-0.5-1.2-0.8-2c-0.5,0.5-0.9,1-1.4,1.6c-2.5-0.7-5.2-1.5-7.9-2.3c-0.4,0.7-0.7,1.3-1,1.9c-0.9,2-1.8,4-2.6,5.9
		c0.4,2.3-0.9,4.2-1.5,6.3c-1.4,5.2-2.9,10.4-4.4,15.6c-0.3,1-0.3,2-1.4,2.9c-0.3-0.3-0.7-0.6-0.7-1c-0.1-0.9-0.1-1.8-0.2-3
		c-0.8,0.7-1.4,1.2-2.4,2C509.8-26.5,509.8-27.1,509.9-27.7c0.3-0.9,0.5-1.7-0.2-2.6C509.8-29.5,509.8-28.6,509.9-27.7z M535.2-93.2
		c-0.5,0.9-1,1.8-1.4,2.7c-1,0.9-1.6,2-2.1,3.9c1.6-1.3,2.2-2.3,2.4-3.7C534.9-91.1,535.6-92,535.2-93.2c0.1-0.1,0.3-0.1,0.5-0.1
		c-0.1-0.1-0.1-0.3-0.2-0.4C535.4-93.5,535.3-93.4,535.2-93.2z M503.2-51.4c1.5,0,2.5-0.6,3.5-1.7c-0.5-0.9-0.6-2.1-1.7-2.8
		c-1.2,0.9-2.2,1.7-2.7,3.1C502.6-52.3,502.9-51.8,503.2-51.4z M532.8-110.4c2.6-2.1,3.6-3.5,4.1-6.3c-1.1,1-2.1,1.7-3,2.5
		C532.7-113.2,532.7-111.9,532.8-110.4z M521-70.4c0.1-0.2,0.2-0.4,0.3-0.7c-0.5-0.3-0.9-0.8-1.4-0.8c-2.1-0.3-4.1-1.1-6.4-1.2
		c0.1,0.4,0.2,0.8,0.3,0.8C516.1-71.1,518.6-71,521-70.4z M558.5-64.8c-0.6,1.2-0.8,2,0.2,2.4c0.8,0.4,1.2,0,2-1.3
		C560-64,559.3-64.4,558.5-64.8z M555.2-142.6c1.3,0,1.3,0,2-1.6c0.1-0.1-0.1-0.3-0.3-0.7C556.3-144.1,555.8-143.4,555.2-142.6z"/>
	<path id="XMLID_628_" class="st1" d="M758.4,331.4c-2.5-2.9-2.5-2.9-4.4-3.7c-0.5,1-0.9,1.9-1.6,3.2c-0.9-1.6-1.6-2.8-2.5-4.4
		c-1.4,2.8-0.3,5.5-1,8c-0.8,0.3-0.9-0.5-1-0.9c-1.4-4.1-2.8-8.3-4.2-12.4c-0.9-2.7-1.9-5.4-2.9-8.1c-0.2-0.6-0.6-1.2-1.3-1.6
		c0.5,3.6,1,7.2,1.4,10.9c0.4,3.5,1.5,6.9,1.4,11c-1.6-1.5-1.2-3.6-2.7-4.7c-0.3,1.4-0.7,2.7-1,4.1c-1.1,0-2.1,0-3.2,0
		c-0.5-1.4-1-2.8-1.6-4.3c-0.7,0.6-0.4,1.3-0.4,1.9c-0.1,1.3,0,2.5,0,3.8c0,0.5,0.1,1.1-0.5,1.5c-0.4,0.2-0.9-0.4-1-1.5
		c-0.7-6.1-1.3-12.2-2-18.2c-0.8-6.9-1.5-13.7-2.4-20.6c-1-7.7-2.1-15.3-3.1-22.9c-0.4-2.5-0.8-5-1.1-7.5c-0.1-1-0.4-2,0-3.3
		c1.5,1.1,2.3,2.6,3.3,3.7c1.1,1.2,2.1,2.4,3.3,3.6c1.1,1.1,2.2,2.4,4,3.1c-0.1-0.6-0.1-1.1-0.2-1.4c-1.2-2.4-2.4-4.7-3.7-7
		c-3.4-5.9-6.4-12-9.2-18.2c-0.6-1.4-1-2.8-1.3-4.3c-2.9-17-6.1-34-9.8-50.9c-1.3-5.7-1.8-11.4-2.5-17.1c-1.1-9.2-2-18.3-4.1-27.3
		c-0.4-1.8-0.9-3.6-1.5-5.3c-0.2-0.5-0.5-1-1.1-2c-0.3,2.3,0.2,4,0.2,5.6s0,3.1,0,5.1c-0.4-0.6-0.6-0.8-0.7-1.1
		c-4.8-17.4-9.5-34.9-14.3-52.3c-0.1-0.2,0.1-0.4,0.2-0.9c0.7-0.2,1.6-0.5,2.6-0.8c0.6,1,1.1,2,1.8,3.2c0.4-1,0.7-1.7,1-2.7
		c1.5,1.6,1.7,3.7,3.3,5.5c0.2-2,0.3-3.4,0.4-4.8c0.8-0.5,1.2,0,1.4,0.5c1.7,3.1,3.4,6.3,5.1,9.4c0.6,1.1,1.1,2.3,1.9,3.9
		c0.2-1.9-0.3-3.2-0.6-4.4c-0.9-3.8-2-7.6-2.8-11.4c-0.4-1.8-0.6-3.6-0.8-5.5c0-0.3,0.1-0.6,0.2-1.2c1.3,0.7,1.7,2,2.3,3
		c0.6,1.1,1.2,2.2,1.8,3.4c0.6,1.1,1.1,2.2,1.7,3.3c1-0.3,0.7-1,0.8-1.5c0.1-0.6,0-1.2,0-1.7s0.1-1.1,0.1-2c1.6,1.1,2,2.6,2.7,3.8
		s1.3,2.4,1.9,3.5c0.9-0.2,0.6-0.7,0.6-1.1c0-0.3,0-0.7-0.1-1c-0.4-2.4-0.8-4.8-1.1-7.2c-0.1-1,0.2-1.6,1.5-1.5
		c0.3,0.7,0.7,1.5,1,2.4c4.4,16.1,8.8,32.2,13.2,48.3c0.8,2.9,0.7,2.9,0,5.7c-0.3,1-0.5,2-0.8,3.2c1-0.3,1.7-0.5,2.7-0.7
		c0.6,1.9,0.4,3.8,0.4,5.6c0,2,0,3.9,0,5.9c0,1.8-0.1,3.6,0.1,5.4c1.8,0.2,1.5-2.1,3.2-2.1c0.7,3,1.5,5.9,2.1,8.9
		c3.2,15.2,6.4,30.4,9.5,45.7c1.3,6.5,2.4,13.2,3.6,19.7c0.4,2.4,0.2,4.8-0.1,7.2c-0.2,1.6-0.3,3.2-0.1,4.9c0.4-0.7,0.8-1.4,1.2-2.1
		c0.2,0,0.4,0,0.4,0c0.1,0.1,0.1,0.2,0.2,0.3c0.2,0.8,0.4,1.6,0.5,2.4c4.3,26.8,7.8,53.6,10.4,80.6c0.1,0.8,0,1.6,0,2.4
		C758.8,331,758.7,331.1,758.4,331.4z M744.8,279.7c-0.2,0.1-0.3,0.1-0.5,0.2c0.5,3.7,0.9,7.5,1.4,11.2c0.1,0.8,0.4,1.6,0.7,2.3
		c0.2,0.4,0.6,0.7,1,1.1c0.4-0.3,0.9-0.6,1.1-0.9c0.6-1.2,0.7-2.3,0.2-3.6c-1.1-3-2.1-6-3.2-9.1
		C745.4,280.5,745.1,280.1,744.8,279.7z M730.9,220.1c-0.4-1.2-0.7-2.2-1.1-3.1c-1.9-4.6-3.6-9.3-6-14.2c-0.6,1.9-0.3,3.3,0.2,4.7
		c1,2.7,1.9,5.4,2.9,8.1c0.4,1.2,0.9,2.4,1.4,3.5C728.8,219.9,729.4,220.3,730.9,220.1z M715,139.5c-0.2-3.2-0.4-3.8-1.7-6.3
		C713.5,135.6,713.8,137.5,715,139.5z"/>
	<path id="XMLID_622_" d="M635.6-5.2c-1.5-1.7-0.6-4.3-3.1-5.2c-0.3,1.9-0.6,3.5-0.8,5.2c-1.4,0.7-2.6,0.5-4,0.2
		c-0.2-0.9-0.4-1.8-0.7-3.1c-0.5,1.3-0.9,2.2-1.3,3.2c-0.4,0-0.9,0-1.5,0c-0.7-3.9-0.8-7.7-1-12.2c-1,1.4-1.1,2.6-1.3,3.7
		c-0.3,2.1-0.4,4.1-0.7,6.2c-0.1,0.7-0.2,1.4-0.3,2c-1.2,0.9-2.4,0.5-3.8,0.4c-0.1-0.8-0.1-1.3-0.2-1.9c-0.5-6.4-0.9-12.9-1.4-19.3
		c-0.2-2.1-0.5-4.1-0.8-6.2c-0.6-3.8-0.6-3.8,1.4-6.7c-0.1-0.2-0.1-0.5-0.3-0.6c-2.2-0.6-2.9-2.2-3.3-4.3c-2.2-10.6-5.3-21-9.3-31.1
		c-0.3-0.7-0.5-1.5-0.4-2.4c0.7,0.9,1.3,1.8,2,2.6c0.1,0,0.2-0.1,0.3-0.1c-0.2-0.6-0.4-1.2-0.6-1.8c-2.8-6.3-6.3-12.3-9.9-18.2
		c-1.2-1.9-2.2-3.8-3.3-5.7c-0.4-0.7-0.8-1.3-0.4-2.2c0.2-0.4-0.2-1.1-0.5-1.5c-0.7-1-1.5-2.1-2.4-3c-1.7-1.8-3-3.8-4.4-5.8
		c-3.2-4.6-6.6-9.2-9.9-13.7c-0.5-0.7-1-1.4-1.1-2.4c1.1,0.6,2.2,1.3,3.7,2.2c-0.2-1.4-0.9-2.1-1.3-2.8c-0.3-0.5-0.5-1-0.8-1.5
		c-0.1-0.2,0-0.5,0.2-0.6c0.3-0.2,0.7-0.4,0.9-0.3c0.5,0.2,1,0.6,1.4,0.9c1.4,1.2,2.8,2.4,4.2,3.6c0.3,0.3,0.7,0.4,1.6,1
		c-0.8-1.5-1.1-2.4-1.7-3.3c-0.8-1.3-1.6-2.5-2.4-3.8c-0.3-0.5-0.6-1.2,0-1.5c0.4-0.2,1,0,1.8,0c0.3-0.2-0.2-0.7-0.1-1.1
		c0.1-0.4,0.4-0.8,0.7-1.1c0.3-0.3,0.8-0.5,1.2-0.8c0.9,0.8,1.8,1.5,2.8,2.3c0.2-0.6,0.4-1.1,0.7-1.7c1.4,0.8,2.3,2.1,3.4,3.3
		c0.9,1.1,1.8,2.2,3.2,3.9c-0.3-1.7-1-2.5-1.5-3.4c-0.4-0.8-0.9-1.6-1.4-2.4c-0.5-0.9-1-1.8-1.5-2.7c-0.4-0.8-0.9-1.6-1.3-2.5
		c0.8-1.8,2.5-2.6,4.1-3.8c1.1,1.2,2.2,2.4,3.6,4c-0.2-1.1-0.3-1.7-0.4-2.3c-0.1-0.6-0.2-1.3-0.4-2.7c1,1.1,1.4,1.6,1.8,2.2
		c4.5,5.7,8.7,11.6,12.7,17.7c0.7,1.1,1.1,2.2,0.8,3.5c0.9,0.5,1.8,0.5,2.3,1.5c1.2,2.2,2.6,4.3,3.8,6.6c2.5,4.7,4.9,9.4,7.4,14.1
		c0.7,1.2,0.8,2.3-0.2,3.5c0.8,0.3,1.4,0.5,2.1,0.7c-0.1,0.7-0.2,1.2-0.4,1.8c0.1,0.1,0.2,0.5,0.3,0.5c1.1,0.1,1.5,0.9,1.9,1.8
		c1.7,4.2,3.3,8.3,5,12.5c0.6,1.6,1.1,3.3,1.7,4.9c1.7,4.5,2.7,9,2.6,13.8c-0.1,2.7,0.4,5.5,0.6,8.6c1-1,0.8-2.4,1.8-3.2
		c0.2,0.3,0.6,0.6,0.7,0.9c1.8,7.6,3.2,15.3,4.3,23.1c0.1,0.9,0.1,1.8,0.2,2.9c-0.7,0.5-1.4,1.1-2,1.6c-0.1,1.7,1.6,1.5,2.5,2.7
		c0.9,6.1,1,12.5,1.2,19.1C641.1-5.2,638.3-4.8,635.6-5.2z M619.6-82.5c-1,1.1-0.5,1.9-0.2,2.7c1.5,3.7,3,7.4,4.5,11.1
		c0.2,0.4,0.5,0.8,1,1.5C624.4-71.2,621.6-79,619.6-82.5z M612.5-98.1c0.2-0.4,0.4-0.6,0.4-0.8c-1-2.8-2.1-5.5-3.2-8.3
		c-0.1-0.1-0.4-0.1-0.6-0.2c-0.8,0.6-0.7,1.4-0.4,2.1C609.6-102.7,610.5-100.1,612.5-98.1z M622.8-53.6c0.2,1.1,0.3,2.1,0.5,3.1
		c0,0.2,0.2,0.3,0.4,0.5C625.1-51.5,625-51.6,622.8-53.6z M593-129.3c0,0.1-0.1,0.2-0.1,0.2s0.1,0.1,0.2,0.1c0-0.1,0.1-0.2,0.1-0.2
		C593.2-129.2,593.1-129.3,593-129.3z"/>
	<path id="XMLID_616_" d="M863.4-44.7c0.3,0,0.7-0.1,1-0.1c0.1,0.2,0.3,0.4,0.3,0.6c0.3,5.7,0.1,44.3-0.2,47.2c-1,0.5-2.1,0.4-3.5,0
		c-0.9-3.1-1.7-6.2-2.6-9.4C857.7-4,856.8-1.8,855,0c-0.4-0.5-0.8-1-1.3-1.6c-1.3,2.2-0.9,4.8-2.8,7.3c-0.3-4-0.6-7.5-0.9-11.5
		c-0.8,1.8-1,3.2-1.2,4.6s-0.5,2.7-0.8,4.3c-1.7-1.2-1.6-3.3-3.2-4.4c-1.2,1.2-0.5,2.8-1.2,4.3c-0.7,0.7-1.7,0.5-2.9,0.3
		c-0.8-1.8-0.4-3.8-0.6-5.8c-1,0.7-1,1.8-1.1,2.8c-0.1,1-0.1,2.1-1.1,3.1c-0.2-0.5-0.5-0.8-0.6-1.2c-0.1-0.7-0.1-1.4-0.1-2.1
		c0-10.3,0-20.5,0-30.8c0-1.3-0.1-2.5,0.6-3.7c0.3-0.5,0.2-1.4,0.1-2c-0.6-2.6-0.6-5.2-0.6-7.9c0-12.9,0-25.8,0-38.7
		c0-0.7,0-1.4,0-2.1c-0.1-1.6,0.2-3,1.7-3.9c-1.2-0.7-1.7-1.4-1.7-2.6c0-6.5,0-12.9,0-19.4c0-0.3,0-0.7,0.2-1
		c0.1-0.3,0.4-0.6,0.7-0.7c0.3,0,0.7,0.2,0.8,0.4c0.3,0.7,0.5,1.5,0.7,2.3c0.2,0.6,0.3,1.3,0.4,1.8c0.9,0.1,0.9-0.4,1-0.8
		c0.1-1.4,1.9-1.9,1.9-3.4c0-0.2,1-0.5,1.5-0.4c0.3,0,0.8,0.5,0.9,0.8c0.2,0.9,0.3,1.8,0.4,2.7c0.1,1.1,0.2,2.3,0.6,3.4
		c0.4-2.2,0.9-4.4,1.3-6.5c1-0.7,1.8-0.7,2.9-0.1c0.1,1,0.2,2.1,0.4,3.3c0.6,0.3,1.2,0.5,1.8,0.8c0.2-0.7,0.5-1.4,0.9-2.6
		c1,1.4,0.9,2.7,1.2,3.9c0.3,1,0,2.2,0.7,3.2c1-0.3,0.8-1,0.9-1.5c0.3-2.1,0.5-4.1,0.8-6.2c0.1-0.8,0.5-1.3,1.3-1.4
		c0.9-0.1,1.4,0.3,1.7,1.3c0.2,0.9,0.4,1.8,0.7,3.1c0.5-1.7,0.8-2.9,1.2-4.2c0.8,0,1.6,0,2.3,0c0.1,0.4,0.3,0.8,0.3,1.1
		c0,6-0.1,12,0.1,18c0.2,5.2-0.4,10.1-2.6,14.8c-0.6,1.3-0.9,2.8-1.4,4.3c0,0.1,0.1,0.2,0.2,0.5c1.1-0.9,1.6-2.1,2.4-3.2
		c0.7-1,1.4-2.1,2.2-3.1c-0.1,1.7-0.9,3.1-1.4,4.6c-0.5,1.6-1,3.3-1.7,5.5c0.9-0.7,1.3-1,1.9-1.4c0.1,0.5,0.3,0.8,0.3,1.2
		c0,6.8,0,13.6,0,20.4c0,1.2-0.2,2.3-0.8,3.3C863.6-46.2,863.1-45.5,863.4-44.7c-0.4-0.1-0.5,0.1-0.5,0.5c0,0.1,0.1,0.2,0.2,0.3
		c0.1-0.2,0.3-0.3,0.4-0.5C863.5-44.4,863.4-44.6,863.4-44.7z M843.7-41.5c1.4-3.1,1.3-7.3-0.3-12.4c0.1,4.3-0.8,7.9-0.3,11.6
		C843.1-41.9,843.4-41.7,843.7-41.5z M848.8-77.9c0.1,1.1,0.1,2.3,0.2,3.4c0,0.1,0.3,0.3,0.4,0.4C850.1-75.5,850.1-75.5,848.8-77.9z
		 M839-32.7c-0.1,0-0.2,0-0.3,0c0,0.3,0,0.7,0.1,1c0.1,0,0.2,0,0.3,0C839-32,839-32.3,839-32.7z M839.6-28.9c0-0.2,0-0.4,0-0.6
		c-0.1,0-0.1,0-0.2,0c0,0.2,0,0.4,0,0.6H839.6z"/>
	<path id="XMLID_612_" class="st1" d="M578.8,268.1c0.3-0.5,0.7-0.9,0.8-1.4c1.1-3.5,2.2-7,3.3-10.5c0.2-0.7,0.3-1.6,1.1-2
		c0.5,3.2,0.4,25-0.1,28c-0.7-1.1-1.2-2-1.9-3.1c-1.5,2.2-0.6,4.8-2.2,6.9c-0.4-0.5-0.9-0.8-1-1.3c-0.6-1.6-1-3.3-1.5-4.9
		c-0.3-0.8-0.7-1.6-1-2.4c-0.9-0.1-0.9,0.5-0.9,0.9c-0.2,2.3-0.5,4.6-0.8,7.6c-0.6-1.2-1-1.6-1.1-2.2c-0.4-2-0.7-4.1-1.1-6.8
		c-0.5,1.6-0.8,2.7-1.1,3.8c-0.6,0-1.1,0-1.8,0c-0.2,1.3-0.3,2.7-0.5,4c-0.1,0.7-0.5,1.3-1.6,1.1c-0.2-0.7-0.6-1.6-0.8-2.5
		c-0.8-5.1-1.5-10.3-2.2-15.4c-0.3-1.8-0.6-3.6-0.9-5.6c-1,0.9-0.5,1.9-0.6,2.8c-0.2,6-0.4,12-0.6,18c0,0.7,0,1.4-0.2,2
		c-0.2,0.4-0.8,0.6-1.4,1c-0.6-1.2-1-2.2-1.6-3.5c-0.2,1-0.3,1.8-0.5,2.5c-0.1,0.2-0.6,0.6-0.7,0.5c-0.4-0.1-0.7-0.5-0.9-0.8
		c-0.2-0.3-0.1-0.7-0.1-1c0-17.3,0-34.6,0-51.9c0-0.3,0.1-0.7,0.1-1.1c1.9-1.4,4.5-0.6,6.7-1.9c-2.4-0.3-4.5-0.6-6.7-0.9
		c0-3.4,0-6.7,0-10c0.3-0.2,0.6-0.4,1-0.6c0-0.1,0.1-0.2,0.1-0.3c-1.5-3.8-1.2-7.7-1.2-11.6c0-10.7,0-21.5,0-32.2
		c0-1.1,0.1-2.3,0.1-3.2c1.1-1,2.1-0.6,3.1-0.4c1,1.9,1.1,3.8,1.5,5.7c0.4,1.8,0.6,3.6,1.1,5.9c0.4-0.9,0.8-1.4,0.9-2
		c0.3-2.6,0.5-5.3,0.7-7.9c0.1-0.6,0.2-1.1,0.3-1.8c1,0,1.9,0,2.9,0c0.5,1.6,0.9,3.1,1.4,4.5c0.7,0.2,0.9-0.2,1.1-0.7
		c0.2-0.6,0.5-1.3,0.7-1.9c1,0.1,1.1,0.8,1.3,1.4c0.6,1.8,1.2,3.7,1.9,6c0.7-1.9,0.4-3.3,0.5-4.7c0.1-1.5-0.2-3,0.6-4.6
		c1,0,1.9,0,3,0c0.3,0.9,0.6,1.9,1.2,3.6c0.3-1.6,0.5-2.5,0.6-3.4c1.4-0.6,2.8-0.4,4.4-0.1c0.5,1.3,0.3,2.6,0.3,3.8
		c0,19.5,0,39,0,58.5c0,3.8,0,7.6,0,11.4c0,1.5-0.2,2.9-0.8,4.4c-2.2,5.3-3.5,11-4.5,16.6C578.8,265.7,578.9,267,578.8,268.1
		c0,0.2-0.1,0.4-0.2,0.6C578.7,268.5,578.8,268.3,578.8,268.1z M575.8,229.9c1.5-0.5,1.6-1.5,1.5-2.6c-0.2-3.3-0.4-6.6-0.6-9.9
		c0-0.1-0.2-0.3-0.4-0.4c-1.3,0.8-1,2.2-1.2,3.4C574.6,225.2,574.8,227.7,575.8,229.9z M566.8,206.4c2.2-2.3,2.6-3.6-0.3-7.8
		C566,201.3,566.1,203.7,566.8,206.4z"/>
	<path id="XMLID_609_" class="st1" d="M859.3-134.5c0,2.1,0,3.4,0,4.7c-5.4,3.4-18.1,2.4-24-1.8c-0.3-1.1-0.6-2.5-1-3.8
		c-0.4-1.2-0.5-2.5-1.7-3.3c-1.6,0.1-2.8,1.6-4.6,1.3c-5.4-5.2-8.9-15.1-7.3-21.2c1,0.8,1.4,1.9,2,2.7c0.6,0.8,1.2,1.6,1.9,2.5
		c0.8-0.6,0.2-1.1,0-1.4c-0.9-2.6-1.9-5.2-3-7.7c-0.4-1.1-0.5-2.2-0.1-3.4c1.9-5.6,5-10.3,9.8-14.1c0.8,0.5,1.5,1,2.2,1.5
		c0.2-0.2,0.5-0.3,0.5-0.5c0.2-1,0.4-2,0.6-3.1c1.4-1.2,3.1-1.8,4.8-2.5c3.8-1.4,7.8-1.9,11.9-1.8c2.1,0.1,3.7,0.8,5.1,2.4
		c1,1.2,1.8,2.6,3.5,3.6c-0.3-1.4-0.5-2.5-0.7-3.9c0.5,0,1-0.1,1.3,0c4.9,2,9,5,12.3,9.2c0.8,1.1,1.2,2.1,1.2,3.5
		c0.1,3.9-0.5,7.8-1.6,12.1c1.5-1.3,1.7-2.8,2.3-3.9c0.7-1.3,0.9-2.8,2-4c4.5,9,2.2,25.2-9,33.2c-1.8-1.2-2.6-3.4-4.6-5.1
		c0.4,3.5,2,6.3,2.3,9.6c-1.6-0.2-2.2-1.4-3.1-2.1C861.5-132.5,860.7-133.2,859.3-134.5z M858.8-163.8c0.1,1.8,0.6,3,1.1,4.2
		c0.4,0.8,1,0.8,1.7,0.1C860.9-160.9,860.3-162.4,858.8-163.8z"/>
	<path id="XMLID_606_" class="st1" d="M977.5,161c0-0.8-0.6-0.9-1.1-1.1c-2.1-1.3-4.2-2.5-6.2-3.7c-0.4-0.2-0.7-0.6-1.1-0.9
		c0.9-0.8,1.6-0.4,2.4-0.2c3.1,0.9,6.2,1.8,9.3,2.7c0.6,0.2,1.3,0.3,2,0.2c-2.2-2.1-4.9-3.4-7.3-5.1c-2.4-1.6-4.8-3.2-7.2-4.8
		c0.2-1.1,0.4-2,0.6-2.9c0.4-0.1,0.8-0.2,1.1-0.1c2.2,0.8,4.5,1.7,7.1,2.8c-0.5-1.3-1.4-1.6-2-2.1c-0.7-0.6-1.4-1.1-2.8-2.2
		c1.4,0.3,2.1,0.4,2.7,0.6c11.1,3.3,21.7,7.6,32.1,12.8c1.6,0.8,2.9,2.2,4.5,3.4c0.6-0.1,1.4-0.4,2.4,0.1c7.2,4.1,14.3,8.4,21,13.3
		c0.2,0.1,0.3,0.4,0.5,0.6c-0.2,0.2-0.5,0.4-0.9,0.7c0.4,0.7,0.8,1.4,1.3,2.5c-3-0.5-5-2.6-7.8-3.2c0.2,1.8,1.4,2.7,2.2,3.9
		c0.8,1.1,1.9,2,2.1,3.6c-1.9,0.2-3.2-1.5-5-1.4c-0.4,0.9,0.4,1.2,0.7,1.7c0.4,0.7,1,1.3,1.4,2c0.4,0.6,0.8,1.1,1.2,1.7
		c0.3,0.6,0.6,1.2,0.9,1.8c-0.9,0.7-1.4,0.1-2-0.2c-4-2.1-8-4.2-12-6.2c-0.7-0.3-1.3-1-2.4-0.5c3.1,3.1,7,5.2,10.1,8.4
		c-0.7,1-1.3,1.9-2,3c-0.8-0.2-1.6-0.3-2.5-0.6c0,0.9,1.1,1.2,1.1,2.4c-0.5,0.7-1.1,1.6-1.8,2.7c-0.6-0.3-1.2-0.4-1.6-0.7
		c-8.8-6.2-18.1-11.5-27.8-16.1c-0.3-0.1-0.6-0.4-0.8-0.6c-0.1-0.1-0.1-0.2-0.1-0.5c3.6-0.9,7.4-1,11.1-1.8
		c-3.9-1.7-12.7-2.9-16.4-2.3c-0.6,1.1,1.1,1.4,0.8,2.6c-3.1-0.9-6-2.2-8.9-3.5c0.1-0.8,0.2-1.4,0.3-2.3c-1.2,0.5-2.1,0.8-3.2,1.3
		c-3.5-1.2-7.3-2.1-11.1-3.6c0.6-2.2,1.2-4.3,1.7-6.3c1.6-1.1,3.3,0.1,5-0.6c-0.6-0.8-1.2-1.6-1.7-2.4c0.5-0.9,1.1-0.6,1.6-0.5
		c2,0.5,4,1.1,6,1.5C975.8,160.8,976.7,160.8,977.5,161c0.2,0.1,0.3,0.2,0.5,0.3l0.2-0.1C978,161.2,977.8,161.1,977.5,161z
		 M995.5,160.1c1.4,2.6,1.9,2.9,4.5,2.5C999.1,161.1,997.7,160.6,995.5,160.1z"/>
	<path id="XMLID_605_" class="st1" d="M807.3,170.7c0.1-0.2,0.2-0.3,0.3-0.5C807.5,170.3,807.4,170.5,807.3,170.7
		C807.2,170.6,807.3,170.7,807.3,170.7z"/>
</g>
<g>
	<path id="XMLID_17_" d="M2250.2,104.3c-0.1-0.8-0.1-1.6-0.4-2.3c-1.6-4.7-2.6-9.6-3.4-14.5c-0.4-2.4-0.2-4.8,0-7.2
		c0.3-3.6,0.7-7.1,1.2-10.7c0.1-0.9,0.4-1.8,0.6-2.7c0.1-0.3,0.4-0.7,0.3-1c-0.5-4.2,1.3-8.1,1.6-12.2c0-0.1,0-0.2-0.1-0.4
		c-2.5-0.6-5-0.1-7.7-0.4c-0.9-1.5-2.5-2.1-4.3-2.1c-0.2,0.6-0.3,1.1-0.6,1.9c-0.7,0.1-1.4,0.2-2.2,0.2c-4.6,0-9.2,0-13.8,0
		c-1.1,0-2.3,0.1-3.6,0.1c-0.1,1.2-0.2,2.2-0.2,3.2c0,11.4,0,22.8,0,34.3c0,0.9,0.1,1.9,0,2.8c-0.1,0.7-0.6,1.4-1.1,2.5
		c0.1,0.4,1.3,0.7,1.2,2c-0.2,4.6-0.1,9.2-0.1,13.8c0,0.2-0.1,0.4-0.3,0.9c-0.7,0-1.4,0.1-2.3,0.1c-0.6-2.1-1.1-4.1-1.7-6.5
		c-0.4,0.7-0.8,1.1-0.9,1.5c-0.5,1.8-0.5,1.8-2.7,3.5c-0.3-1.7-0.7-3.3-1.1-5.7c-0.8,2.5-0.2,4.5-1.7,6.3c-0.4-0.5-0.8-0.9-1.3-1.5
		c-0.4,0.5-0.8,1-1.3,1.6c-0.4-0.5-0.8-0.9-1.4-1.6c-0.5,0.8-1,1.6-1.5,2.4c-0.4-0.2-0.7-0.2-0.8-0.3c-0.3-0.8-0.6-1.7-0.9-2.6
		c-0.2-0.4-0.5-0.7-0.9-1.3c-0.3,1.6-0.6,2.8-0.9,4c-0.5,0.1-1,0.2-1.4,0.2c-0.3,0-0.7-0.1-1.1-0.2c-0.4-0.9-0.7-1.8-1.1-2.8
		c-1.1,0.7-0.3,1.9-1.1,2.8c-0.6,0-1.5,0-2.5,0c-0.1-0.4-0.4-0.7-0.4-1c0-7.4-0.2-14.8,0-22.1c0.1-3.5,1-7.1,1.6-10.6
		c0.1-0.4,0.1-0.8-0.2-1.5c-0.3,0.5-0.6,0.9-1.1,1.7c-0.6-1.6-0.3-3-0.4-4.3c0-1.5,0-3,0-4.5c0-1.4,0-2.8,0-4.2c0-1.4,0-2.8,0-4.2
		c0-1.5,0-3,0-4.5c0-1.4-0.1-2.7-0.1-4.3c-1.1-0.1-2-0.2-2.9-0.2c-3.8,0-7.6,0.1-11.4,0s-7.5-1.1-10.8-3c-0.2,0-0.4,0.1-0.6,0.1
		c-0.1,0-0.2,0.1-0.3,0.2c0.1,0,0.2-0.1,0.3-0.1c0.2-0.1,0.4-0.1,0.6-0.2c-0.2,0.4-0.5,0.8,0,1.2c0.5,0.4,1,0.8,1.8,1.4
		c-1.2,0.8-2.5,0.2-3.6,0.9c-0.1,0.7-0.2,1.5-0.2,2.2c0.2,7.3,0.4,14.5,0.6,21.8c0.1,3.1,0.2,6.2,0.2,9.3c0,1.7,0,1.7-1.4,3.2
		c0.2,0.4,0.3,0.8,0.5,1.3c-1.3,1.4-2.6,2.8-4.2,4.5c2.1,0.2,3.1-1.7,4.9-1.6c0.5,0.9,0.5,2.1,0.6,3.2c0.2,6.7,0.3,13.4,0.5,20
		c0.3,9.4,0.6,18.9,0.9,28.3c0.2,6.7,0.3,13.4,0.5,20c0,0.8-0.1,1.6-0.1,2.3c-1.7,0.5-2.2,0.3-2.5-0.7c-0.2-0.6-0.2-1.1-0.3-1.7
		c-0.1-0.5-0.4-1-0.8-2.2c-0.7,2-1.1,3.5-1.6,5c-0.7,0-1.4,0-2.1,0c0.7-0.9,0.6-1.9,0.1-2.9c-1,1-0.2,1.9-0.1,2.9
		c-1.5,0.2-3,0.3-4.4,0.5c-0.6-0.7-1.1-1.3-1.8-2.1c-0.3,0.7-0.5,1.1-0.7,1.7c-0.4,0.1-0.8,0.3-1.3,0.3c-0.7,0.1-1.4,0-2.2,0
		c-1.3-2.6-0.5-5.7-2-8.5c-1,3.2-0.8,6.3-1.6,9.3c-1.3-0.3-1.2-1.4-1.9-2c-0.4,0.5-0.8,1-1.3,1.5c-0.8-0.8-0.8-0.8-2,0
		c-0.2-0.1-0.5-0.3-0.5-0.4c-0.2-3-0.5-6-0.6-8.9c-0.2-4.6-0.2-9.2-0.3-13.8c0-0.7,0.1-1.4,0.1-2.2c1.1-0.4,2.1-0.9,3.4-1.5
		c-1.4-0.7-2.5-1.3-3.4-1.8c-0.7-2.5-1.7-47.9-1.6-53.9c1.5,2.9,1.5,5.8,2.8,8.7c0-1.4,0.1-2.4,0-3.4c-0.8-4.8-1.5-9.6-2.5-14.3
		c-0.8-3.9-1-7.8-1.1-11.7c-0.2-4.1-0.3-8.3-0.4-12.6c-2.1-0.4-4-0.2-6-0.2c-1.8,0-3.7,0-5.4,0c-0.5-1.6-0.5-1.6,0.4-2
		c0.6-0.2,1.2-0.5,1.8-1.1c-0.8-0.1-1.6-0.2-2.5-0.3c-0.5-2.5-0.5-4.7,1.7-6.5c-1.2-0.5-2-1-2-2.4c-0.1-1.3,1-1.7,1.6-2.5
		c-0.8-0.2-1.6-0.3-2.6-0.5c1.2-1,2.4-1,3.6-1.2s2.5-0.5,4.3-0.8c-2.5-1.1-4.9-0.2-6.8-1.7c0.2-0.7,0.4-1.3,0.5-1.9
		c0.3-0.2,0.5-0.4,0.7-0.4c2.2-0.1,4.4-0.1,6.6-0.1c1.1,0,2.3,0.2,3.5-0.6c0.7-3.6-0.3-7.4,0.2-11c0.2-0.2,0.2-0.4,0.3-0.4
		c0.7-0.1,1.4-0.1,2.2-0.2c0.4,1.1,0.8,2.2,1.4,3.6c0.3-1.3,0.6-2.4,0.9-3.5c0.5-0.1,0.9-0.3,1.3-0.2c0.6,0.2,1.2,0.7,1.8,0.7
		c0.6,0,1.1-0.6,1.8-0.8c1.2-0.3,1.9,0.4,2.4,1.6c0.4-0.6,0.7-1.1,1.3-1.9c0.6,1.7,1,3.1,1.5,4.4c0.7,0.2,0.9-0.3,0.9-0.7
		c0.2-1.1,0.3-2.3,0.4-3.4c1.7-0.7,3.3-0.3,5-0.4c0.5,0.9,0.9,1.8,1.4,2.7c0.9-0.6,1.4,0,2,0.6c0.2-0.1,0.4-0.2,0.5-0.4
		c0.3-0.9,0.5-1.8,0.9-2.6c0.1-0.2,0.6-0.2,1-0.3c1,4,0.2,8.1,1.1,12.2c0.6,0.1,1.3,0.2,1.9,0.2c2.2,0,4.4,0,6.6,0
		c2,0,3.9,0,5.8,0.8c0.4,0.2,1.1,0.2,1.3,0c1.1-1.3,2.6-0.8,3.9-0.8c2-0.1,3.9,0,5.9,0c0.7,0,1.3-0.1,2.2-0.2
		c0.1-1.3,0.2-2.4,0.2-3.6c0-8.7,0-17.3,0-26c0-0.7,0-1.4,0-2.1s-0.2-1.5,0.6-1.9c0.8-0.4,1.2,0.2,1.6,0.8c0.5,0.5,1.4,0.8,1.8,0.1
		c1-1.6,2.3-1.2,3.9-1c0.4,0.8,0.7,1.7,1.2,2.7c0.5-0.9,0.8-1.6,1.3-2.6c1.3,2,1.1,4,1.5,6.2c1.4-2,0.7-4.2,1.4-6.1
		c1.4-1.1,2.8-0.4,4.1,0.3c0.3-0.5,0.5-1,0.8-1.6c1.1-0.4,0.9,0.8,1.4,1.1c0.2,0,0.5,0.2,0.6,0.1c1-0.8,2.1-0.6,3.5-0.4
		c0.3,0.7,0.6,1.5,0.9,2.3c0.3-0.1,0.6-0.1,0.6-0.3c0.2-0.5,0.2-1.1,0.5-1.6c0.1-0.2,0.6-0.4,0.8-0.4c0.3,0,0.7,0.3,0.7,0.6
		c0.1,0.9,0.2,1.8,0.2,2.7c0,8.9,0,17.8,0,26.6c0,1.1,0.1,2.3,0.2,3.5c2.2,0.4,4.3,0.1,6.3,0.2c1.6,0.1,3.2-0.2,4.7,0.7
		c0.2,0.1,0.8,0.1,0.9,0c0.6-0.9,1.4-0.7,2.2-0.7c5.2,0.1,10.4,0.3,15.6,0.3c1.1,0,1.6,0.8,2.4,1.2c0.7-1.1,1.8-1.2,3-1.2
		c3.9,0,7.8,0,11.8,0c4.7,0,9.5,0.1,14.2,0.1c0.6,0,1.1,0.1,1.7,0.1c0.1,0.7-0.2,1.3,0.7,1.7c0.6,0.3,0.2,1.4-0.6,1.5
		c-1.7,0.2-3.4,0.3-5.7,0.4c2.2,1.1,4.3,0.1,6.3,1.3c-1.2,0.6-2.1,1-3.3,1.6c1,0.5,1.9,0.9,2.9,1.4c-0.5,1.1-1.4,2.2,0.2,3.2
		c0.3,0.2,0.4,1,0.5,1.5c0.1,1.4,0,2.8,0,4.2c-0.7,0.4-1.4,0.9-2.2,1.4c0.7,0.3,1.2,0.5,1.9,0.8c0,0.6,0,1.3,0,2
		c-0.8,0.2-1.6,0.4-2.5,0.6c-1.3,2.7-1.6,5.7-2.2,8.6c-0.3,1.6-0.8,3.1-2.1,4.1c0.2,0.9,1.1,1.1,0.9,2.1c-0.5,3-0.8,5.9-1.2,8.9
		c-0.9,8.7-1.3,17.5-0.7,26.2c0.4,5.4,0.9,10.8,1.7,16.1c0.3,1.7,0.1,3.2-0.3,4.8c-0.4,1.6-0.7,3.1-0.7,4.8c0.6-0.9,1.2-1.8,2-3.1
		c0.4,1.3,0.6,2.1,0.9,3c1.3,4.4,2.4,8.9,3.8,13.3c0.7,2.1,1.3,4.2,1.2,6.4c0,0.5,0.1,1.1,0.1,1.9c0.4-0.6,0.5-0.8,0.7-1.1
		c0.9-0.1,1,0.7,1.3,1.3c1.9,4.3,4.1,8.5,6.6,12.5c0.7,1.2,1.5,2.3,2.3,3.5c1.7,2.6,1.7,2.6,2.3,5.7c0.4-0.2,0.7-0.4,1.1-0.6
		c3.2,3.4,6.4,6.8,9.8,10.3c-0.9,0.8-0.5,2.6-2.3,3.4c-0.9-0.6-1.8-1.3-2.8-1.9c-0.1,0.1-0.2,0.2-0.4,0.3c0.5,1.1,1.1,2.2,1.7,3.4
		c-0.3,1.5-1.8,2.2-2.5,3.5c-1.1-0.5-2-0.9-3.4-1.5c0.5,1.1,0.8,1.8,1.1,2.5c-0.1,0.1-0.2,0.2-0.3,0.2c-0.1,0-0.2,0-0.3-0.1
		c-1.8-1.5-3.5-2.9-5.3-4.4c0.2,1.7,0.3,2.1,1.3,3.6c0.8,1.2,1.6,2.3,2.4,3.5c-1.2,0.8-2.3-0.8-3.5,0.1c0.5,0.9,1,1.9,1.6,3
		c-0.3,0.4-0.6,0.9-1.1,1.5c-1.5-0.7-2.9-1.4-4.4-2.1c-0.6,0.8,0.1,1.1,0.3,1.5c0.3,0.4,0.6,0.7,1,1c0.4,0.4,0.8,0.8,1.3,1.4
		c-0.5,0.7-1,1.3-1.5,1.9c-0.4-0.1-0.8-0.1-1.1-0.3c-4.5-3.9-8.7-8.3-12.4-13c-0.5-0.6-0.9-1.2,0.4-1.8c-3.2-1.2-4.8-3.9-6.4-6.5
		c-3.5-5.3-6.7-10.8-9.3-16.6c-0.2-0.4-0.3-0.9-0.5-1.3c0-0.1,0.1-0.2,0.2-0.5c0.8,0.3,1.6,0.5,2.8,0.9c-1.1-1.4-2.2-2.2-3.3-3
		c-1-0.8-1.8-1.8-2.2-3c-2.5-6.3-4.6-12.8-6.3-19.4c-0.1-0.3,0.1-0.7,0.1-1.1c1.5-0.1,3-0.2,4.7-0.4c-0.7-1.8-2.6-1.9-3.5-3.1
		c0.1-0.5,0.2-0.9,0.2-1.4c-0.1-0.1-0.1-0.2-0.2-0.3c-2.8-1.7-3.8-4.3-4.2-7.5c-1-7.4-2-14.9-2.2-22.4c0-1.7-0.1-3.4,0.1-5.6
		C2247.7,99.5,2249,101.9,2250.2,104.3c0.2,0,0.4,0.2,0.5,0.3C2250.5,104.5,2250.4,104.4,2250.2,104.3z M2181.5,43.1
		c-0.3,0.2-0.5,0.4-0.8,0.7C2181.4,43.9,2181.3,43.3,2181.5,43.1c0.5,0.4,1.1,0.9,1.7-0.4C2182.6,42.9,2182,43,2181.5,43.1z
		 M2136.4,45.7c1-0.1,2-0.3,2.9-0.4C2138.3,45,2137.1,44.1,2136.4,45.7c-0.1,0-0.3,0-0.5,0C2136.1,45.7,2136.3,45.7,2136.4,45.7z
		 M2209.9,80.9c0.5-0.5,0.8-0.7,0.7-0.8c-0.1-2.6-0.2-5.3-0.5-7.9c-0.1-0.8-0.9-1.5-1.4-2.3c0-0.1-0.4,0.1-0.7,0.2
		C2207.9,73.7,2207.6,77.4,2209.9,80.9z M2197.6,66.2c0.3-0.5,0.9-1.1,0.8-1.6c-0.5-2.1-1.3-4.2-2.6-6.4c-1.1,1.9-0.8,3.6-0.4,5.3
		C2195.7,64.7,2196.1,65.7,2197.6,66.2z M2265.9,87.6c0.7-1.1,0.1-2.7,1.3-3.7c0.2-0.1,0.2-0.7,0.1-1c-0.3-0.7-0.7-1.4-1.1-2.1
		c-0.3-0.6,0.3-1.6-0.9-2.1c-0.9,1.3-0.6,2.8-0.6,4.2c0,1.5,0.2,2.9,0.4,4.4C2265.2,87.4,2265.5,87.5,2265.9,87.6z M2243.3,36.9
		c-0.7-1.8-1.3-2.2-2.5-1.5c-1.3,0.8-2.6,1.7-3.8,3C2239.6,38.5,2239.6,38.5,2243.3,36.9z M2149.5,128.9c-0.2,2.5-0.4,5,1,7.8
		C2151.2,133.6,2150.3,131.3,2149.5,128.9z M2199.4,17.4c-0.5,3.9-0.4,4.3,0.9,6.4c0-1.4,0.1-2.9,0.1-4.3
		C2200.4,18.6,2200.2,17.8,2199.4,17.4z M2265.9,116.8c-1.2,1.8-1.2,2,0.3,3.9C2266.3,119.4,2266.3,118.2,2265.9,116.8z M2202.1,94
		c-0.1,0.3-0.2,0.4-0.2,0.5c0,0.6-0.3,1.3,0.4,1.8c0.1,0,0.2,0,0.3,0c0.6-0.6,0-1.2-0.1-1.8C2202.5,94.3,2202.3,94.2,2202.1,94z
		 M2152.8,78.9c-0.4-1,0.2-1.8-1.1-2.6C2152.2,77.2,2151.6,78,2152.8,78.9z M2207.1,41.5c1.8,0.4,1.8,0.4,2-1.2
		C2208.4,40.8,2207.8,41.2,2207.1,41.5z M2260.8,39.6c-0.8,0.3-1.5,0.7-0.8,1.7C2260.3,40.6,2260.5,40.1,2260.8,39.6z M2142.8,56.4
		c-1,0.8-0.5,1.4,0.2,1.9C2142.9,57.7,2142.9,57.1,2142.8,56.4z M2269.3,143.8c-0.2,0.2-0.3,0.3-0.3,0.4c-0.1,0.5-0.5,1,0.1,1.5
		c0.1,0,0.3,0,0.3,0c0.1-0.5,0.2-1,0.3-1.5C2269.7,144.1,2269.6,144,2269.3,143.8z M2263.8,58c0.1,0,0.2-0.1,0.2-0.1
		c0-0.2-0.1-0.4-0.1-0.5c-0.1,0-0.2,0.1-0.2,0.1C2263.7,57.7,2263.7,57.9,2263.8,58z M2280.5,174.6c-0.1,0-0.2,0-0.3,0
		c0,0.5,0,1,0,1.9c0.4-0.6,0.5-0.8,0.5-1C2280.7,175.2,2280.5,174.9,2280.5,174.6z M2179.8,32.6c-0.1,0-0.2-0.1-0.3-0.1
		c0,0-0.1,0.1-0.1,0.2c0.1,0,0.2,0.1,0.3,0.1C2179.8,32.8,2179.8,32.7,2179.8,32.6z M2211.5,52.8c-0.1-0.2-0.2-0.3-0.3-0.5
		c-0.1,0.1-0.2,0.1-0.2,0.2c0.1,0.2,0.2,0.3,0.2,0.5C2211.4,52.9,2211.4,52.8,2211.5,52.8z"/>
	<path id="XMLID_16_" d="M2407.2,150.6c0.8-0.1,1.6-0.1,2.5-0.2c1,1.5,0.9,3.1,1.4,4.7c-0.7,0.3-1.3,0.6-2,0.8
		c-3.6,1.1-7.3,2.3-10.9,3.4c-0.6,0.2-1.2,0.5-2.6,1.1c5.8,0.1,10.8-1.6,16.1-1.1c-0.5,1.6-2,1.5-2.7,2.5c1.1,0,2,0,3.3,0
		c0.2,0.6,0.5,1.3,0.8,2.1c-3,2-6.4,3-8.9,5.5c3.1-0.7,6.2-1.4,9.4-2.2c0.3,0.9,0.6,1.8,0.9,2.6c-0.9,0.9-1.9,1-2.9,1.2
		c-5,0.9-10,1.5-15.1,1.7c-15.1,0.6-29.6-2-43.5-7.9c-2.9-1.2-5.6-2.7-8.4-4c-1.6-0.7-2.6-1.9-3.1-3.5c-0.3-0.9-0.7-1.7-1.4-3
		c-0.3,1.3-0.4,2.1-0.6,3.2c-2.8-1.1-5-2.7-6.1-5.7c-0.4,0.3-0.7,0.5-1.1,0.9c-2.2-1.6-4.2-3.5-6.1-5.5c-9-9.1-14.2-20-16.1-32.6
		c-0.3-2-0.3-4.1-0.5-6.2c-0.1-1.5,0.3-2.7,1.3-3.8c1-1.1,2.3-2.1,3.1-3.7c-1.8-0.1-2.5,1.5-3.9,1.7c-0.1-0.3-0.4-0.5-0.4-0.8
		c0.6-11.9,4.2-22.8,10.6-32.9c0.7-1.1,1.5-2,2.4-3c1.2-1.3,2.7-2.4,3.2-4.3c0.2-0.7,0.9-1.3,1.5-1.9c8.1-8.6,17.8-14.6,29-18.1
		c1.1-0.3,2.2-0.5,3.4-0.6c5.5-0.6,11.1-0.6,16.6-0.6c1.1,0,2.2-0.1,3.3-0.6c-1.1-0.4-2.1-0.9-3.3-1.4c0.4-0.3,0.5-0.5,0.7-0.5
		c17.2-0.6,33.1,3.6,47.7,12.7c1.7,1,3.2,2.2,4.5,3.7c2.1,2.3,4.3,4.5,6.5,6.7c0.7,0.7,1.3,2,2.8,1.5c0.2-0.1,0.6,0.3,0.8,0.5
		c7.8,8.9,12.8,19.1,13.8,31c0,0.2-0.1,0.4-0.2,0.6c-0.4,0-0.8,0-1.4,0c0.3,0.8,0.5,1.6,1,2.3c0.8,1.3,0.8,2.7,0.6,4
		c-0.9,8.5-4,16-9.9,22.4c-0.4,0.4-0.9,0.7-1.6,1.3c-0.1-1.2-0.2-2.1-0.3-3c-0.2,0.1-0.4,0.1-0.4,0.2c-0.5,1.3-1,2.6-1.6,3.8
		c-0.4,0.8-1,1.6-1.7,2.1c-3,2.1-6.3,3.3-9.9,4c-0.8-1.1-1.5-2.1-2.4-3.3c-0.5,1-0.9,1.9-1.2,2.7c-1,0.3-1-0.7-1.6-1.1
		c-0.3,0.7-0.5,1.4-0.8,2c-7.6,1.1-24.1-5.8-27.5-9.7c-0.7,0.1-1.3,0.1-2.3,0.2c0.1-0.9,0.2-1.6,0.3-2.3c-4.2-0.7-4.2-0.6-8.8-3.4
		c-7.8-4.7-15.6-9.5-23.3-14.3c-1.2-0.8-3.2-0.9-3.4-3c0-0.2-0.7-0.5-1.2-0.6c-1.6-0.3-3-1.2-4.3-2.1c-2.9-1.9-5.7-3.9-8.6-5.8
		c-0.6-0.4-1.3-0.8-2.1-1.2c-1.4,2-1.8,4.2-2.3,6.3c-1.8,7.1-1.7,14.1,0.8,21.1c1,2.6,2.2,5.1,4,7.3c0.9,1.2,1.6,2.5,2.2,3.9
		c1.3,3.3,3.5,6.1,6,8.8c0.6-1.2-0.3-1.6-0.6-2.3c-0.4-0.8-1-1.5-1.5-2.3c-0.4-0.6-0.8-1.3-1.3-2.2c3,1.4,3.5,1.9,5.1,4.6
		c0.9-0.2,1.8-0.2,2.7,0.4c5.7,3.6,11.9,6.1,18.4,7.8c10.2,2.6,20.5,3.3,30.8,1.3c1.1-0.2,2.3-0.3,3.3-0.4c0.9,1.6,0.9,1.8-0.1,2.3
		s-2.1,1-3.6,1.7c2.1,0.4,3.7-0.8,5.3,0.2c-0.4,1-1.5,1.1-2.1,1.6C2407.3,150,2407.4,150.4,2407.2,150.6c-0.2,0-0.4,0-0.7,0l0.1,0.1
		C2406.9,150.8,2407,150.7,2407.2,150.6z M2392.4,92.4c-0.1-0.6-0.3-1.2-0.4-1.8c0.3,0,0.7-0.1,1,0c5.2,3,10.3,6,15.5,9.1
		c0.1,0.1,0.1,0.2,0.2,0.3c0.3,1-1.1,1.8-0.2,2.9c1.3-0.4,2.6-0.8,3.8-1.2c1.2,0.5,2.2,1,3.3,1.5c1.1,0.4,2.1,0.9,3.2,1.2
		c3.4,0.9,4.6,1.2,6.3-3.1c0.4-0.9,0.5-2,0.6-3c0.2-2.8-0.1-5.5-1.3-8.1c-0.7-1.6-1-3.3-0.6-5.1c-0.1,0,0,0,0,0
		c-0.5,0.2-1,0.4-1.4,0.6c-5.3-7.9-12.5-13-21.1-16.4c-7.8-3.2-16-4.4-24.4-3.9c-1.6,0.1-3.2,0.1-4.7-0.7c-0.2,1-0.8,1.4-1.6,1.6
		c-2.8,0.8-5.5,1.6-8.3,2.4c-0.6,0.2-1.1,0.6-2,1.1c1,0.8,1.8,1.4,2.7,2c8.2,5.2,16.3,10.4,24.5,15.6c1.6,1,3,2,4.4,3.3
		C2391.9,91.2,2391.7,91.9,2392.4,92.4c0.2,0.5,0,1.1,0.8,1.2c0.1,0.2,0.2,0.4,0.3,0.7c0-0.1,0.1-0.2,0.1-0.2
		c-0.1-0.1-0.3-0.2-0.5-0.3C2393.1,93.2,2393.1,92.6,2392.4,92.4z M2392,108.7c0.3,0,0.6,0,0.9-0.1c0.1,0,0.1-0.2,0.2-0.3
		c-0.1,0-0.2-0.1-0.3,0C2392.6,108.4,2392.3,108.6,2392,108.7c-0.1-0.9-0.6-1.1-1.4-0.8c0.3-0.6,0.1-1-0.5-1.4
		c-1.2-0.7-2.3-1.4-3.4-2.2c-0.1,0.1-0.1,0.2-0.2,0.2s-0.1-0.1-0.2-0.1c0.2,0,0.3,0,0.5,0c-0.3,0.7,0.1,1,0.6,1.3
		c1.1,0.8,2.5,0.9,3.3,2.2C2391.2,107.9,2391.8,107.9,2392,108.7z M2366.6,161.8c-4.9-1.9-6.3-2.1-8.7-1.4
		C2359.8,161.4,2363.5,162,2366.6,161.8z M2440.3,81.2c0.3,1.1,0.5,2.2,0.8,3.2c0.2,0.7,0.2,1.5,1.1,2.2
		C2443.2,84.2,2442.1,82.6,2440.3,81.2z M2326.6,126.1c1.3,3.1,1.3,3.1,3.3,3.8C2329,128.5,2328.2,127.5,2326.6,126.1z M2403.5,57.5
		c-1.1-0.8-2.1-0.7-3.1-0.8c-0.4-0.1-1-0.1-0.9,0.8C2400.8,57.5,2402,57.5,2403.5,57.5z M2345,56c2,0,2.7-0.7,3.4-1.5
		c0.3-0.3,0.7-0.7-0.2-1C2347.4,54.1,2346.5,54.8,2345,56z M2438.7,104.6c-0.1,0-0.2-0.1-0.3-0.1c-0.1,0.4-0.3,0.8-0.4,1.2
		c0,0.1,0.1,0.3,0.1,0.3c0.2,0,0.5-0.1,0.5-0.1C2438.6,105.4,2438.6,105,2438.7,104.6z M2412.7,122.4c0.8,0.2,1.1,0.3,1.4,0.3
		c0.1,0,0.2-0.2,0.3-0.4c-0.1,0-0.2-0.1-0.3-0.1C2413.8,122.2,2413.5,122.3,2412.7,122.4z M2332,97.1c-0.1,0-0.2,0-0.3,0
		c0,0.5,0,0.9,0,1.4c0.1,0,0.2,0,0.3,0C2332,98,2332,97.6,2332,97.1z M2373.6,151.5c-0.2,0-0.3,0-0.5-0.1c0.1,0.1,0.1,0.1,0.2,0.1
		C2373.5,151.6,2373.6,151.5,2373.6,151.5z"/>
	<path id="XMLID_15_" d="M1912.5,91c0-0.1,0.1-0.2,0-0.3c-0.7-1.6-1.5-3.1-2-4.8c-0.4-1.6-0.5-3.4-0.8-5.4c-3.6,2.6-5.8,5.9-8.7,8.6
		c-1.3,0-1.9-0.8-2.6-1.7c0.1-0.3,0.1-0.7,0.3-0.9c1.3-1.9,2.6-3.8,4-5.8c-1-0.3-1.3,0.4-1.8,0.8s-1,0.9-1.5,1.4s-1,0.9-1.6,1.4
		c-0.5,0.4-1.1,0.8-1.7,1.3c-0.8-0.6-1.5-1.1-2.2-1.7c-0.4-0.4-0.8-0.8-1.2-1.3c2.1-3.5,4.7-6.6,7-9.9c-0.2-0.1-0.2-0.2-0.3-0.3
		c-0.1,0-0.2,0-0.3,0.1c-3.3,3-6.7,6-10,9c-0.1,0.1-0.2,0.1-0.3,0.2c-0.6-0.6,0-1,0.2-1.4c1.6-2.8,3.3-5.5,4.9-8.2
		c-0.2-0.2-0.2-0.4-0.3-0.4s-0.3,0-0.3,0.1c-2,1.9-3.9,3.9-5.9,5.8c-1.8-0.8-1.9-0.9-1.5-2.3c0.3-1,0.5-1.9,0.9-3.5
		c-1.6,1-2.7,1.7-3.9,2.5c-0.9-0.7-1.8-1.5-2.8-2.3c0.6-0.8,0.9-1.5,1.5-2c4-4.1,8.1-8.2,12.1-12.3c1.2-1.3,2.7-2.1,4.4-2.6
		c1.2-0.4,2.4-1,3.5-1.8c-0.7,0.1-1.5,0.2-2.6,0.3c0.8-1.5,2-2.2,3-3c1.2-1,2.4-1.8,3.6-2.7c1.1-0.8,2.2-1.6,3.4-2.5
		c0.3-3.7,0-7.4-0.1-11.1c-0.1-3.5-0.5-7.1-0.2-10.8c1.1,0,1.8,0,2.8,0c1.1,2.9-0.1,6.1,1.2,9.3c0.9-0.7,0.8-1.6,1-2.2
		c0.2-0.7,0.3-1.4,0.4-2c0.1-0.9,0.2-1.8,0.4-2.7c0-0.2,0.5-0.3,0.8-0.4c0.1,0,0.3,0.4,0.5,0.7c0.8-0.8,0.4-2.1,1.6-2.8
		c0.3,0,1-0.1,1.7-0.1c0.2,0.4,0.4,0.6,0.5,0.9c0.3,1.2,0.3,2.5,1.2,3.9c0.1-1.7,0.2-3.1,0.3-4.5c1.4-0.8,2.8-0.3,4.2-0.6
		c0.6,1.2,1,2.2,1.7,3.6c0.4-1.1,0.8-1.9,1-2.6c0.2-0.8,0.8-1.1,1.5-1.1c0.9,0.1,1.1,0.6,1.1,1.4c0,0.3,0.1,0.6,0.3,1.1
		c0.3-0.3,0.6-0.5,1-0.8c1.2,1.4,0.6,3.3,1.3,4.9c1.2-0.9,0.8-2.2,1.3-3.2c0.4-1,0.1-2.3,1.4-3.3c0.8,2.4,0.1,4.7,0.7,7.1
		c1-0.3,1.8-0.6,2.7-0.9c4.4-1.5,8.7-3,13.1-4.4c4.4-1.3,4.4-1.2,8.4-0.2c0-0.4,0-0.8,0-1.2c3.8-1.7,14.3-2,22.3-0.6
		c0.8,1.1,1.6,2.3,2.4,3.4c0.1-0.1,0.2-0.1,0.4-0.2c-0.2-0.8-0.4-1.7-0.6-2.7c0.6,0,1.1-0.1,1.5,0c9.3,2.1,17.5,6.4,24.3,13.2
		c1.2,1.2,1.2,1.2,1.8,3.3c0.8,0.3,1.6,0.2,2.3,1.1c3.2,4.2,6,8.7,8.2,13.8c-0.3,0.8-0.7,1.6-1.1,2.5c0.5,0.6,1,1.1,1.4,1.7
		c-0.2,1.5-1.8,2.2-2,4c1.5-0.8,2.6-1.3,4-2c0.5,1.7,1.1,3.2,1.4,4.8c1.7,7.1,2.6,14.3,2.7,21.6c0.1,5.1-0.1,10.1-0.2,15.2
		c0,1.1-0.5,1.7-1.7,2.1c1,0.7,1.9,1.3,2.9,2c-1.5,3.1-3,6-4.4,9c-1.4,3-2.8,6-3.4,9.3c2-2.1,3.2-4.7,5-6.9c0.9,0.2,0.7,0.9,0.6,1.4
		c-0.3,4.4-0.6,8.7-0.9,13.1c-0.6,8.2-1.3,16.3-2,24.5c-0.2,2.6-0.5,5.2-0.8,7.9c-1.8,0.5-3.3,0.1-5.1,0c-0.2-0.9-0.3-1.6-0.5-2.4
		c-0.1-0.6-0.3-1.3-0.6-2.5c-0.8,1.7-0.4,3-0.9,4.2c-1,0.7-2.1,0.4-3.2,0.2c-0.8-0.8-0.5-1.7-0.6-2.6c-0.1-2.1,0.1-4.3-0.6-6.4
		c-0.6,2.8-1.1,5.5-1.7,8.4c-1.1-0.9-1-2-1.1-2.9c-0.1-1-0.2-2-0.4-3.1c-0.3,0.2-0.6,0.3-0.7,0.5c-0.2,1.4-0.4,2.7-0.6,4.1
		c-0.8,0.2-2-0.3-2.2,1.1c0,0.2-0.9,0.2-1.6,0.4c-0.5-2.7-0.1-5.3-0.5-7.7c-0.8,0.1-0.9,0.7-1.1,1.2c-0.5,1.9-1,3.8-1.6,5.7
		c-1.4,0.6-2.8,0.3-4.3,0c0.1-6.3,0.9-12.5,1.3-18.6c0.4-6.2,1-12.4,1.5-18.9c1.1,0.4,1.9,0.6,2.7,0.9c0.1-0.3,0.2-0.5,0.2-0.7
		c-0.6-1.6-1.2-3.2-2-4.8c-0.4-0.9-0.5-1.7-0.4-2.7c0.5-7.5,0.9-15,1.3-22.4c0-0.8-0.2-1.6,0.9-1.9c0.1,0,0.2-0.9,0.1-1.2
		c-0.9-3-1-6.1-1.2-9.2c-0.5-7.3-1.9-14.4-5.6-20.9c-0.6-1.1-0.9-2.1-0.6-3.3c0.1-0.5,0.2-1.1,0.4-1.9c-1.1,0.2-1.8,0.4-2.7,0.6
		c-0.6-0.5-1.2-1.2-1.9-1.8c-4-4-9-6-14.5-6.5c-5-0.4-9.9-0.1-14.8,1.1c-0.7,0.2-1.3,0.2-2.2,0.4c0.4-1.7,2.1-1.9,2.9-3.4
		c-0.7,0.2-1.2,0.3-1.7,0.5c-2,1.1-4.1,2.1-6,3.4c-2.1,1.5-4.4,2.5-6.7,3.5c-3.7,1.6-7.3,3.3-10.9,4.9c-0.6,2.1-0.3,3.9-0.3,5.7
		c0.1,5.6,0.3,11.3,0.4,16.9c0.2,7,0.4,14.1,0.6,21.1c0.1,2.7,0,5.3-1,7.8c-0.6,1.6-1.2,3.2-1.1,5c1.1-0.3,0.9-1.7,1.9-2
		c0.8,0.8,0.6,1.9,0.7,2.8c0.1,4.2,0.1,8.3,0.2,12.5c0.2,7.6,0.4,15.2,0.6,22.8c0.1,5.1,0.3,10.1,0.5,15.2c-0.9,0-0.9-0.7-1.1-1.2
		c-0.3-1.1-0.3-2.3-1.3-3.2c-0.4,2.9-0.7,5.8-1.1,8.8c-0.9,0.1-1.8,0.2-2.8,0.4c-0.5-1.8-1-3.4-1.5-5.2c-0.9,1-0.9,2-1,3
		c-0.4,2.2-0.4,2.2-3.1,2.1c-1.1-1.8-0.7-4.2-2.4-6.3c-0.3,1.3-0.5,2.3-0.6,3.2c-0.2,1-0.2,2-0.3,3.1c-1.4,0.5-2.8,0.5-4.3,0
		c-0.8-3.8-0.7-7.8-1.6-11.7c-0.4,0-0.5,0-0.6,0.1c-0.1,0.2-0.2,0.4-0.3,0.6c-0.3,3.7-0.6,7.3-0.9,11c-2,0.7-2,0.7-4.3,0.2
		c-0.4-2-1.2-27.9-1-31.4c0.5-0.3,1-0.7,1.7-1.2c-0.3-0.5-0.6-0.8-0.8-1.2c-0.9-1.2-1.2-2.6-1.2-4.2c0-4-0.3-8.1-0.5-12.2
		c0.6-0.1,1.1-0.3,1.6-0.4c0,0.5-0.1,0.9-0.2,1.4c0.1,0,0.1,0,0.2,0c0-0.5,0-0.9,0-1.4c-1.7-5.2-1.9-10.5-2-15.9
		c-0.1-4.6-0.2-9.1-0.3-13.7c0-0.8,0-1.6,0-2.6C1911.3,90.5,1911.9,90.7,1912.5,91c0.2,0.6,0.3,1.2,0.4,1.8c0.2,0.1,0.4,0.2,0.5,0.2
		c-0.1,0-0.3-0.1-0.6-0.2C1913.1,92.1,1913.3,91.5,1912.5,91z M1928.7,83.6c0.1,0.9-0.6,1.8,0.2,2.8
		C1928.9,85.3,1928.8,84.5,1928.7,83.6c-0.2-1.1-0.4-2.2-0.8-4c0,1.7-0.1,2.5,0,3.4C1928,83.2,1928.4,83.4,1928.7,83.6z
		 M1928.7,52.5c-0.5,0.1-1,0.1-1.3,0.4c-2.1,1.4-4.1,2.9-6.1,4.4c-0.5,0.4-0.9,1.1-1.2,1.6c-0.1,0.2-0.2,0.5-0.4,1.3
		c3.2-2.5,5.9-4.6,8.7-6.8C1928.6,53.3,1928.6,53,1928.7,52.5z M2019.9,95.7c0.3-0.5,0.6-0.7,0.7-1c0.2-0.5,0.4-1.1,0.4-1.7
		c0-1.7-0.1-3.4-0.2-5.2c-0.1-1.1-0.3-2.2-0.5-3.2c-0.5,3.5-0.7,6.9-0.9,10.4C2019.5,95.1,2019.6,95.2,2019.9,95.7z M2005.9,145.2
		c1.2,0.1,1.5-0.7,1.8-1.4c0.4-1.1,0.3-3.9-0.2-6.3C2006.4,140.1,2005.4,142.5,2005.9,145.2z M1920.1,105.8
		c-1.7,1.2-2.2,1.9-2.3,3.3c0,0.9-0.1,1.9,1.2,2.3C1919.5,109.6,1920.4,107.9,1920.1,105.8z M1946.1,36.6c1.3-0.6,2.1-0.9,2.9-1.4
		c0.2-0.1,0.2-0.5,0.2-0.8c0-0.1-0.4-0.3-0.6-0.2C1947.6,34.5,1946.7,34.8,1946.1,36.6z M1928.2,146.6c-0.3,1.4-0.6,2.7,0,4
		C1928.2,149.2,1928.2,147.9,1928.2,146.6z M1998.9,40.9c-0.2,0.1-0.3,0.3-0.5,0.4c0.5,0.6,1,1.2,1.5,1.7c0.3,0.3,0.7,0.6,1.1-0.2
		C2000.4,42.2,1999.6,41.6,1998.9,40.9z M1921.3,35.5c-0.6,0.9-0.8,1.5-0.4,2.1c0.1,0.1,0.4,0.3,0.6,0.2c0.2,0,0.4-0.3,0.4-0.5
		C1921.7,36.9,1921.5,36.4,1921.3,35.5z M1972.9,40.7c1.1,0.8,1.8,0.8,3.1,0C1974.7,40.7,1974,40.7,1972.9,40.7z M1929.3,91.2
		c0.1,0,0.2,0,0.3-0.1c-0.1-0.3-0.1-0.7-0.2-1c-0.1,0.1-0.2,0.1-0.2,0.2C1929.3,90.7,1929.3,91,1929.3,91.2z M1928.9,154.2
		c0-0.1-0.1-0.2-0.1-0.3c-0.1,0.1-0.2,0.2-0.2,0.2c0,0.1,0.1,0.2,0.2,0.3C1928.8,154.4,1928.9,154.3,1928.9,154.2z M2004.1,63.9
		c0,0.1-0.1,0.2-0.1,0.3c0,0,0.1,0.1,0.2,0.1c0-0.1,0.1-0.2,0.1-0.3C2004.3,63.9,2004.2,63.9,2004.1,63.9z"/>
	<path id="XMLID_10_" d="M1736.2,144.7c-1.3,0.6-0.5,2.2-1.4,3c-0.4,0-0.7,0.1-1.1,0c-1.8-0.4-3.5-0.9-5.4-1.4c0-1.8,0-3.5,0-5.6
		c-1.8,1.3-1.8,3.5-3.3,4.8c-0.6-0.1-1.3-0.3-2.1-0.5c0-1-0.1-2-0.1-3c-0.8,0.1-0.7,0.8-0.9,1.3c-0.6,1.2-0.6,1.2-2.6,0.7
		c-0.5-1.7,0.4-3.3,0.7-5c0.3-1.6,0.7-3.1,1-4.6c-0.8-0.4-1,0.1-1.1,0.5c-0.9,2.2-1.8,4.5-2.7,6.7c-0.2,0.5-0.4,1-0.6,1.6
		c-0.4,0-0.8,0-1.1,0c-0.5-0.1-1.1-0.3-1.8-0.5c0-0.8,0-1.5,0.1-2.1c2.1-7.4,4.2-14.8,6.4-22.2c0.1-0.4,0.4-0.8,0.7-1.2
		c0.7,0,1.4,0.1,2,0.1c0.3-0.4,0.3-0.4-1.5-2.1c0.4-2.9,1.9-5.5,2.7-8.6c-4.2-2.5-8.9-4-13-7c0.3-0.5,0.5-0.9,0.8-1.4
		c2.1,0.5,4.2,1.1,6.9,1.7c-1.3-1-2.1-1.7-3-2.4c0.6-0.4,1-0.7,1.6-1.1c-1.2-0.8-2.2-1.4-3.3-2.2c0.4-0.8,0.6-1.5,1-2.2
		c0.4-0.8,1-1.5,1.5-2.4c2.7,0.9,5.3,1.8,8,2.7c-0.2-1.1-1.1-1.3-1.8-1.6c-0.9-0.5-1.9-0.9-2.8-1.4c-0.8-0.4-1.6-0.9-2.5-1.5
		c0.6-1,1-1.9,1.6-2.8c0.3-0.4,0.8-0.3,1.2,0.1c0.2,0,0.4,0,0.7,0c0,0,0.1-0.1,0.1-0.2c-0.3,0.1-0.5,0.2-0.8,0.3
		c0.7-0.8-0.4-1.5,0-2.3c0.6-1.2,1.3-2.4,1.9-3.6c0.9-0.2,1.6-0.3,2.3-0.4c0.8-1.1-1.5-1.7,0-3c3.3,1.6,6.6,3.2,10.2,5
		c2.3-4,3.9-8,6-11.8c2-3.8,4-7.5,6-11.3c0.7,0.1,1.2,0.2,1.6,0.3c0.1-0.3,0.2-0.5,0.2-0.7c-0.6-1.6,0-2.9,0.8-4.2
		c4.4-7.6,9-15,14-22.2c1.1-1.6,2.2-3.2,3.4-4.9c1.1,1.6-0.5,2.8,0.1,4.4c0.4-0.6,0.8-1,1.1-1.5c1.9-3.7,3.7-7.4,5.5-11.1
		c0.6-1.2,1.3-2.5,2.1-3.5c5.5-7.1,11.3-14,17.4-20.6c0.5-0.5,1-0.9,1.6-1.4c0.9,0.9,1.7,1.6,2.7,2.5c-1.2,2.8-3.6,4.7-4.6,7.5
		c0.5-0.4,1-0.7,1.5-1.1c1.5-1.3,2.9-2.6,4.4-3.9c0.5-0.5,1-0.3,1.5,0.2c0.5,1.1-1,1.7-0.9,3c1-0.5,1.8-0.9,2.7-1.4
		c0.8,0.7,1.5,1.4,2.3,2.1c-0.6,1-1,1.9-1.6,3c1.2,0.5,2-0.7,3.1-0.3c-0.1,0.6-0.3,1.2-0.4,1.9c1.2,0.5,1.7-1,2.9-0.9
		c0.4,0.4,1,1,1.5,1.5c-0.1,0.5-0.2,0.8-0.4,1.1c-1.1,1.7-2.3,3.4-3.5,5.2c-0.4,0.6-0.7,1.1-1,1.7c0.2,0.2,0.2,0.4,0.3,0.4
		c0.1,0,0.2-0.1,0.3-0.1c0.1-0.1,0.2-0.1,0.3-0.2c1.9-1.8,3.8-3.7,5.8-5.5c0.1-0.1,0.2-0.1,0.6-0.2c0.7,0.5,1.4,1.1,2.3,1.8
		c-0.3,0.5-0.4,1-0.7,1.3c-2.6,3-5.4,6-8,9.1c-7.4,8.7-14.3,17.8-20.7,27.3c-0.9,1.4-2,2.5-3.2,3.6c-2,1.7-3.9,3.5-6,5.4
		c1,0.6,1.4-0.2,1.9-0.4c0.5-0.3,0.9-0.6,1.4-0.9c0.8,0.9,0,1.4-0.3,1.8c-4,7.1-8.2,14.2-12.1,21.3c-2.1,3.7-3.8,7.6-5.6,11.2
		c0.4,1.3,1.3,1.2,2,1.5c2.2,0.7,4.4,1.3,6.7,1.9c0.5,0.9,1,1.7,1.6,2.8c0.8-0.6,1.4-1.2,2.2-1.8c3.6,0.8,7.3,1.6,11.1,2.4
		c2.9,0.6,5.9,1.1,8.8,1.6c1,0.2,2.1-0.2,2.8,0.9c0.1,0.2,0.6,0.1,0.9,0.1c1,0,2.1-0.2,3.1-0.1c5.8,0.7,11.7,1.1,17.6,1.1
		c0.3,0,0.6,0.2,1,0.3c-0.2,0.6-0.4,1.1-0.6,1.6c0.5,0.4,1.2,0.8,0.4,1.9c-2.4,0.2-5,0.4-7.6,0.5c0.2,1.1,1.2,1.2,1.8,1.6
		c0.6,0.4,1.2,0.8,1.7,1.2c0.6,0.5,1.2,1,2.1,1.7c-1.4,0.8-2.4,1.5-3.6,2.2c1.8,1.5,4,1.1,5.9,1.8c1.3,1.3,0,2-0.6,2.9
		c0.9,0.5,1.5,1.1,0.7,2.3c-1.2,0.1-2.5,0.2-3.9,0.4c0.1,0.4,0.1,0.7,0.3,0.8c0.9,0.4,1.9,0.8,3.2,1.3c-2.7,0.7-4.9,1.4-7.3,2
		c2.7,1.6,5.7,0.7,8.3,1.9c0,0.8,0,1.6,0,2.5c-0.4,0.1-0.9,0.4-1.3,0.4c-4.6-0.1-9.2-0.1-13.8-0.4c-3.2-0.2-6.4-0.6-9.6-1.1
		c-1.7-0.2-3.4-0.6-5-1.2c-4.6-1.6-9-3.4-13.6-5.1c-0.7-0.3-1.5-0.5-2.7-0.9c0.9,2,2.9,2.4,3.8,3.9c-3-0.1-12.1-2.2-16.8-3.8
		c-0.2-0.5-0.5-1.2-0.8-2c-0.5,0.5-0.9,1-1.4,1.6c-2.5-0.7-5.2-1.5-7.9-2.3c-0.4,0.7-0.7,1.3-1,1.9c-0.9,2-1.8,4-2.6,5.9
		c0.4,2.3-0.9,4.2-1.5,6.3c-1.4,5.2-2.9,10.4-4.4,15.6c-0.3,1-0.3,2-1.4,2.9c-0.3-0.3-0.7-0.6-0.7-1c-0.1-0.9-0.1-1.8-0.2-3
		c-0.8,0.7-1.4,1.2-2.4,2C1736.1,145.9,1736.1,145.3,1736.2,144.7c0.3-0.9,0.5-1.7-0.2-2.6C1736.1,142.9,1736.1,143.8,1736.2,144.7z
		 M1761.5,79.2c-0.5,0.9-1,1.8-1.4,2.7c-1,0.9-1.6,2-2.1,3.9c1.6-1.3,2.2-2.3,2.4-3.7C1761.2,81.3,1761.9,80.4,1761.5,79.2
		c0.1-0.1,0.3-0.1,0.5-0.1c-0.1-0.1-0.1-0.3-0.2-0.4C1761.7,78.9,1761.6,79,1761.5,79.2z M1729.5,121c1.5,0,2.5-0.6,3.5-1.7
		c-0.5-0.9-0.6-2.1-1.7-2.8c-1.2,0.9-2.2,1.7-2.7,3.1C1728.9,120.1,1729.2,120.6,1729.5,121z M1759.1,62c2.6-2.1,3.6-3.5,4.1-6.3
		c-1.1,1-2.1,1.7-3,2.5C1759,59.2,1759,60.5,1759.1,62z M1747.3,102c0.1-0.2,0.2-0.4,0.3-0.7c-0.5-0.3-0.9-0.8-1.4-0.8
		c-2.1-0.3-4.1-1.1-6.4-1.2c0.1,0.4,0.2,0.8,0.3,0.8C1742.4,101.3,1744.9,101.4,1747.3,102z M1784.8,107.6c-0.6,1.2-0.8,2,0.2,2.4
		c0.8,0.4,1.2,0,2-1.3C1786.3,108.4,1785.6,108,1784.8,107.6z M1781.5,29.8c1.3,0,1.3,0,2-1.6c0.1-0.1-0.1-0.3-0.3-0.7
		C1782.6,28.3,1782.1,29,1781.5,29.8z"/>
	<path id="XMLID_8_" d="M1861.9,167.2c-1.5-1.7-0.6-4.3-3.1-5.2c-0.3,1.9-0.6,3.5-0.8,5.2c-1.4,0.7-2.6,0.5-4,0.2
		c-0.2-0.9-0.4-1.8-0.7-3.1c-0.5,1.3-0.9,2.2-1.3,3.2c-0.4,0-0.9,0-1.5,0c-0.7-3.9-0.8-7.7-1-12.2c-1,1.4-1.1,2.6-1.3,3.7
		c-0.3,2.1-0.4,4.1-0.7,6.2c-0.1,0.7-0.2,1.4-0.3,2c-1.2,0.9-2.4,0.5-3.8,0.4c-0.1-0.8-0.1-1.3-0.2-1.9c-0.5-6.4-0.9-12.9-1.4-19.3
		c-0.2-2.1-0.5-4.1-0.8-6.2c-0.6-3.8-0.6-3.8,1.4-6.7c-0.1-0.2-0.1-0.5-0.3-0.6c-2.2-0.6-2.9-2.2-3.3-4.3c-2.2-10.6-5.3-21-9.3-31.1
		c-0.3-0.7-0.5-1.5-0.4-2.4c0.7,0.9,1.3,1.8,2,2.6c0.1,0,0.2-0.1,0.3-0.1c-0.2-0.6-0.4-1.2-0.6-1.8c-2.8-6.3-6.3-12.3-9.9-18.2
		c-1.2-1.9-2.2-3.8-3.3-5.7c-0.4-0.7-0.8-1.3-0.4-2.2c0.2-0.4-0.2-1.1-0.5-1.5c-0.7-1-1.5-2.1-2.4-3c-1.7-1.8-3-3.8-4.4-5.8
		c-3.2-4.6-6.6-9.2-9.9-13.7c-0.5-0.7-1-1.4-1.1-2.4c1.1,0.6,2.2,1.3,3.7,2.2c-0.2-1.4-0.9-2.1-1.3-2.8c-0.3-0.5-0.5-1-0.8-1.5
		c-0.1-0.2,0-0.5,0.2-0.6c0.3-0.2,0.7-0.4,0.9-0.3c0.5,0.2,1,0.6,1.4,0.9c1.4,1.2,2.8,2.4,4.2,3.6c0.3,0.3,0.7,0.4,1.6,1
		c-0.8-1.5-1.1-2.4-1.7-3.3c-0.8-1.3-1.6-2.5-2.4-3.8c-0.3-0.5-0.6-1.2,0-1.5c0.4-0.2,1,0,1.8,0c0.3-0.2-0.2-0.7-0.1-1.1
		s0.4-0.8,0.7-1.1c0.3-0.3,0.8-0.5,1.2-0.8c0.9,0.8,1.8,1.5,2.8,2.3c0.2-0.6,0.4-1.1,0.7-1.7c1.4,0.8,2.3,2.1,3.4,3.3
		c0.9,1.1,1.8,2.2,3.2,3.9c-0.3-1.7-1-2.5-1.5-3.4c-0.4-0.8-0.9-1.6-1.4-2.4c-0.5-0.9-1-1.8-1.5-2.7c-0.4-0.8-0.9-1.6-1.3-2.5
		c0.8-1.8,2.5-2.6,4.1-3.8c1.1,1.2,2.2,2.4,3.6,4c-0.2-1.1-0.3-1.7-0.4-2.3c-0.1-0.6-0.2-1.3-0.4-2.7c1,1.1,1.4,1.6,1.8,2.2
		c4.5,5.7,8.7,11.6,12.7,17.7c0.7,1.1,1.1,2.2,0.8,3.5c0.9,0.5,1.8,0.5,2.3,1.5c1.2,2.2,2.6,4.3,3.8,6.6c2.5,4.7,4.9,9.4,7.4,14.1
		c0.7,1.2,0.8,2.3-0.2,3.5c0.8,0.3,1.4,0.5,2.1,0.7c-0.1,0.7-0.2,1.2-0.4,1.8c0.1,0.1,0.2,0.5,0.3,0.5c1.1,0.1,1.5,0.9,1.9,1.8
		c1.7,4.2,3.3,8.3,5,12.5c0.6,1.6,1.1,3.3,1.7,4.9c1.7,4.5,2.7,9,2.6,13.8c-0.1,2.7,0.4,5.5,0.6,8.6c1-1,0.8-2.4,1.8-3.2
		c0.2,0.3,0.6,0.6,0.7,0.9c1.8,7.6,3.2,15.3,4.3,23.1c0.1,0.9,0.1,1.8,0.2,2.9c-0.7,0.5-1.4,1.1-2,1.6c-0.1,1.7,1.6,1.5,2.5,2.7
		c0.9,6.1,1,12.5,1.2,19.1C1867.4,167.2,1864.6,167.6,1861.9,167.2z M1845.9,89.9c-1,1.1-0.5,1.9-0.2,2.7c1.5,3.7,3,7.4,4.5,11.1
		c0.2,0.4,0.5,0.8,1,1.5C1850.7,101.2,1847.9,93.4,1845.9,89.9z M1838.8,74.3c0.2-0.4,0.4-0.6,0.4-0.8c-1-2.8-2.1-5.5-3.2-8.3
		c-0.1-0.1-0.4-0.1-0.6-0.2c-0.8,0.6-0.7,1.4-0.4,2.1C1835.9,69.7,1836.8,72.3,1838.8,74.3z M1849.1,118.8c0.2,1.1,0.3,2.1,0.5,3.1
		c0,0.2,0.2,0.3,0.4,0.5C1851.4,120.9,1851.3,120.8,1849.1,118.8z M1819.3,43.1c0,0.1-0.1,0.2-0.1,0.2s0.1,0.1,0.2,0.1
		c0-0.1,0.1-0.2,0.1-0.2C1819.5,43.2,1819.4,43.1,1819.3,43.1z"/>
	<path id="XMLID_7_" d="M2089.7,127.7c0.3,0,0.7-0.1,1-0.1c0.1,0.2,0.3,0.4,0.3,0.6c0.3,5.7,0.1,44.3-0.2,47.2c-1,0.5-2.1,0.4-3.5,0
		c-0.9-3.1-1.7-6.2-2.6-9.4c-0.7,2.4-1.6,4.6-3.4,6.4c-0.4-0.5-0.8-1-1.3-1.6c-1.3,2.2-0.9,4.8-2.8,7.3c-0.3-4-0.6-7.5-0.9-11.5
		c-0.8,1.8-1,3.2-1.2,4.6c-0.2,1.4-0.5,2.7-0.8,4.3c-1.7-1.2-1.6-3.3-3.2-4.4c-1.2,1.2-0.5,2.8-1.2,4.3c-0.7,0.7-1.7,0.5-2.9,0.3
		c-0.8-1.8-0.4-3.8-0.6-5.8c-1,0.7-1,1.8-1.1,2.8c-0.1,1-0.1,2.1-1.1,3.1c-0.2-0.5-0.5-0.8-0.6-1.2c-0.1-0.7-0.1-1.4-0.1-2.1
		c0-10.3,0-20.5,0-30.8c0-1.3-0.1-2.5,0.6-3.7c0.3-0.5,0.2-1.4,0.1-2c-0.6-2.6-0.6-5.2-0.6-7.9c0-12.9,0-25.8,0-38.7
		c0-0.7,0-1.4,0-2.1c-0.1-1.6,0.2-3,1.7-3.9c-1.2-0.7-1.7-1.4-1.7-2.6c0-6.5,0-12.9,0-19.4c0-0.3,0-0.7,0.2-1
		c0.1-0.3,0.4-0.6,0.7-0.7c0.3,0,0.7,0.2,0.8,0.4c0.3,0.7,0.5,1.5,0.7,2.3c0.2,0.6,0.3,1.3,0.4,1.8c0.9,0.1,0.9-0.4,1-0.8
		c0.1-1.4,1.9-1.9,1.9-3.4c0-0.2,1-0.5,1.5-0.4c0.3,0,0.8,0.5,0.9,0.8c0.2,0.9,0.3,1.8,0.4,2.7c0.1,1.1,0.2,2.3,0.6,3.4
		c0.4-2.2,0.9-4.4,1.3-6.5c1-0.7,1.8-0.7,2.9-0.1c0.1,1,0.2,2.1,0.4,3.3c0.6,0.3,1.2,0.5,1.8,0.8c0.2-0.7,0.5-1.4,0.9-2.6
		c1,1.4,0.9,2.7,1.2,3.9c0.3,1,0,2.2,0.7,3.2c1-0.3,0.8-1,0.9-1.5c0.3-2.1,0.5-4.1,0.8-6.2c0.1-0.8,0.5-1.3,1.3-1.4
		c0.9-0.1,1.4,0.3,1.7,1.3c0.2,0.9,0.4,1.8,0.7,3.1c0.5-1.7,0.8-2.9,1.2-4.2c0.8,0,1.6,0,2.3,0c0.1,0.4,0.3,0.8,0.3,1.1
		c0,6-0.1,12,0.1,18c0.2,5.2-0.4,10.1-2.6,14.8c-0.6,1.3-0.9,2.8-1.4,4.3c0,0.1,0.1,0.2,0.2,0.5c1.1-0.9,1.6-2.1,2.4-3.2
		c0.7-1,1.4-2.1,2.2-3.1c-0.1,1.7-0.9,3.1-1.4,4.6c-0.5,1.6-1,3.3-1.7,5.5c0.9-0.7,1.3-1,1.9-1.4c0.1,0.5,0.3,0.8,0.3,1.2
		c0,6.8,0,13.6,0,20.4c0,1.2-0.2,2.3-0.8,3.3C2089.9,126.2,2089.4,126.9,2089.7,127.7c-0.4-0.1-0.5,0.1-0.5,0.5
		c0,0.1,0.1,0.2,0.2,0.3c0.1-0.2,0.3-0.3,0.4-0.5C2089.8,128,2089.7,127.8,2089.7,127.7z M2070,130.9c1.4-3.1,1.3-7.3-0.3-12.4
		c0.1,4.3-0.8,7.9-0.3,11.6C2069.4,130.5,2069.7,130.7,2070,130.9z M2075.1,94.5c0.1,1.1,0.1,2.3,0.2,3.4c0,0.1,0.3,0.3,0.4,0.4
		C2076.4,96.9,2076.4,96.9,2075.1,94.5z M2065.3,139.7c-0.1,0-0.2,0-0.3,0c0,0.3,0,0.7,0.1,1c0.1,0,0.2,0,0.3,0
		C2065.3,140.4,2065.3,140.1,2065.3,139.7z M2065.9,143.5c0-0.2,0-0.4,0-0.6c-0.1,0-0.1,0-0.2,0c0,0.2,0,0.4,0,0.6H2065.9z"/>
	<path id="XMLID_5_" class="st1" d="M2085.6,37.9c0,2.1,0,3.4,0,4.7c-5.4,3.4-18.1,2.4-24-1.8c-0.3-1.1-0.6-2.5-1-3.8
		c-0.4-1.2-0.5-2.5-1.7-3.3c-1.6,0.1-2.8,1.6-4.6,1.3c-5.4-5.2-8.9-15.1-7.3-21.2c1,0.8,1.4,1.9,2,2.7c0.6,0.8,1.2,1.6,1.9,2.5
		c0.8-0.6,0.2-1.1,0-1.4c-0.9-2.6-1.9-5.2-3-7.7c-0.4-1.1-0.5-2.2-0.1-3.4c1.9-5.6,5-10.3,9.8-14.1c0.8,0.5,1.5,1,2.2,1.5
		c0.2-0.2,0.5-0.3,0.5-0.5c0.2-1,0.4-2,0.6-3.1c1.4-1.2,3.1-1.8,4.8-2.5c3.8-1.4,7.8-1.9,11.9-1.8c2.1,0.1,3.7,0.8,5.1,2.4
		c1,1.2,1.8,2.6,3.5,3.6c-0.3-1.4-0.5-2.5-0.7-3.9c0.5,0,1-0.1,1.3,0c4.9,2,9,5,12.3,9.2c0.8,1.1,1.2,2.1,1.2,3.5
		c0.1,3.9-0.5,7.8-1.6,12.1c1.5-1.3,1.7-2.8,2.3-3.9c0.7-1.3,0.9-2.8,2-4c4.5,9,2.2,25.2-9,33.2c-1.8-1.2-2.6-3.4-4.6-5.1
		c0.4,3.5,2,6.3,2.3,9.6c-1.6-0.2-2.2-1.4-3.1-2.1C2087.8,39.9,2087,39.2,2085.6,37.9z M2085.1,8.6c0.1,1.8,0.6,3,1.1,4.2
		c0.4,0.8,1,0.8,1.7,0.1C2087.2,11.5,2086.6,10,2085.1,8.6z"/>
	<path id="XMLID_14_" class="st1" d="M3141-6.5c0.8,0.2,0.9-0.5,1.1-1c1.5-3.7,3-7.5,4.5-11.2c0.4-1.1,0.9-2.1,1.3-3
		c1.4-0.7,2.3,0.4,3.4,0.4c0.1,0.8,0.1,1.5,0.2,2.2c0.2,0,0.4,0,0.4,0c0.6-0.7,1.2-1.3,2-2.2c1.2,3.5,0.9,7,1.2,10.3
		c0.8,0.4,1.2-0.1,1.4-0.7c0.5-1.3,1-2.6,1.4-3.9c0.4-1.2,0.9-2.3,1.4-3.6c1.2,0.3,2.2,0.5,3.1,0.8c0.6,1.2,0.1,2.2-0.1,3.1
		c-3,12.9-6.1,25.8-9,38.7c-0.8,3.6-1.5,7.2-2.3,10.8c-0.2,0.8-0.1,1.5-0.2,2.5c0.8,0,1.5,0.1,2.2,0.1c4.1-0.3,8.3-0.6,12.4-0.9
		c4-0.3,8-0.8,12.1-1c8.9-0.6,17.7-1.1,26.6-1.7c0.9-0.1,1.8,0.1,2.9,0.1c-0.5,1.6-1,3-1.7,5c2.6-1.8,3.5-4.1,5.5-5.5
		c11.4-1,37-2,41.1-1.5c0.7,1,0.6,2.1,0,3.4c-1.4,0.2-2.9,0.4-4.3,0.5c-5.2,0.5-10.4,0.8-15.5,1.5c-3.5,0.5-7,1.5-10.5,2.3
		c-0.4,0.1-0.8,0.4-1.6,0.9c1.8,0.3,3.1,0.1,4.4,0.1c1.5,0,3-0.2,4.5-0.2c1.4,0,2.8-0.1,4.2-0.1c1.4,0,2.8,0,4.2,0
		c1.4,0,2.8,0,4.2-0.1c1.5,0,3-0.1,4.5-0.1c1.3,0,2.7-0.3,4.6,0.2c-1,0.5-1.5,0.7-2,1c-0.4,0.2-0.8,0.4-1.1,0.6
		c-0.2,0.8,0.2,0.9,0.7,1.1c0.9,0.4,1.9,0.8,3,1.4c-1.4,1.7-3.7,1.2-4.8,2.7c-0.1,0.7,0.5,0.7,0.9,0.7c1.7,0.3,3.4,0.5,5.1,0.7
		c1.9,0.2,3.9,0.1,6,0.7c-0.8,1-1.6,1.1-2.5,1.3c-4.7,1-9.5,1.9-14.2,2.8c-1,0.2-1.9,0.6-2.8,1.3c4.5-0.2,9.1-0.3,13.5-0.5
		c0.9,1.9,0.9,1.9,0.5,4.6c-0.6,0.1-1.2,0.3-1.9,0.3c-6,0.2-12,0.4-18,0.7c-8.7,0.4-17.5,0.8-26.2,1.3c-8.2,0.5-16.3,1.1-24.5,1.7
		c-0.2,0-0.4-0.1-0.9-0.2c0.4-0.4,0.6-0.8,1-1c2.5-1.3,5.1-2.6,7.7-4c1-0.5,2-1.2,3.5-2.1c-1.1,0-1.6-0.1-2,0
		c-6.4,2.4-12.7,4.7-19.1,7.2c-1.4,0.5-2.8,0.9-4.3,1c-6.7,0.6-13.3,1.2-20,1.9c-0.6,0.1-1.1,0.2-1.6,0.2c-1.1,3.1-2.6,16.5-3,26.2
		c-0.4,8.7-0.5,17.4-0.2,26.4c-1.5-0.6-1.8-1.8-2.5-2.6s-1.2-1.9-2.4-2.5c0.2,1.9,1.1,3.3,1.7,4.7c1.1,2.6,2.7,5.2,3.5,7.9
		c0.8,2.7,0.9,5.7,1.3,8.5c0.9,6.8,2.7,13.3,5.7,19.5c0.6,1.3,0.9,2.8,1.3,4.3c0.4,1.4,0.6,2.9,1.1,5c0.3-1.5,0.5-2.2,0.7-3.3
		c1.7,1.7,3.2,3.4,5,4.7c1.7,1.3,3.7,2.2,5.7,3.4c0.5,2-2,1.4-2.7,2.8c0.5,0.7,1.1,1.5,1.7,2.3c-0.9,1.1-2-0.3-3,0.4
		c0.6,1.2,2.2,1.1,3.1,2.5c-0.1,0.7-0.2,1.6-0.3,2.5c-0.4,0.1-0.7,0.3-0.8,0.2c-2.2-0.6-4.5-1.2-6.7-1.8c-2.9-0.9-5.7-1.9-8.6-2.7
		c-0.9-0.3-1.8-0.3-2.7-0.4c-0.2-0.2-0.4-0.3-0.6-0.5c-0.1,0.1-0.1,0.3-0.2,0.4c0.3,0,0.6,0,0.9,0.1c0.1,1.1,1.1,1.1,1.7,1.4
		c4.9,2.3,9.8,4.6,14.7,6.9c0.9,0.4,1.9,0.7,2.8,1.9c-1.1,0-1.9,0-2.6,0c-0.7-0.1-1.3-0.2-2.3-0.4c0.4,1.3,1.5,1.5,2.2,2.2
		c0.7,0.7,1.7,1.2,2.1,2.4c-1.5,1.3-3.3,0.9-4.9,1c-1.7,0.1-3.4,0-5.2,0c-0.1,0.8,0.7,0.8,1.1,1c1.8,0.8,3.6,1.6,5.4,2.4
		c0.4,0.2,0.9,0.4,1.2,0.7c0.2,0.2,0.2,0.6,0.2,0.9c0,0.1-0.3,0.4-0.5,0.4c-0.9-0.1-1.8-0.1-2.7-0.3c-6.7-1.5-12.5-4.7-17.6-9.2
		c-5-4.4-9-9.6-12.2-15.4c-0.2-0.4-0.4-0.8-0.5-1.3c0-0.1,0-0.2,0.1-0.5c1.7,0.1,3.3,0.2,5.5,0.4c-0.6-0.8-0.8-1.4-1.2-1.7
		c-1.4-0.9-3-1.7-4.4-2.7c-1.1-0.7-2.3-1-3.2-2.3c0.3-1,0.7-2,1-3c-0.2-0.3-0.3-0.6-0.4-0.7c-2.1-0.6-3-2.3-3.5-4.3
		c-1.5-5.3-2.7-10.7-3.5-16.2c-1.6-11.5-2.1-27.6-1.4-40c0.8,0,0.8,0.7,1,1.1c1.2,2.7,2.4,5.5,3.6,8.2c0.3,0.6,0.7,1.2,1.3,2.4
		c-0.5-4-1.3-7.2-2.2-10.3c-0.8-2.9-1.7-5.7-2.7-8.6c-0.5-1.5-0.7-2.9-0.6-4.4c0.4-4.4,0.8-8.7,1.1-13.1c0.1-1.2,0.4-2.5,0-3.9
		c-5.4,0.2-10.6,1.2-15.8,1.6c-0.2-0.4-0.4-0.8-0.6-1.2c-0.1,0-0.3,0-0.3,0c-3,1.9-6.5,2.2-9.9,2.6c-4.5,0.5-8.9,1.2-13.4,1.8
		c-1,0.1-2,0.2-3.1,0.3c-1-1.2-0.9-2.4-0.9-3.8c3.5-2,7.6-2.4,11.4-4c-0.6-0.7-1.3-0.4-1.8-0.4c-0.7,0-1.4,0-2.1,0.1
		c-0.7,0-1.4,0-2.1,0c-0.6,0-1.2-0.1-1.7-0.1c-0.7,0-1.4,0-2.1,0s-1.4-0.1-2.1-0.1c-0.2-0.9-0.4-1.8-0.7-2.7
		c0.3-0.3,0.5-0.6,0.7-0.8c1-0.5,2.1-0.9,3.4-1.5c-1.1-0.9-2.4-0.3-3.5-1c0.3-0.3,0.4-0.7,0.7-0.9c1.3-0.7,2.7-1.3,4-1.9
		c0.9-0.4,1.8-0.9,2.6-1.3c-0.1-0.8-0.6-0.8-1-0.9c-2.5,0-5.1,0-7.8,0c-0.3-0.7-0.5-1.4-0.8-2.2c1.3-1.7,3.6-1,5-2.2
		c-0.1-0.7-0.6-0.4-1-0.5c-0.6-0.1-1.1-0.1-1.7-0.1c-0.5,0-0.9-0.1-1.4-0.2c-1.1-0.2-1.6-0.9-1.4-2.2c0.9-0.2,1.8-0.6,2.8-0.7
		c6.1-0.8,12.1-1.6,18.2-2.3c4.7-0.6,9.4-1.2,14.1-1.8c1.7-0.2,3.4-0.3,5.1,0.2c2.3,0.6,4.7,1,7.8,1.7c-1.4-1-2.2-1.7-3.2-2.5
		c2.2-1.1,4.4-0.8,6.7-1.2c0.3-0.7,0.6-1.4,0.8-2.2c1.2-6.2,2.4-12.4,3.7-18.6c0.1-0.4,0.3-0.8,0.5-1.4c1.5,0.1,2.6,1.1,3.8,1.6
		c1.2,0.5,2.3,1.1,3.9,1.1c-0.3-0.6-0.4-1-0.6-1.3c-1.4-1.8-2.8-3.6-4.2-5.5c-0.4-0.5-0.6-1.2-1-2c1.2-0.6,2.2-1.1,3.2-1.6
		c-0.3-1.5-2-1.4-2.9-2.7c0.3-3.4,1.5-6.9,2.2-10.5c0.8-3.7,1.6-7.4,2.6-11.1c1-3.5,1.4-7.2,3-10.8c1.1,0.3,2,0.6,3.1,1
		c-1,6.2-3.4,12-4,18.7c2.3-2.5,3.2-5.1,4.4-7.6c1.1-2.4,2.1-4.8,3.6-7.1c0,0.6,0.1,1.2,0,1.8c-0.7,2.9-1.5,5.8-2.2,8.7
		C3141.5-8.5,3141.3-7.5,3141-6.5c0,0.3-0.1,0.5-0.2,0.7c0,0,0.1,0.1,0.2,0.2C3141-6,3141-6.2,3141-6.5z M3142.5,54.1
		c-0.5-0.4-0.7-0.8-1-0.8c-1.6,0-3.2-0.2-4.8,0.1c-2.2,0.5-4.4,1.2-6.6,1.9c-0.5,0.1-0.8,0.6-1.5,1.1c3.4,0.2,9-0.5,11.7-1.3
		C3141,54.9,3141.6,54.5,3142.5,54.1z M3156.5,43.3c5.5,0.2,10.9,0.4,16.3-0.8c0.1,0,0.2-0.4,0.4-0.7c-0.4-0.1-0.8-0.4-1.2-0.4
		C3166.8,41.5,3161.7,42.3,3156.5,43.3z M3147.3,7.6c-1.2,2.4-1.9,4.9-1.2,7.5c0.1,0.2,0.5,0.6,0.7,0.6c0.2,0,0.6-0.4,0.7-0.6
		C3147.7,12.6,3147.7,10.1,3147.3,7.6z M3139.4,38c0.4-2.2,0.8-4.2,1.1-6.2c-1.7,1.7-3.1,3.6-3.4,6.2C3138,38,3138.6,38,3139.4,38z
		 M3215.8,48.9c-1.7-1.1-1.7-1.2-2.4-1c-1.8,0.5-3.7,0.7-6,1.8C3210.7,50,3213.3,50,3215.8,48.9z M3100.8,62.7
		c2.5,0.4,4.7-0.7,6.9-1.4c0.2-0.1,0.3-0.5,0.5-0.9c-0.4-0.1-0.8-0.3-1.1-0.2c-2,0.5-3.9,1.1-5.9,1.8
		C3101.1,62.1,3101,62.4,3100.8,62.7z M3128.9,71.3c-0.2,0.7-0.5,1.4-0.6,2.1c-0.1,0.9-0.2,1.8-0.2,2.7c0,0.7,0.1,1.4,0.3,2.8
		C3130,76,3129.2,73.6,3128.9,71.3z M3124.6,135.8c0.2,2.1,0.6,3.5,1.9,4.8C3127.2,138.5,3126.2,137.3,3124.6,135.8z"/>
	<path id="XMLID_13_" class="st1" d="M2813.3,46.3c-0.1,0.9-0.2,1.8-0.4,2.7c-0.4,1.8-1,3.5-1.6,5.7c1.5-1,1.7-2.4,2.3-3.4
		c0.7-1.2,1.2-2.5,1.9-3.7c0.6-1.1,1.1-2.3,1.7-3.4c0.6-1.2,1.3-2.4,2-3.8c0.8,0.3,1.5,0.5,2.2,0.7c0.1,1.7-1.4,2.8-1,4.7
		c1.4-1.2,2.5-2.2,4.1-3.6c-0.4,1.6-0.7,2.7-1,3.8c-3,9.7-6,19.4-8.2,29.3c-1.4,6.1-2.5,12.2-3.4,18.4c-0.8,5.6-1.9,11.1-2.9,16.7
		c-0.5,2.8-1.1,5.7-1.6,8.5c-0.1,0.4,0,0.9,0,1.8c1.8-2.4,1.8-5.1,3.2-7.4c0.9,1.2,0.7,2.4,0.8,3.5c0.6,6.4,2.1,12.5,4.7,18.3
		c2,4.4,4.6,8.3,8.3,11.4c1.8,1.5,3.7,2.7,5.9,3.5c1.1,0.4,2.3,0.6,3.2,1.3c0.7,0.6,1,1.7,1.5,2.5c0.7,0.1,1.1-1.1,1.8-0.3
		c0.9,0.9,1.8,1.8,2.7,2.7c0.9,0.9,1.6,1.9,3,2.5c1.4-2.3,0.5-4.9,1-7.4c0.4-0.2,0.8-0.5,1.4-0.7c9.9-2.4,16.9-8.5,22.2-17
		c0.7-1.2,1.4-2.3,2.2-3.5c0.4,0.7,0.7,1.2,1.2,2.2c0.5-1.5,0.9-2.5,1.2-3.6c2.6-10.3,4.7-20.7,5.4-31.3c0.4-6-0.1-12-0.7-17.9
		c-0.8-7-1.6-14-2.4-21c0-0.3,0-0.7,0.1-1c3.2,0.4,3.9,0.9,4.7,3.8c0.5,1.7,1,3.5,1.6,5.6c0.9-0.9,1.5-1.5,2.2-2.3
		c0.4,1.2,0.8,2.3,1.2,3.6c1.2-1.8,0.9-3.8,1.4-5.5c0.7-0.2,0.9,0.1,1.1,0.5c0.5,1.3,1,2.5,1.6,4.1c0.8-0.8,1.4-1.4,2.2-2.1
		c0.9,0.4,1.8,0.7,2.8,1.2c0.2,1.2,0.3,2.4,0.5,3.5c1.5,0.4,1.5-1.3,2.7-1.7c2.1,0.6,4,1.8,6,2.9c0.5,0.3,0.9,1,1.2,1.6
		c0.3,0.7,0.5,1.5,0.8,2.4c4.5,2.3,8.9,4.8,13.5,7c3.9,1.9,7.6,4.4,11.2,6.8c0.2,0.1,0.2,0.4,0.4,0.6c-0.9,0.1-1.8,0.2-3.1,0.3
		c1.8,2.5,4.7,3.6,6.2,6.1c-0.6-0.2-1.3-0.2-1.9-0.5c-3.6-1.7-7.2-3.5-10.9-5.3c-1.3-0.6-2.6-1.3-4.8-1.8c0.9,0.9,1.2,1.3,1.6,1.6
		c3.7,2.5,7.4,5,11.2,7.6c0.9,0.6,1.9,1.3,3,2.1c-0.7,2.2-1.7,4.1-3,6c-2.9-1.5-5.2-3.9-8.2-5.4c-0.2,1,0.5,1.4,0.9,1.8
		c0.4,0.5,1,1,1.5,1.5c0.6,0.6,1.1,1.1,1.7,1.7c0.5,0.5,1,0.9,1.5,1.5c0.5,0.5,0.9,1.1,1.3,1.6c-0.5,1.6-1.2,3.1-2.3,4.5
		c-6.5-3-12.7-6.4-19.5-9.5c-0.3,1.9-0.5,3.5-0.7,5.1c-0.7,4-1.4,7.9-2,11.9c-0.3,1.7-1,3.1-1.9,4.4c-1.8,2.7-3.6,5.4-5.4,8.1
		c-0.4,0.7-0.8,1.3-1.5,2.3c1.4-0.1,2-0.9,2.7-1.4c0.7-0.5,1.4-1,2.3-1.7c-1.7,10.1-14.4,28.7-23.1,33.9c-0.2-0.7-0.3-1.3-0.5-2.1
		c-4.2,1.4-6.7,5.5-11.1,7.3c0.4-2.5,2-4,2.4-6.1c-1-0.2-1.3,0.6-1.6,1c-2.4,2.8-4.8,5.6-7,8.5c-1.4,1.8-3.3,2.7-5.5,3.2
		c-11.5,2.5-22.7,2.1-33.5-2.8c-9.1-4.1-16.1-10.6-21.6-18.8c-0.4-0.6-0.7-1.2-1.1-1.7c-2.5-3.7-4.1-7.6-3.9-12.3
		c0.2-4.5-0.2-9-0.4-13.5c0-0.8-0.1-1.6-0.2-2.8c-1.4,1.5-1.4,3.2-1.9,4.7s-0.6,3.1-1.5,4.9c-1.2-2.5-1.5-4.7-1.9-6.9
		c-2.1-11.1-2.1-22.2-1-33.4c0.3-3.6,0.8-7.1,1.3-10.6c1.8-10.9,4.3-21.7,7.5-32.3c1.5-5.1,3.1-10.1,4.6-15.2
		c0.2-0.8,0.5-1.5,0.8-2.2c1.5-0.5,2.5,0.6,3.8,0.6c0.1,3.8-1.4,7.2-1.7,10.9c1.4-0.6,1.7-1.9,2.4-2.8c0.8-0.9,1.7-1.8,2.4-2.6
		c0.9,0.2,0.9,0.7,0.8,1.2c-0.2,1.4-0.6,2.7-0.8,4.1c-0.1,0.5-0.1,1.1-0.1,1.9c2.5-1.5,2.9-4.5,5.3-5.7c1.2,2.5,0.2,5,0.5,8
		C2812,48.3,2812.7,47.3,2813.3,46.3L2813.3,46.3z M2808.4,66.9c-0.6,0.7-0.9,0.9-1,1.2c-0.8,3.7-1.7,7.4-2.5,11
		c-0.1,0.5-0.1,1.1,0.1,1.7c0.1,0.3,0.4,0.6,0.7,0.6c0.3,0,0.7-0.2,0.8-0.4c0.3-0.6,0.5-1.3,0.6-1.9
		C2807.6,75.3,2808,71.4,2808.4,66.9z M2825.1,165.1c2.4,1,4.6,1.3,6.9,1.1c0.4,0,0.7-0.3,1.5-0.7c-1.7-1.2-3.1-2.1-4.7-2.7
		C2827.5,163.5,2826.1,163.7,2825.1,165.1z M2891.1,108.2c-0.5,1.9,0,3.6,0.7,5.3c0.3,0.7,1.2,0.9,1.7,0.4s0.8-1,1.2-1.5
		C2893.3,109.8,2893.3,109.8,2891.1,108.2z M2880.6,131.3c-1.5,2.1-2.5,4.3-2.6,6.7c0.9,0.6,1.7,0.8,2.6,0.2
		C2880.6,135.8,2880.6,133.5,2880.6,131.3z M2809.2,153c0-3.5-0.7-4.4-3.6-5.1C2806.4,151.1,2806.6,151.5,2809.2,153z M2881.9,83.5
		c2.1,0.9,2.1,0.9,3.8,0.2c-1.4-1.2-2.7-2.4-4.3-3.8C2881.6,81.4,2881.8,82.4,2881.9,83.5z M2892.3,81.3c-0.2,0.1-0.4,0.2-0.6,0.4
		c0.2,0.5,0.2,1.2,0.5,1.5c1.2,1.3,2.8,1.9,4.4,2.5c0.1,0,0.2-0.2,0.5-0.5C2895.5,83.9,2893.9,82.6,2892.3,81.3z"/>
	<path id="XMLID_12_" class="st1" d="M2653.9,70.2c0.8-0.2,0.9-0.9,1.2-1.6c1.1-2.7,2.2-5.3,3.3-8c0.2-0.5,0.6-0.9,1-1.5
		c0.1,0.6,0.2,0.8,0.2,1c-3.8,29.3-6.5,58.6-8.7,88.1c0,0.2-0.2,0.4-0.4,0.9c-0.4-0.6-0.9-1-1.2-1.5c-2.1-4.1-4.1-8.3-6.2-12.4
		c-0.5-1-1.1-2-1.8-2.9c0.9,4.6,2.8,8.9,4.5,13.3c1.7,4.2,3.6,8.3,4.7,12.9c-1.6-1.7-3.3-3.5-5.3-5.6c0.1,0.9,0.1,1.4,0.3,1.8
		c1.1,2.5,2.3,5,3.5,7.5c0.6,1.3,0.9,2.6,0.8,4c-0.4,6.4-0.7,12.9-1,19.3c-0.2,3.9-0.3,7.8-0.4,11.7c-0.1,2.5-0.1,5.1-0.2,7.6
		c0,0.9-0.2,1.8-0.3,2.8c-1.1-0.4-1-1.2-1.3-1.9c-0.5-1.2-0.5-2.7-1.8-3.6c-1,1.3-0.8,3.1-2.1,5c-2-9.8-2.9-19.2-4.9-28.3
		c-0.3,3.1-0.2,6.2,0.1,9.3c0.6,6,0.5,12,0.3,18c0,0.4-0.1,0.9-0.2,1.3c-0.7,0.2-0.9-0.3-1-0.7c-0.3-1.5-0.6-3.1-1-5.4
		c-1.1,2.4-1.9,4.2-2.7,6.1c-1-1-0.8-2.1-1-3c-0.1-1-0.1-2.1-0.2-3.1s0.1-2-0.5-3.1c-1.2,0.8-1,1.9-1.4,2.8
		c-0.4,0.8-0.6,1.8-0.9,2.6c-0.4,0.9-0.4,2-1.5,2.6c-0.8-0.6-0.5-1.5-0.6-2.2c-0.2-0.9-0.3-1.8-0.5-2.7c-0.2-0.8,0.1-1.6-0.8-2.4
		c-0.9,2.8,0.1,5.7-0.7,8.6c-1.3,0-2.5,0-3.8,0c-0.8-0.8-0.5-1.9-0.5-2.9c0.1-5.4,0.2-10.8,0.5-16.2c0.3-7.3,0.6-14.5,1-21.8
		c0.6-9.4,1.2-18.9,1.8-28.3c0.5-7,1.1-14,1.6-21c0.3-3.6,0.6-7.1,1-10.7c0.3-3,0.4-3,2.6-5c-0.3-0.4-0.5-0.9-0.9-1.3
		c-0.8-0.8-0.9-1.8-0.8-2.9c0.4-3.7,0.7-7.3,1.1-11c0.8-7.2,1.6-14.4,2.5-21.6c1-8.1,2.1-16.2,3.2-24.3c1.2-8.4,2.4-16.9,3.7-25.3
		c1.1-7.3,2.4-14.5,3.6-22.4c1.3,2.3,1,4.2,1.3,6.1c0.3,1.8,0.6,3.6,0.9,6.1c0.5-2.1,0.3-3.5,0.2-4.9c-0.2-4.1-0.4-8.3-0.8-12.4
		c-0.2-2.3,0-4.6,0.4-6.9c2.5-12.8,5-25.6,7.5-38.3c0.2-1.2,0.6-2.4,0.9-3.8c0.6,0,1.1-0.2,1.4,0s0.6,0.8,0.6,1.1
		c-0.1,1.4-0.4,2.7-0.5,4.1c-0.2,2.4-0.4,4.8-0.7,7.1c0.9,0.3,0.9-0.3,1.1-0.6c1.2-3,2.3-6,3.4-9c0.2-0.6,0.3-1.3,1.3-1.6
		c0.5,2.7-0.3,5.2-0.6,7.8c-0.2,2.5-0.5,5-0.7,7.5c0.9,0.2,1.2-0.4,1.4-0.9c0.8-1.5,1.2-3.2,2.4-4.8c0.8,1.3,0.5,2.4,0.6,3.5
		c0.1,1,0,2,0,3c1,0.2,0.9-0.4,1-0.8c0.7-3.5,1.4-7,2.1-10.5c0.2-1.1,0.7-2.2,1.1-3.4c1.2,0.3,2.1,0.6,3.1,0.8
		c0.6,1.4,0.3,2.7,0.4,3.9c0,1.4-0.1,2.8,0,4.2c0,1.2-0.3,2.5,0.3,3.9c1.3-1.1,1.4-2.6,1.9-3.8c0.5-1.3,0.6-2.7,1.1-4
		c0.5-1.2,0.2-2.8,1.6-3.8c0.6,2.1,0.1,4.1,0.8,6c1.8-1.1,1.3-3.4,2.7-4.4c0.8,0.1,0.9,0.7,0.8,1.3c-0.7,3.6-1.5,7.2-2.2,10.8
		c-2.7,14.5-5.5,29-8.1,43.5c-1.9,11-3.6,22.1-5.3,33.1c-0.6,3.9-1,7.8-1.6,11.6c-0.2,1.2-0.5,2.5-0.8,3.7c-0.3,1-0.7,2-1,2.9
		C2657.6,57.2,2655.4,63.7,2653.9,70.2c0,0.2,0,0.4,0,0.5C2654,70.6,2654,70.4,2653.9,70.2z M2662.3-20.9c-1.7,0.2-2.5,1.2-2.5,2.8
		c0,3.9,0,7.8,0,11.7c0,0.9,0.1,1.9,0.1,2.8c0.6-0.6,0.8-1.3,0.9-1.9c0.6-4.8,1.1-9.6,1.6-14.4C2662.5-20.2,2662.4-20.5,2662.3-20.9
		z M2639.3,90.3c-0.7,4.2-0.6,12.5,0,14.7c0.6-2.6,1.2-5.4,1.9-8.2c0.4-1.4,0.4-2.7-0.4-4C2640.4,92.2,2640,91.5,2639.3,90.3z
		 M2628.6,192.2c2.1-0.7,2.2-0.7,2-1.8c-0.3-2.2-0.7-4.3-1.1-6.4c-0.1-0.7-0.4-1.3-0.6-2C2628.8,185.4,2628,188.7,2628.6,192.2z
		 M2650.6,24.9c-0.6,0.7-0.8,0.8-0.8,1c-0.1,2.6-0.2,5.2-0.3,7.8c0,0.2,0.6,0.4,1.1,0.8C2650.9,31.2,2650.7,28.3,2650.6,24.9z"/>
	<path id="XMLID_11_" class="st1" d="M3013.7,153.8c0.6-0.3,1.3-0.5,1.9-0.8c4.1-2.6,7.9-5.5,11.1-9.3c0.7-0.9,1.6-1.6,2.4-2.4
		c1.7-1.7,3.3-3.6,4.4-5.7c2.2-4.2,2.7-8.5,1.2-13c-0.9-2.5-2.1-4.9-3.7-7c-0.6-0.7-1.1-1.5-1.6-2.1c0-2,1.8-3.4,1.5-5.5
		c-1.4,0.4-2.5,0.7-3.6,1c-1-1,0.1-2.2-0.6-3.2c-1.6,0.2-2.6,1.8-4.4,2.3c-4.9-2.2-10.1-3.8-15.7-4.2c-5.5-0.3-11-0.1-16.8,0.9
		c0.5-1.8,1.8-2.6,2.6-3.6s1.9-1.8,2.8-3.7c-2.3,1.3-3.8,2.5-5,3.9c-2.7,3.1-6,4.6-10,5.7c-4.3,1.1-8.5,3-12.6,4.7
		c-5.4,2.2-10.8,4.6-16.2,6.9c-0.7,0.3-1.5,0.5-2.2,0.7c-0.4-1.2,0.1-2,0.8-2.6c1.6-1.5,3.2-3,4.8-4.5c1.7-1.6,3.4-3.1,5.1-4.7
		c0.6-0.5,0.9-1.2,1.6-2.1c-2.4,0.3-4.5,0.9-6.5,0.8c-2.1-0.1-3.9,1.3-6.4,1.4c2.6-3.5,6-5.6,8.6-9c-3,0.3-4.9,2.6-8,2.4
		c3.7-4.6,7.1-8.9,10.5-13.2c-0.7-0.7-1.2-0.3-1.7-0.1c-1.1,0.6-2.2,1.1-3.7,1.8c0-0.9-0.1-1.4,0-1.9c1.6-9.1,3.2-18.2,4.8-27.2
		c0.2-0.9,0.5-1.7,0.8-2.7c0.8,0.2,1.5,0.3,2.4,0.5c0.3,1.7,0.7,3.3,1.1,5.2c0.4-0.3,0.9-0.6,1.6-1.1c0.5,0.8,1.1,1.6,1.6,2.4
		c0.3-0.2,0.5-0.2,0.6-0.3c0.8-1.2,0.9-2.8,2.2-3.7c1,0.1,1.3,0.7,1.4,1.4c0.4,2.5,0.9,5,1.3,7.5c0.2,1,0.1,2.1,0.3,3.1
		c0,0.3,0.3,0.5,0.7,1c2.5-3.9,3.1-8.3,4.9-12.5c0.6,0,1.4,0.1,2.3,0.1c0.3,4.8-0.7,9.3-1.2,14.6c0.7-1.1,1.1-1.6,1.3-2.2
		c1.3-3.1,2.5-6.2,3.7-9.3c0.3-0.6,0.5-1.3,0.9-1.8c0.1-0.2,0.6-0.2,0.9-0.1c0.2,0,0.4,0.3,0.5,0.4c0,0.6,0,1.1-0.1,1.7
		c-0.7,4.2-1.5,8.4-2.2,12.5c1,0.8,1.9,0.4,2.8,0.3c2.6-0.3,5.3-0.7,7.9-1c1.4-0.2,2.7-0.1,4.1,0.3c3.3,0.9,6.7,1.7,10,2.6
		c1.1,0.3,2.2,0.5,3.7,0.9c-1-1.8-3-1.9-4-3.3c4.5-0.6,14.5,1.6,22,4.8c7.2,3.1,13.5,7.3,16,10.8c-3.2-0.6-6.2-1.2-9.3-1.9
		c0,1.1,0.7,1.2,1.3,1.4c3.3,1.1,6.5,2.3,9.8,3.3c2,0.6,3.4,1.8,4.6,3.5c4.8,6.5,8.1,13.7,9.5,21.6c0.9,5.3,0.8,10.6-0.3,15.8
		c-0.3,1.3-0.8,2.4-1.7,3.3c-2.8,2.9-5.6,5.8-8.4,8.7c-0.8,0.8-1.7,1.4-2,2.7c2.8-1.9,5.6-3.9,8.4-5.8c0.7,0.5,0.3,0.9,0.1,1.3
		c-3.5,7.5-8.8,13.5-15.1,18.6c-7.6,6.1-16.1,10.3-25.3,13.2c-8,2.6-16.3,4.2-24.7,5.2c-3.5,0.4-7.1,0.7-10.7,0.9
		c-0.6-1.5-1.1-2.9-1.7-4.3c-2.9,0.5-3.8,3-5.7,4.7c-7.9,0.3-15.9,0.3-24.2,0c-0.1-1-0.2-1.8-0.3-2.7c1.3-0.3,0.7,1,1.7,1.3
		c0.5-0.2,1.1-0.6,1.9-1c-0.2-0.6-0.4-1.1-0.6-1.8c0.6-0.4,1.2-0.9,1.8-1.3c-0.1-0.3-0.2-0.6-0.3-0.6c-1.2-0.5-2.7-0.6-3.8-1.4
		c0.1-1,0.8-0.8,1.3-0.8c5.2-0.5,10.3-0.9,15.5-1.4c0.8-0.1,1.6-0.1,2.2-1.2c-2.9-0.5-5.7-1-8.5-1.5c-2.6-0.5-5.4-0.5-8.6-1.6
		c1.4-0.4,2.1-0.6,3.2-0.9c-1.2-0.7-2.1-1.3-3.1-1.9c0.5-0.7,0.9-1.2,1.5-1.8c-1.1-0.4-2-0.8-3.5-1.4c5.3-0.5,9.9-0.6,15.1-0.8
		c-2.8-1.5-5.3-1.2-7.7-1.7c-2.4-0.4-4.8-0.7-7.1-1c-0.5-1.6-0.5-1.6-0.2-3.5c0.8-0.1,1.7-0.2,2.6-0.2c3.5,0,6.9,0.1,10.4,0
		c6.2-0.1,12.5-0.2,18.7-0.6c11.1-0.8,22-2.7,32.3-7c0.3-0.1,0.6-0.2,1.6-0.4c-1.5,1.6-2.6,2.7-3.8,3.9c-0.5,0.3-0.9,0.7-1.4,1
		c0.1,0.1,0.2,0.3,0.3,0.4C3012.7,154.5,3013.2,154.1,3013.7,153.8z M3029.9,162.9c-2.7,0.4-5.2,1.3-7.4,2.9
		c0.6,1.4,1.7,1.1,2.7,1.1C3027.8,167,3028.6,164.7,3029.9,162.9z M2972,92.5c1.1,0.7,2.2,0.5,3.2,0.2c1.1-0.3,2.2-0.7,3.2-1.1
		c0.3-0.1,0.4-0.9,0.3-1.2s-0.7-0.6-1-0.6C2975.7,89.8,2974,90.6,2972,92.5z M3010.8,93.8c1.8,0.4,3.1,0.8,4.4,1
		c0.5,0.1,1.1-0.1,1.6-0.2c0.2-0.1,0.5-0.5,0.5-0.8s-0.3-0.8-0.5-0.8C3014.9,92.7,3013.1,92.7,3010.8,93.8z M2981.1,170.4
		c0.9,0.7,1.2,1.1,1.5,1.2c2,0.3,4,0.2,6.1-1.3C2986.2,169.8,2984.1,170,2981.1,170.4z M3048.8,122.4c0.1,2.2,0.2,3.7,0.3,5.1
		c0,0.2,0.3,0.3,0.6,0.6c0.4-0.7,0.8-1.3,1.2-2c-0.3-0.8-0.6-1.5-0.9-2.2C3049.8,123.7,3049.6,123.4,3048.8,122.4z"/>
	<path id="XMLID_9_" class="st1" d="M2764.5,207.1c-2.5-2.9-2.5-2.9-4.4-3.7c-0.5,1-0.9,1.9-1.6,3.2c-0.9-1.6-1.6-2.8-2.5-4.4
		c-1.4,2.8-0.3,5.5-1,8c-0.8,0.3-0.9-0.5-1-0.9c-1.4-4.1-2.8-8.3-4.2-12.4c-0.9-2.7-1.9-5.4-2.9-8.1c-0.2-0.6-0.6-1.2-1.3-1.6
		c0.5,3.6,1,7.2,1.4,10.9c0.4,3.5,1.5,6.9,1.4,11c-1.6-1.5-1.2-3.6-2.7-4.7c-0.3,1.4-0.7,2.7-1,4.1c-1.1,0-2.1,0-3.2,0
		c-0.5-1.4-1-2.8-1.6-4.3c-0.7,0.6-0.4,1.3-0.4,1.9c-0.1,1.3,0,2.5,0,3.8c0,0.5,0.1,1.1-0.5,1.5c-0.4,0.2-0.9-0.4-1-1.5
		c-0.7-6.1-1.3-12.2-2-18.2c-0.8-6.9-1.5-13.7-2.4-20.6c-1-7.7-2.1-15.3-3.1-22.9c-0.4-2.5-0.8-5-1.1-7.5c-0.1-1-0.4-2,0-3.3
		c1.5,1.1,2.3,2.6,3.3,3.7c1.1,1.2,2.1,2.4,3.3,3.6c1.1,1.1,2.2,2.4,4,3.1c-0.1-0.6-0.1-1.1-0.2-1.4c-1.2-2.4-2.4-4.7-3.7-7
		c-3.4-5.9-6.4-12-9.2-18.2c-0.6-1.4-1-2.8-1.3-4.3c-2.9-17-6.1-34-9.8-50.9c-1.3-5.7-1.8-11.4-2.5-17.1c-1.1-9.2-2-18.3-4.1-27.3
		c-0.4-1.8-0.9-3.6-1.5-5.3c-0.2-0.5-0.5-1-1.1-2c-0.3,2.3,0.2,4,0.2,5.6s0,3.1,0,5.1c-0.4-0.6-0.6-0.8-0.7-1.1
		c-4.8-17.4-9.5-34.9-14.3-52.3c-0.1-0.2,0.1-0.4,0.2-0.9c0.7-0.2,1.6-0.5,2.6-0.8c0.6,1,1.1,2,1.8,3.2c0.4-1,0.7-1.7,1-2.7
		c1.5,1.6,1.7,3.7,3.3,5.5c0.2-2,0.3-3.4,0.4-4.8c0.8-0.5,1.2,0,1.4,0.5c1.7,3.1,3.4,6.3,5.1,9.4c0.6,1.1,1.1,2.3,1.9,3.9
		c0.2-1.9-0.3-3.2-0.6-4.4c-0.9-3.8-2-7.6-2.8-11.4c-0.4-1.8-0.6-3.6-0.8-5.5c0-0.3,0.1-0.6,0.2-1.2c1.3,0.7,1.7,2,2.3,3
		c0.6,1.1,1.2,2.2,1.8,3.4c0.6,1.1,1.1,2.2,1.7,3.3c1-0.3,0.7-1,0.8-1.5c0.1-0.6,0-1.2,0-1.7s0.1-1.1,0.1-2c1.6,1.1,2,2.6,2.7,3.8
		c0.7,1.2,1.3,2.4,1.9,3.5c0.9-0.2,0.6-0.7,0.6-1.1c0-0.3,0-0.7-0.1-1c-0.4-2.4-0.8-4.8-1.1-7.2c-0.1-1,0.2-1.6,1.5-1.5
		c0.3,0.7,0.7,1.5,1,2.4c4.4,16.1,8.8,32.2,13.2,48.3c0.8,2.9,0.7,2.9,0,5.7c-0.3,1-0.5,2-0.8,3.2c1-0.3,1.7-0.5,2.7-0.7
		c0.6,1.9,0.4,3.8,0.4,5.6c0,2,0,3.9,0,5.9c0,1.8-0.1,3.6,0.1,5.4c1.8,0.2,1.5-2.1,3.2-2.1c0.7,3,1.5,5.9,2.1,8.9
		c3.2,15.2,6.4,30.4,9.5,45.7c1.3,6.5,2.4,13.2,3.6,19.7c0.4,2.4,0.2,4.8-0.1,7.2c-0.2,1.6-0.3,3.2-0.1,4.9c0.4-0.7,0.8-1.4,1.2-2.1
		c0.2,0,0.4,0,0.4,0c0.1,0.1,0.1,0.2,0.2,0.3c0.2,0.8,0.4,1.6,0.5,2.4c4.3,26.8,7.8,53.6,10.4,80.6c0.1,0.8,0,1.6,0,2.4
		C2764.9,206.7,2764.8,206.8,2764.5,207.1z M2750.9,155.4c-0.2,0.1-0.3,0.1-0.5,0.2c0.5,3.7,0.9,7.5,1.4,11.2
		c0.1,0.8,0.4,1.6,0.7,2.3c0.2,0.4,0.6,0.7,1,1.1c0.4-0.3,0.9-0.6,1.1-0.9c0.6-1.2,0.7-2.3,0.2-3.6c-1.1-3-2.1-6-3.2-9.1
		C2751.5,156.2,2751.2,155.8,2750.9,155.4z M2737,95.8c-0.4-1.2-0.7-2.2-1.1-3.1c-1.9-4.6-3.6-9.3-6-14.2c-0.6,1.9-0.3,3.3,0.2,4.7
		c1,2.7,1.9,5.4,2.9,8.1c0.4,1.2,0.9,2.4,1.4,3.5C2734.9,95.6,2735.5,96,2737,95.8z M2721.1,15.2c-0.2-3.2-0.4-3.8-1.7-6.3
		C2719.6,11.3,2719.9,13.2,2721.1,15.2z"/>
	<path id="XMLID_6_" class="st1" d="M2584.9,143.8c0.3-0.5,0.7-0.9,0.8-1.4c1.1-3.5,2.2-7,3.3-10.5c0.2-0.7,0.3-1.6,1.1-2
		c0.5,3.2,0.4,25-0.1,28c-0.7-1.1-1.2-2-1.9-3.1c-1.5,2.2-0.6,4.8-2.2,6.9c-0.4-0.5-0.9-0.8-1-1.3c-0.6-1.6-1-3.3-1.5-4.9
		c-0.3-0.8-0.7-1.6-1-2.4c-0.9-0.1-0.9,0.5-0.9,0.9c-0.2,2.3-0.5,4.6-0.8,7.6c-0.6-1.2-1-1.6-1.1-2.2c-0.4-2-0.7-4.1-1.1-6.8
		c-0.5,1.6-0.8,2.7-1.1,3.8c-0.6,0-1.1,0-1.8,0c-0.2,1.3-0.3,2.7-0.5,4c-0.1,0.7-0.5,1.3-1.6,1.1c-0.2-0.7-0.6-1.6-0.8-2.5
		c-0.8-5.1-1.5-10.3-2.2-15.4c-0.3-1.8-0.6-3.6-0.9-5.6c-1,0.9-0.5,1.9-0.6,2.8c-0.2,6-0.4,12-0.6,18c0,0.7,0,1.4-0.2,2
		c-0.2,0.4-0.8,0.6-1.4,1c-0.6-1.2-1-2.2-1.6-3.5c-0.2,1-0.3,1.8-0.5,2.5c-0.1,0.2-0.6,0.6-0.7,0.5c-0.4-0.1-0.7-0.5-0.9-0.8
		s-0.1-0.7-0.1-1c0-17.3,0-34.6,0-51.9c0-0.3,0.1-0.7,0.1-1.1c1.9-1.4,4.5-0.6,6.7-1.9c-2.4-0.3-4.5-0.6-6.7-0.9c0-3.4,0-6.7,0-10
		c0.3-0.2,0.6-0.4,1-0.6c0-0.1,0.1-0.2,0.1-0.3c-1.5-3.8-1.2-7.7-1.2-11.6c0-10.7,0-21.5,0-32.2c0-1.1,0.1-2.3,0.1-3.2
		c1.1-1,2.1-0.6,3.1-0.4c1,1.9,1.1,3.8,1.5,5.7c0.4,1.8,0.6,3.6,1.1,5.9c0.4-0.9,0.8-1.4,0.9-2c0.3-2.6,0.5-5.3,0.7-7.9
		c0.1-0.6,0.2-1.1,0.3-1.8c1,0,1.9,0,2.9,0c0.5,1.6,0.9,3.1,1.4,4.5c0.7,0.2,0.9-0.2,1.1-0.7c0.2-0.6,0.5-1.3,0.7-1.9
		c1,0.1,1.1,0.8,1.3,1.4c0.6,1.8,1.2,3.7,1.9,6c0.7-1.9,0.4-3.3,0.5-4.7c0.1-1.5-0.2-3,0.6-4.6c1,0,1.9,0,3,0
		c0.3,0.9,0.6,1.9,1.2,3.6c0.3-1.6,0.5-2.5,0.6-3.4c1.4-0.6,2.8-0.4,4.4-0.1c0.5,1.3,0.3,2.6,0.3,3.8c0,19.5,0,39,0,58.5
		c0,3.8,0,7.6,0,11.4c0,1.5-0.2,2.9-0.8,4.4c-2.2,5.3-3.5,11-4.5,16.6C2584.9,141.4,2585,142.7,2584.9,143.8c0,0.2-0.1,0.4-0.2,0.6
		C2584.8,144.2,2584.9,144,2584.9,143.8z M2581.9,105.6c1.5-0.5,1.6-1.5,1.5-2.6c-0.2-3.3-0.4-6.6-0.6-9.9c0-0.1-0.2-0.3-0.4-0.4
		c-1.3,0.8-1,2.2-1.2,3.4C2580.7,100.9,2580.9,103.4,2581.9,105.6z M2572.9,82.1c2.2-2.3,2.6-3.6-0.3-7.8
		C2572.1,77,2572.2,79.4,2572.9,82.1z"/>
	<path id="XMLID_4_" class="st1" d="M2983.6,36.7c0-0.8-0.6-0.9-1.1-1.1c-2.1-1.3-4.2-2.5-6.2-3.7c-0.4-0.2-0.7-0.6-1.1-0.9
		c0.9-0.8,1.6-0.4,2.4-0.2c3.1,0.9,6.2,1.8,9.3,2.7c0.6,0.2,1.3,0.3,2,0.2c-2.2-2.1-4.9-3.4-7.3-5.1c-2.4-1.6-4.8-3.2-7.2-4.8
		c0.2-1.1,0.4-2,0.6-2.9c0.4-0.1,0.8-0.2,1.1-0.1c2.2,0.8,4.5,1.7,7.1,2.8c-0.5-1.3-1.4-1.6-2-2.1c-0.7-0.6-1.4-1.1-2.8-2.2
		c1.4,0.3,2.1,0.4,2.7,0.6c11.1,3.3,21.7,7.6,32.1,12.8c1.6,0.8,2.9,2.2,4.5,3.4c0.6-0.1,1.4-0.4,2.4,0.1c7.2,4.1,14.3,8.4,21,13.3
		c0.2,0.1,0.3,0.4,0.5,0.6c-0.2,0.2-0.5,0.4-0.9,0.7c0.4,0.7,0.8,1.4,1.3,2.5c-3-0.5-5-2.6-7.8-3.2c0.2,1.8,1.4,2.7,2.2,3.9
		c0.8,1.1,1.9,2,2.1,3.6c-1.9,0.2-3.2-1.5-5-1.4c-0.4,0.9,0.4,1.2,0.7,1.7c0.4,0.7,1,1.3,1.4,2c0.4,0.6,0.8,1.1,1.2,1.7
		c0.3,0.6,0.6,1.2,0.9,1.8c-0.9,0.7-1.4,0.1-2-0.2c-4-2.1-8-4.2-12-6.2c-0.7-0.3-1.3-1-2.4-0.5c3.1,3.1,7,5.2,10.1,8.4
		c-0.7,1-1.3,1.9-2,3c-0.8-0.2-1.6-0.3-2.5-0.6c0,0.9,1.1,1.2,1.1,2.4c-0.5,0.7-1.1,1.6-1.8,2.7c-0.6-0.3-1.2-0.4-1.6-0.7
		c-8.8-6.2-18.1-11.5-27.8-16.1c-0.3-0.1-0.6-0.4-0.8-0.6c-0.1-0.1-0.1-0.2-0.1-0.5c3.6-0.9,7.4-1,11.1-1.8
		c-3.9-1.7-12.7-2.9-16.4-2.3c-0.6,1.1,1.1,1.4,0.8,2.6c-3.1-0.9-6-2.2-8.9-3.5c0.1-0.8,0.2-1.4,0.3-2.3c-1.2,0.5-2.1,0.8-3.2,1.3
		c-3.5-1.2-7.3-2.1-11.1-3.6c0.6-2.2,1.2-4.3,1.7-6.3c1.6-1.1,3.3,0.1,5-0.6c-0.6-0.8-1.2-1.6-1.7-2.4c0.5-0.9,1.1-0.6,1.6-0.5
		c2,0.5,4,1.1,6,1.5C2981.9,36.5,2982.8,36.5,2983.6,36.7c0.2,0.1,0.3,0.2,0.5,0.3l0.2-0.1C2984.1,36.9,2983.9,36.8,2983.6,36.7z
		 M3001.6,35.8c1.4,2.6,1.9,2.9,4.5,2.5C3005.2,36.8,3003.8,36.3,3001.6,35.8z"/>
	<path id="XMLID_3_" class="st1" d="M2022.2,170.7c0.1-0.2,0.2-0.3,0.3-0.5C2022.4,170.3,2022.3,170.5,2022.2,170.7
		C2022.1,170.6,2022.2,170.7,2022.2,170.7z"/>
</g>
</svg>
